<?xml version="1.0" encoding="utf-8"?>
<!-- Generator: Adobe Illustrator 17.0.0, SVG Export Plug-In . SVG Version: 6.00 Build 0)  -->
<!DOCTYPE svg PUBLIC "-//W3C//DTD SVG 1.1//EN" "http://www.w3.org/Graphics/SVG/1.1/DTD/svg11.dtd">
<svg version="1.1" id="Isolation_Mode" xmlns="http://www.w3.org/2000/svg" xmlns:xlink="http://www.w3.org/1999/xlink" x="0px"
	 y="0px" width="517px" height="517px" viewBox="0 0 517 517" enable-background="new 0 0 517 517" xml:space="preserve">
<g>
	<defs>
		<path id="SVGID_1_" d="M0,258.5C0,401.274,115.729,517,258.5,517S517,401.274,517,258.5C517,115.732,401.271,0,258.5,0
			C115.729,0,0,115.732,0,258.5z"/>
	</defs>
	<clipPath id="SVGID_2_">
		<use xlink:href="#SVGID_1_"  overflow="visible"/>
	</clipPath>
	<g clip-path="url(#SVGID_2_)">
		<g>
			<rect x="321.339" y="282.164" fill="#E6E5E5" width="52.962" height="131.436"/>
			<rect x="281.614" y="167.383" fill="#3E4959" width="132.411" height="114.781"/>
			<rect x="281.614" y="224.774" fill="#242D3C" width="132.411" height="57.39"/>
			<g>
				<g>
					<path fill="#242D3C" d="M117.273,195.693v58.153c-16.062,0-29.078-13.006-29.078-29.075
						C88.195,208.712,101.211,195.693,117.273,195.693z"/>
				</g>
			</g>
			<rect x="113.118" y="103.4" fill="#FF6D3B" width="17.659" height="250.181"/>
			<rect x="414.025" y="187.579" fill="#FF6D3B" width="11.741" height="74.384"/>
			<rect x="425.766" y="201.276" fill="#FFFFFF" width="11.746" height="46.98"/>
			<polygon fill="#FFFFFF" points="130.766,114.4 130.766,224.758 281.599,224.758 281.599,167.364 			"/>
			<polygon fill="#E6E5E5" points="130.766,224.758 130.766,335.109 281.599,282.138 281.599,224.758 			"/>
		</g>
		<g>
			<g>
				<path fill="#FFFFFF" d="M314.241,370.255c-2.858,0-5.721,1.091-7.917,3.277c-2.177,2.189-3.272,5.052-3.272,7.915l0,0
					c0,2.86,1.095,5.726,3.272,7.915c2.187,2.195,5.054,3.277,7.917,3.264l13.098,0.013l-0.003-22.384H314.241z"/>
				<path fill="#FFFFFF" d="M314.241,347.884c-2.863,0-5.721,1.088-7.917,3.27c-2.177,2.182-3.272,5.059-3.272,7.915l0,0
					c0,2.86,1.095,5.723,3.272,7.918c2.195,2.176,5.059,3.267,7.917,3.267h13.094v-22.371H314.241z"/>
				<path fill="#FFFFFF" d="M314.241,347.884c-2.863,0-5.721,1.088-7.917,3.27c-2.177,2.182-3.272,5.059-3.272,7.915l0,0
					c0,2.86,1.095,5.723,3.272,7.918c2.195,2.176,5.059,3.267,7.917,3.267h13.094v-22.371H314.241z"/>
				<path fill="#FFFFFF" d="M314.241,325.49c-2.863,0-5.729,1.111-7.917,3.293c-2.177,2.182-3.272,5.052-3.272,7.899l0,0
					c0,2.873,1.095,5.733,3.272,7.915c2.187,2.182,5.054,3.287,7.917,3.287h13.094l0.003-22.394H314.241z"/>
				<path fill="#FFFFFF" d="M314.241,325.49c-2.863,0-5.729,1.111-7.917,3.293c-2.177,2.182-3.272,5.052-3.272,7.899l0,0
					c0,2.873,1.095,5.733,3.272,7.915c2.187,2.182,5.054,3.287,7.917,3.287h13.094l0.003-22.394H314.241z"/>
				<path fill="#FFFFFF" d="M314.237,303.119c-2.855,0-5.718,1.088-7.913,3.277c-2.177,2.189-3.272,5.049-3.272,7.922l0,0
					c0,2.85,1.095,5.72,3.272,7.896c2.195,2.211,5.054,3.277,7.917,3.277h13.098l-0.003-22.371H314.237z"/>
				<path fill="#FFFFFF" d="M327.335,303.105v89.54h54.055c2.866,0,5.72-1.081,7.931-3.27c2.176-2.189,3.26-5.075,3.26-7.922
					v-67.149c0-2.86-1.085-5.72-3.26-7.902c-2.212-2.202-5.065-3.296-7.931-3.296H327.335z"/>
			</g>
			<g>
				<rect x="414.025" y="303.105" fill="#E6E5E5" width="11.741" height="89.54"/>
				<rect x="425.768" y="298.904" fill="#242D3C" width="159.685" height="97.957"/>
				<path fill="#FFFFFF" d="M435.751,381.623c0,2.902,2.349,5.254,5.246,5.254c2.893,0,5.247-2.352,5.247-5.254
					c0-2.893-2.355-5.241-5.247-5.241C438.1,376.382,435.751,378.731,435.751,381.623z"/>
			</g>
			<rect x="392.582" y="314.304" fill="#FFFFFF" width="21.443" height="67.149"/>
		</g>
		<g>
			<rect x="56.027" y="221.816" fill="#FFFFFF" width="19.575" height="5.869"/>
			<polygon fill="#FFFFFF" points="61.808,250.894 79.889,243.409 77.641,237.985 59.563,245.481 			"/>
			<polygon fill="#FFFFFF" points="76.034,270.138 89.874,256.305 85.721,252.148 71.882,265.995 			"/>
			<polygon fill="#FFFFFF" points="96.534,282.467 104.025,264.389 98.602,262.142 91.11,280.226 			"/>
			
				<rect x="66.804" y="195.274" transform="matrix(-0.3829 0.9238 -0.9238 -0.3829 285.876 219.1574)" fill="#FFFFFF" width="5.874" height="19.57"/>
			
				<rect x="77.97" y="178.583" transform="matrix(-0.7074 0.7068 -0.7068 -0.7074 271.2851 264.428)" fill="#FFFFFF" width="5.871" height="19.574"/>
			<polygon fill="#FFFFFF" points="98.635,187.386 104.061,185.152 96.573,167.054 91.146,169.305 			"/>
		</g>
	</g>
</g>
</svg>
