<?xml version="1.0" encoding="utf-8"?>
<!-- Generator: Adobe Illustrator 17.0.0, SVG Export Plug-In . SVG Version: 6.00 Build 0)  -->
<!DOCTYPE svg PUBLIC "-//W3C//DTD SVG 1.1//EN" "http://www.w3.org/Graphics/SVG/1.1/DTD/svg11.dtd">
<svg version="1.1" id="Isolation_Mode" xmlns="http://www.w3.org/2000/svg" xmlns:xlink="http://www.w3.org/1999/xlink" x="0px"
	 y="0px" width="155px" height="155px" viewBox="0 0 155 155" enable-background="new 0 0 155 155" xml:space="preserve">
<circle fill="#21D8DE" cx="77.5" cy="77.5" r="77.5"/>
<g>
	<defs>
		<circle id="SVGID_1_" cx="77.5" cy="77.5" r="77.5"/>
	</defs>
	<clipPath id="SVGID_2_">
		<use xlink:href="#SVGID_1_"  overflow="visible"/>
	</clipPath>
	<g clip-path="url(#SVGID_2_)">
		<g>
			<rect x="42.782" y="84.595" fill="#E6E5E5" width="15.878" height="39.405"/>
			<rect x="30.873" y="50.183" fill="#3E4959" width="39.698" height="34.412"/>
			<rect x="30.873" y="67.389" fill="#242D3C" width="39.698" height="17.206"/>
			<g>
				<g>
					<path fill="#242D3C" d="M119.841,58.67v17.435c4.815,0,8.718-3.899,8.718-8.717C128.559,62.573,124.656,58.67,119.841,58.67z"
						/>
				</g>
			</g>
			<rect x="115.792" y="31" fill="#FF6D3B" width="5.294" height="75.006"/>
			<rect x="27.352" y="56.237" fill="#FF6D3B" width="3.52" height="22.301"/>
			<rect x="23.831" y="60.344" fill="#FFFFFF" width="3.521" height="14.085"/>
			<polygon fill="#FFFFFF" points="115.795,34.298 115.795,67.384 70.575,67.384 70.575,50.177 			"/>
			<polygon fill="#E6E5E5" points="115.795,67.384 115.795,100.468 70.575,84.587 70.575,67.384 			"/>
		</g>
		<g>
			<g>
				<path fill="#FFFFFF" d="M60.789,111.005c0.857,0,1.715,0.327,2.374,0.982c0.653,0.656,0.981,1.515,0.981,2.373l0,0
					c0,0.857-0.328,1.717-0.981,2.373c-0.656,0.658-1.515,0.982-2.374,0.979l-3.927,0.004l0.001-6.711H60.789z"/>
				<path fill="#FFFFFF" d="M60.789,104.298c0.858,0,1.715,0.326,2.374,0.98c0.653,0.654,0.981,1.517,0.981,2.373l0,0
					c0,0.857-0.328,1.716-0.981,2.374c-0.658,0.652-1.517,0.979-2.374,0.979h-3.926v-6.707H60.789z"/>
				<path fill="#FFFFFF" d="M60.789,104.298c0.858,0,1.715,0.326,2.374,0.98c0.653,0.654,0.981,1.517,0.981,2.373l0,0
					c0,0.857-0.328,1.716-0.981,2.374c-0.658,0.652-1.517,0.979-2.374,0.979h-3.926v-6.707H60.789z"/>
				<path fill="#FFFFFF" d="M60.789,97.584c0.858,0,1.718,0.333,2.374,0.987c0.653,0.654,0.981,1.515,0.981,2.368l0,0
					c0,0.861-0.328,1.719-0.981,2.373c-0.656,0.654-1.515,0.985-2.374,0.985h-3.926l-0.001-6.714H60.789z"/>
				<path fill="#FFFFFF" d="M60.789,97.584c0.858,0,1.718,0.333,2.374,0.987c0.653,0.654,0.981,1.515,0.981,2.368l0,0
					c0,0.861-0.328,1.719-0.981,2.373c-0.656,0.654-1.515,0.985-2.374,0.985h-3.926l-0.001-6.714H60.789z"/>
				<path fill="#FFFFFF" d="M60.79,90.877c0.856,0,1.714,0.326,2.373,0.982c0.653,0.656,0.981,1.514,0.981,2.375l0,0
					c0,0.854-0.328,1.715-0.981,2.367c-0.658,0.663-1.515,0.982-2.374,0.982h-3.927l0.001-6.707H60.79z"/>
				<path fill="#FFFFFF" d="M56.863,90.873v26.845H40.657c-0.859,0-1.715-0.324-2.378-0.98c-0.652-0.656-0.978-1.521-0.978-2.375
					V94.23c0-0.857,0.325-1.715,0.978-2.369c0.663-0.66,1.519-0.988,2.378-0.988H56.863z"/>
			</g>
			<g>
				<rect x="27.352" y="90.873" fill="#E6E5E5" width="3.52" height="26.845"/>
				<rect x="-20.522" y="89.613" fill="#242D3C" width="47.875" height="29.368"/>
				<circle fill="#FFFFFF" cx="22.786" cy="114.413" r="1.573"/>
			</g>
			<rect x="30.873" y="94.23" fill="#FFFFFF" width="6.429" height="20.132"/>
		</g>
		<g>
			<rect x="132.334" y="66.502" fill="#FFFFFF" width="5.869" height="1.76"/>
			
				<rect x="131.163" y="72.405" transform="matrix(0.924 0.3825 -0.3825 0.924 38.2277 -45.7182)" fill="#FFFFFF" width="5.867" height="1.76"/>
			
				<rect x="127.819" y="77.412" transform="matrix(0.7073 0.7069 -0.7069 0.7073 93.6238 -69.5161)" fill="#FFFFFF" width="5.867" height="1.762"/>
			
				<rect x="122.815" y="80.759" transform="matrix(0.3828 0.9238 -0.9238 0.3828 153.0253 -65.7843)" fill="#FFFFFF" width="5.867" height="1.76"/>
			
				<rect x="133.211" y="58.544" transform="matrix(0.3829 0.9238 -0.9238 0.3829 139.535 -85.9341)" fill="#FFFFFF" width="1.761" height="5.867"/>
			
				<rect x="129.864" y="53.54" transform="matrix(0.7074 0.7068 -0.7068 0.7074 78.1795 -75.8898)" fill="#FFFFFF" width="1.76" height="5.868"/>
			
				<rect x="124.858" y="50.196" transform="matrix(0.9247 0.3807 -0.3807 0.9247 29.7007 -43.8727)" fill="#FFFFFF" width="1.759" height="5.872"/>
		</g>
	</g>
</g>
</svg>
