<?xml version="1.0" encoding="utf-8"?>
<!-- Generator: Adobe Illustrator 17.0.0, SVG Export Plug-In . SVG Version: 6.00 Build 0)  -->
<!DOCTYPE svg PUBLIC "-//W3C//DTD SVG 1.1//EN" "http://www.w3.org/Graphics/SVG/1.1/DTD/svg11.dtd">
<svg version="1.1" id="Isolation_Mode" xmlns="http://www.w3.org/2000/svg" xmlns:xlink="http://www.w3.org/1999/xlink" x="0px"
	 y="0px" width="155px" height="155px" viewBox="0 0 155 155" enable-background="new 0 0 155 155" xml:space="preserve">
<circle fill="#FFD55C" cx="77.5" cy="77.5" r="77.5"/>
<g>
	<g>
		<rect x="24.197" y="74.174" fill-rule="evenodd" clip-rule="evenodd" fill="#3E4959" width="106.605" height="69.291"/>
		<path fill-rule="evenodd" clip-rule="evenodd" fill="#D9D8D7" d="M24.197,94.768c1.096,3.222,2.919,6.177,5.387,8.654
			c4.254,4.254,9.918,6.592,15.93,6.592h63.973c6.014,0,11.674-2.34,15.922-6.592c2.475-2.478,4.299-5.435,5.394-8.654V74.174
			H24.197V94.768z"/>
		<path fill-rule="evenodd" clip-rule="evenodd" fill="#3E4959" d="M130.803,63.514H24.197v23.981
			c0,5.456,2.082,10.909,6.241,15.071c4.166,4.167,9.629,6.246,15.075,6.246h63.973c5.443,0,10.906-2.079,15.068-6.246
			c4.166-4.162,6.248-9.615,6.248-15.071V63.514z"/>
		<rect x="35.386" y="62.709" fill="#131A26" width="26.526" height="0.805"/>
		<rect x="93.09" y="62.709" fill="#131A26" width="26.523" height="0.805"/>
		<rect x="45.514" y="61.906" fill-rule="evenodd" clip-rule="evenodd" fill="#131A26" width="8.524" height="82.353"/>
		<rect x="100.958" y="61.906" fill-rule="evenodd" clip-rule="evenodd" fill="#131A26" width="8.528" height="82.353"/>
		<rect x="40.459" y="82.967" fill-rule="evenodd" clip-rule="evenodd" fill="#3E4959" width="18.656" height="6.392"/>
		<rect x="95.877" y="82.967" fill-rule="evenodd" clip-rule="evenodd" fill="#3E4959" width="18.66" height="6.392"/>
		<g>
			<path fill="#FFFFFF" d="M54.846,104.29c-0.611-0.604-1.422-0.94-2.277-0.94h-5.582c-0.859,0-1.66,0.336-2.256,0.94
				c-0.606,0.608-0.939,1.41-0.939,2.27v7.714h1.723v-1.321h-0.395v-6.393c0-0.511,0.186-0.975,0.551-1.326
				c0.342-0.354,0.824-0.548,1.316-0.548h5.582c0.514,0,0.973,0.193,1.338,0.548c0.338,0.352,0.536,0.815,0.536,1.326v6.393h-0.404
				v1.321h1.746v-7.714C55.784,105.7,55.45,104.898,54.846,104.29z"/>
			<path fill="#CCCBCA" d="M49.121,107.724h1.33v-3.71c0-0.129-0.062-0.264-0.168-0.368c-0.106-0.107-0.222-0.155-0.363-0.155
				h-0.267c-0.134,0-0.283,0.048-0.39,0.155c-0.102,0.104-0.143,0.239-0.143,0.368V107.724z"/>
		</g>
		<g>
			<path fill="#FFFFFF" d="M110.269,104.29c-0.603-0.604-1.399-0.94-2.258-0.94h-5.583c-0.855,0-1.662,0.336-2.278,0.94
				c-0.604,0.608-0.938,1.41-0.938,2.27v7.714h1.747v-1.321h-0.401v-6.393c0-0.511,0.195-0.975,0.541-1.326
				c0.358-0.354,0.818-0.548,1.33-0.548h5.583c0.491,0,0.976,0.193,1.317,0.548c0.363,0.352,0.558,0.815,0.558,1.326v6.393h-0.399
				v1.321h1.719v-7.714C111.205,105.7,110.871,104.898,110.269,104.29z"/>
			<path fill="#CCCBCA" d="M104.543,107.724h1.33v-3.71c0-0.129-0.037-0.264-0.143-0.368c-0.103-0.107-0.248-0.155-0.385-0.155
				h-0.262c-0.145,0-0.271,0.048-0.371,0.155c-0.104,0.104-0.17,0.239-0.17,0.368V107.724z"/>
		</g>
		<path fill="#131A26" d="M95.498,52.441c-0.861-0.85-2-1.323-3.205-1.323H62.711c-1.211,0-2.346,0.474-3.207,1.323
			c-0.859,0.858-1.318,1.995-1.318,3.21v7.058h3.724v-7.058c0-0.215,0.079-0.416,0.242-0.57c0.142-0.153,0.352-0.238,0.56-0.238
			h29.582c0.208,0,0.416,0.085,0.558,0.238c0.165,0.154,0.241,0.355,0.241,0.57v7.058h3.727v-7.058
			C96.818,54.437,96.353,53.3,95.498,52.441z"/>
	</g>
	<g>
		<defs>
			<circle id="SVGID_1_" cx="77.5" cy="77.5" r="77.5"/>
		</defs>
		<clipPath id="SVGID_2_">
			<use xlink:href="#SVGID_1_"  overflow="visible"/>
		</clipPath>
		<g clip-path="url(#SVGID_2_)">
			<g>
				<rect x="61.909" y="20.59" fill="#E6E5E5" width="31.183" height="4.092"/>
				<rect x="60.443" y="-14.833" fill="#242D3C" width="34.113" height="35.423"/>
				<path fill="#FFFFFF" d="M65.746,17.115c-1.008,0-1.825-0.819-1.825-1.829c0-1.005,0.817-1.827,1.825-1.827
					c1.012,0,1.83,0.822,1.83,1.827C67.576,16.296,66.758,17.115,65.746,17.115z"/>
			</g>
			<path fill="#FFFFFF" d="M91.947,33.282c-0.761-0.758-1.757-1.136-2.754-1.136v-7.465H65.808v7.465
				c-0.99,0-1.997,0.378-2.759,1.136c-0.76,0.771-1.14,1.765-1.14,2.761l0.005,21.255c-0.002,0.997,0.377,1.997,1.141,2.758
				c0.76,0.758,1.757,1.14,2.756,1.14c0.997,0,1.995-0.382,2.757-1.14c0.759-0.764,1.14-1.762,1.14-2.758
				c0,0.996,0.381,1.994,1.142,2.758c0.76,0.758,1.759,1.14,2.755,1.14s1.998-0.382,2.76-1.14c0.758-0.764,1.137-1.761,1.137-2.758
				c0,0.997,0.383,1.997,1.144,2.758c0.758,0.758,1.756,1.14,2.756,1.14c0.995,0,1.993-0.382,2.755-1.14
				c0.761-0.761,1.14-1.761,1.14-2.758c0,0.997,0.375,1.994,1.141,2.758c0.762,0.758,1.76,1.14,2.756,1.14
				c0.999,0,1.995-0.382,2.758-1.14c0.764-0.764,1.141-1.762,1.141-2.758l0.002-21.255C93.092,35.047,92.715,34.054,91.947,33.282z"
				/>
		</g>
	</g>
</g>
</svg>
