<?xml version="1.0" encoding="utf-8"?>
<!-- Generator: Adobe Illustrator 17.0.0, SVG Export Plug-In . SVG Version: 6.00 Build 0)  -->
<!DOCTYPE svg PUBLIC "-//W3C//DTD SVG 1.1//EN" "http://www.w3.org/Graphics/SVG/1.1/DTD/svg11.dtd">
<svg version="1.1" id="Isolation_Mode" xmlns="http://www.w3.org/2000/svg" xmlns:xlink="http://www.w3.org/1999/xlink" x="0px"
	 y="0px" width="155px" height="155px" viewBox="0 0 155 155" enable-background="new 0 0 155 155" xml:space="preserve">
<circle fill="#F2F2F2" cx="77.5" cy="77.5" r="77.5"/>
<g>
	<g>
		<rect x="48.039" y="115.852" fill="#242D3C" width="9.934" height="39.148"/>
		<rect x="97.023" y="115.852" fill="#242D3C" width="9.937" height="39.148"/>
		<rect x="57.974" y="137.495" fill="#242D3C" width="39.05" height="5.08"/>
	</g>
	<g>
		<path fill="#FF6D3B" d="M77.502,131.111c-29.573,0-53.616-24.051-53.616-53.601c0-29.583,24.043-53.621,53.616-53.621
			c29.543,0,53.612,24.038,53.612,53.621C131.114,107.061,107.045,131.111,77.502,131.111z"/>
		<path fill="#FFD55C" d="M77.504,113.244c-19.727,0-35.75-16.037-35.75-35.734c0-19.72,16.023-35.75,35.75-35.75
			c7.781,0,14.991,2.501,20.868,6.743c9,6.497,14.872,17.076,14.872,29.007C113.244,97.207,97.201,113.244,77.504,113.244z"/>
		<path fill="#FFFFFF" d="M77.505,95.377c-9.852,0-17.877-8.021-17.877-17.867c0-9.873,8.025-17.879,17.877-17.879
			c9.853,0,17.867,8.006,17.867,17.879C95.372,87.355,87.357,95.377,77.505,95.377z"/>
	</g>
	<path fill="#E6E5E5" d="M78.392,76.611c-0.491-0.494-1.289-0.494-1.784,0c-0.498,0.49-0.498,1.291,0.002,1.786l37.867,37.868
		c0.607-0.58,1.203-1.182,1.788-1.789L78.392,76.611z"/>
	<g>
		<polygon fill="#FF6D3B" points="131.804,13.714 119.362,26.152 119.362,35.641 128.853,35.643 141.294,23.205 131.802,23.201 		
			"/>
		<path fill="#242D3C" d="M135.652,17.563L76.608,76.611c-0.498,0.492-0.498,1.291,0,1.786c0.491,0.495,1.291,0.495,1.782-0.001
			l59.05-59.049L135.652,17.563z"/>
	</g>
</g>
</svg>
