<?xml version="1.0" encoding="utf-8"?>
<!-- Generator: Adobe Illustrator 17.0.0, SVG Export Plug-In . SVG Version: 6.00 Build 0)  -->
<!DOCTYPE svg PUBLIC "-//W3C//DTD SVG 1.1//EN" "http://www.w3.org/Graphics/SVG/1.1/DTD/svg11.dtd">
<svg version="1.1" id="Isolation_Mode" xmlns="http://www.w3.org/2000/svg" xmlns:xlink="http://www.w3.org/1999/xlink" x="0px"
	 y="0px" width="155px" height="155px" viewBox="0 0 155 155" enable-background="new 0 0 155 155" xml:space="preserve">
<circle fill="#FFD55C" cx="77.5" cy="77.5" r="77.5"/>
<g>
	<g>
		<polygon fill="#3E4959" points="72.744,131.567 39.621,74.211 6.5,131.567 		"/>
		<polygon fill="#242D3C" points="148.5,131.567 122.274,86.154 96.048,131.567 		"/>
		<polygon fill="#242D3C" points="122.274,131.567 72.744,45.792 23.211,131.567 		"/>
		<polygon fill="#3E4959" points="96.051,131.57 122.271,131.57 109.156,108.859 		"/>
		<polygon fill="#131A26" points="23.211,131.57 72.752,131.57 47.992,88.688 		"/>
	</g>
	<g>
		<g>
			<rect x="72.035" y="18.845" fill="#FFFFFF" width="1.414" height="27.838"/>
			<rect x="71.561" y="17.43" fill="#FFFFFF" width="2.359" height="1.416"/>
			<rect x="70.828" y="46.683" fill="#FFFFFF" width="3.828" height="2.421"/>
		</g>
		<g>
			<polygon fill="#F15424" points="101.079,36.887 85.546,36.887 85.546,23.019 101.079,23.019 96.214,29.952 			"/>
			<polygon fill="#E64717" points="89.465,23.019 85.546,23.019 85.546,36.887 91.924,36.887 			"/>
			<rect x="73.449" y="20.259" fill="#FF6D3B" width="15.536" height="13.869"/>
			<polygon fill="#F15424" points="88.985,34.128 85.546,34.128 85.546,36.889 			"/>
		</g>
	</g>
</g>
</svg>
