<?xml version="1.0" encoding="utf-8"?>
<!-- Generator: Adobe Illustrator 17.0.0, SVG Export Plug-In . SVG Version: 6.00 Build 0)  -->
<!DOCTYPE svg PUBLIC "-//W3C//DTD SVG 1.1//EN" "http://www.w3.org/Graphics/SVG/1.1/DTD/svg11.dtd">
<svg version="1.1" id="Isolation_Mode" xmlns="http://www.w3.org/2000/svg" xmlns:xlink="http://www.w3.org/1999/xlink" x="0px"
	 y="0px" width="155px" height="155px" viewBox="0 0 155 155" enable-background="new 0 0 155 155" xml:space="preserve">
<circle fill="#F2F2F2" cx="77.5" cy="77.5" r="77.5"/>
<g>
	<g>
		<g>
			<path fill="#D9D8D7" d="M94.069,52.42c0-2.953,2.397-5.345,5.349-5.345H75.236c2.953,0,5.347,2.393,5.347,5.345
				c0,2.956-2.394,5.348-5.347,5.348h24.182C96.467,57.769,94.069,55.376,94.069,52.42z"/>
			<path fill="#D9D8D7" d="M103.504,57.769H60.363c-2.954,0-5.352,2.392-5.352,5.345c0,2.951,2.398,5.346,5.352,5.346h43.141
				c2.955,0,5.344-2.395,5.344-5.346C108.848,60.161,106.459,57.769,103.504,57.769z"/>
			<path fill="#D9D8D7" d="M114.51,31.039c0-2.953,2.395-5.348,5.343-5.348H71.379c2.954,0,5.346,2.395,5.346,5.348
				c0,2.953-2.392,5.343-5.346,5.343h48.474C116.905,36.382,114.51,33.991,114.51,31.039z"/>
			<path fill="#D9D8D7" d="M143.055,36.382H71.379c-2.952,0-5.344,2.395-5.344,5.348s2.392,5.346,5.344,5.346h71.676
				c2.947,0,5.345-2.393,5.345-5.346S146.002,36.382,143.055,36.382z"/>
			<path fill="#D9D8D7" d="M119.852,15H46.79c-2.949,0-5.347,2.393-5.347,5.345c0,2.953,2.397,5.346,5.347,5.346h73.062
				c2.953,0,5.351-2.393,5.351-5.346C125.203,17.393,122.806,15,119.852,15z"/>
			<path fill="#D9D8D7" d="M66.806,68.459c2.957,0,5.351,2.395,5.351,5.345h10.689c0-2.95,2.394-5.345,5.352-5.345H66.806z"/>
			<circle fill="#D9D8D7" cx="40.635" cy="63.113" r="5.347"/>
			<circle fill="#D9D8D7" cx="133.977" cy="20.345" r="5.348"/>
		</g>
	</g>
	<g>
		<rect x="52.042" y="73.804" fill="#FF6D3B" width="50.921" height="66.196"/>
		<rect x="77.5" y="73.804" fill="#F15424" width="25.463" height="66.196"/>
		<rect x="90.232" y="73.804" fill="#E64717" width="12.73" height="66.196"/>
		<path fill="#F15424" d="M109.074,125.485h-6.111v-5.597h6.111c1.291,0,2.504-0.501,3.417-1.416
			c0.915-0.912,1.421-2.133,1.421-3.42V98.75c0-1.287-0.506-2.503-1.421-3.413c-0.913-0.915-2.126-1.416-3.417-1.416h-6.111v-5.603
			h6.111c2.782,0,5.404,1.082,7.377,3.053c1.974,1.971,3.056,4.596,3.056,7.378v16.301c0,2.788-1.082,5.41-3.056,7.381
			C114.478,124.403,111.856,125.485,109.074,125.485z"/>
	</g>
	<g>
		<rect x="89.603" y="73.804" fill="#FFFFFF" width="1.259" height="20.474"/>
		<rect x="84.009" y="94.278" fill="#242D3C" width="12.445" height="16.109"/>
	</g>
</g>
</svg>
