<?xml version="1.0" encoding="utf-8"?>
<!-- Generator: Adobe Illustrator 17.0.0, SVG Export Plug-In . SVG Version: 6.00 Build 0)  -->
<!DOCTYPE svg PUBLIC "-//W3C//DTD SVG 1.1//EN" "http://www.w3.org/Graphics/SVG/1.1/DTD/svg11.dtd">
<svg version="1.1" id="Isolation_Mode" xmlns="http://www.w3.org/2000/svg" xmlns:xlink="http://www.w3.org/1999/xlink" x="0px"
	 y="0px" width="583px" height="479px" viewBox="0 0 583 479" enable-background="new 0 0 583 479" xml:space="preserve">
<g>
	<path fill="#29ABE2" d="M342.737,46.358c-0.05-0.789-0.083-1.576-0.083-2.377c0-21.395,17.365-38.751,38.749-38.751
		c20.335,0,36.987,15.65,38.616,35.558c2.009-0.624,4.13-0.956,6.344-0.956c5.687,0,10.838,2.22,14.693,5.834
		c4.257-6.187,11.402-10.25,19.49-10.25c12.561,0,22.836,9.792,23.599,22.165c1.126-0.323,2.308-0.5,3.522-0.5
		c7.095,0,12.821,5.743,12.826,12.826c0,7.078-5.748,12.823-12.826,12.815H344.968c-10.088,0-18.259-8.166-18.259-18.256
		C326.709,55.145,333.709,47.448,342.737,46.358z"/>
	<g>
		<defs>
			<path id="SVGID_1_" d="M666,234.5C666,437.461,501.47,602,298.5,602C95.53,602-69,437.461-69,234.5
				C-69,31.533,95.53-133,298.5-133C501.47-133,666,31.533,666,234.5z"/>
		</defs>
		<clipPath id="SVGID_2_">
			<use xlink:href="#SVGID_1_"  overflow="visible"/>
		</clipPath>
		<g clip-path="url(#SVGID_2_)">
			<path fill="#474F59" d="M596.171,603.811c0,164.378-133.263,297.672-297.71,297.672c-164.382,0-297.633-133.293-297.633-297.672
				c0-164.4,133.252-297.65,297.633-297.65C462.909,306.161,596.171,439.411,596.171,603.811z"/>
			<path fill-rule="evenodd" clip-rule="evenodd" fill="#FFFFFF" d="M228.815,852.646c1.214,0.254,4.4-0.861,5.328-1.112
				c-2.208-1.781-7.001-1.996-9.817-3.674c0.22,0.085-8.961-5.475-6.968-0.881c0.481,1.093,2.203,0.088,3.004,0.629
				c-1.093,1.681-1.579,1.176-0.381,1.913c0-0.041-10.192-5.563,0.066-5.897c-7.134-6.374,0.414-4.409-1.783-8.437
				c-1.551-2.722,5.974-5.345,1.91-7.71c-1.883-1.116-4.058-0.903-6.024-2.311c-2.833-2.013-0.144-5.601,2.479-5.27
				c0.227,0,1.635-6.394,2.092-7.424c-0.74-0.315-5.99-6.819-4.715-8.205c1.512-1.635,8.387,4.238,10.06-0.102
				c0.657-1.551-2.385-5.764-2.142-7.506c3.114-0.296,23.388,0.458,19.959-8.853c-1.198-3.205-9.751-8.078-8.851-10.725
				c2.954,0.466,7.879,4.743,11.07,3.048c2.617-1.367,4.682,1.49,7.415-1.576c0.481-0.547,5.003-5.372,3.705-6.289
				c-1.358-0.027-2.12,0.751-2.269,2.391c-1.59-2.186,1.187-3.738,2.651-5.312c0.359,0.486,0.673,0.986,1.022,1.408
				c1.678-2.562,11.125-14.811,11.396-15.065c4.804-5.574,0.861-13.066,5.604-17.56c4.356-4.083,9.055-6.775,14.488-8.914
				c1.679-0.671,7.652-3.837,8.878-3.475c9.955,3.059,8.768-8.857,15.101-14.226c6.432-5.369,1.679-32.935,6.968-34.991
				c2.849-1.135,11.33-11.559,15.686-16.338c4.28-4.58,4.82-10.493,3.17-16.324c-2.518-8.914-5.058-3.837-11.473-7.699
				c-5.179-3.103-9.127-9.229-15.526-10.135c-3.749-0.5-7.675,0.649-11.413-0.48c-1.546-0.464-5.825-3.062-7.443-0.881
				c0.271-0.356-3.462,1.361-3.191,1.474c-0.431-0.232-0.061-4.853-1.287-6.002c-1.921-1.852-8.597-3.732-10.981-4.362
				c-5.538-1.433-6.907,5.157-8.382-2.686c-4.55-1.242-9.077-6.568-8.298-7.893c0.442-0.563-7.112-16.445-8.155-14.974
				c-0.094-5.331-16.658-11.956-20.86-9.441c-3.793,2.766-10.723-2.457-13.041-4.953c-2.645-2.852-2.562-5.869-6.963-7.697
				c-1.871-0.795-5.068-0.417-4.389-3.63c0.779-3.398-8.122-4.089-8.978-7.407c1.281,0.235,2.33-0.397,3.5-0.71
				c-3.456,1.196-7.663-1.32-11.076,1.466c-4.952,4.136-7.956-1.927-13.384-0.883c-6.879,1.325-2.263-1.193-6.609-3.854
				c1.811,1.132-8.072-4.513-5.736-4.307c-2.082-0.251,0.264,3.401-2.004,4.221c-3.605,1.322-6.709,2.12-4.384,6.46
				c3.948,7.893-8.265,4.177-2.518-1.196c1.06-0.927,1.347-11.2,2.479-10.824c-1.446-0.503-12.605,6.752-13.88,8.268
				c-3.6-5.726-9.618,14.223-11.65,14.369c-1.054-4.914-5.726-6.88-9.729-8.371c-3.534-1.342-7.012,6.966-11.501,2.41
				c-8.056-8.139-4.55-21.268-0.469-30.583c1.745-4.301-14.797-5.604-16.856-3.884c-4.047,3.337,0.635-6.797,0.585-6.501
				c0.464-4.088,1.402-6.796,3.208-6.733c1.06-2.41,7.222-13.466,6.614-14.792c-2.507-5.787-12.97,4.472-13.975,7.05
				c-1.005,2.518-3.037,3.942-4.009,6.206c-0.977,2.289-2.909-0.503-4.588,0.422c-4.511,2.557-10.949,1.22-9.972-5.331
				c1.033-7.904-1.987-23.49,6.902-28.907c2.683-1.675,3.108-9.518,6.217-12.287c0.403-0.359,9.376-5.538,8.47-6.59
				c1.347,1.405,8.348-1.425,9.298,0.417c0.646,1.51,4.804,3.108,6.311,2.245c-0.105,0.196,0.668-3.501,0.668-3.539
				c-0.116-0.044-2.893-0.4-2.727-1.283c0.282-1.212,8.685-0.398,8.961-0.353c3.937,0.27,6.946,3.586,9.883,1.593
				c4.572-3.125,1.756,17.328,3.583,19.192c1.005,1.116,0.314,3.567,2.225,3.379c2.617-0.293,3.418-26.558,10.215-32.013
				c4.952-3.984,10.319-7.554,15.78-10.529c1.772-0.903,6.289-3.108,7.239-4.781c-0.221-0.842-1.077-1.869-1.982-0.988
				c-0.265-1.593,2.468-0.611,2.943-2.286c0.502-1.701-1.408-2.245-1.198-2.83c-0.067,0.146,1.7-3.465,1.11-2.963
				c0.044,0.086,0.088,0.254,0.105,0.384c2.772,0.436-0.585-2.581-0.712-3.003c3.567,1.844,2.076-3.926,5.56-4.216
				c-2.496,1.049-2.009,3.837-1.673,5.557c0.69,3.719,4.025-5.201,3.622-4.842c3.34-1.389,8.558-4.177,12.108-6.714
				c-0.823-0.336-1.723,0.334-2.706-0.4c3.672-1.322,7.769-0.883,11.313-2.683c-0.221-3.713,2.026-7.572,6.162-8.285
				c6.349-1.052,13.808-4.931,20.131-7.092c-0.944,2.2,0.574,0.525,2.292,1.344c-2.054-5.392-13.345,9.982-7.973,6.835
				c4.517-2.642,19.788-4.991,21.881-9.4c-0.066-0.23-1.021-3.167-1.01-3.167c-3.754,0-4.075,4.638-8.707,4.638
				c-8.431-0.127-3.357-5.286-5.091-7.616c-1.485,0.356-2.772-0.083-3.804-1.193c0.861-0.213,11.269-2.6,5.753-3.859
				c-8.917-1.891-14.808,8.031-22.151,7.783c5.455-3.335,12.898-10.469,19.551-11.352c7.084-0.961,16.879,2.496,23.134-1.886
				c5.493-3.862,9.342-1.008,12.462-7.28c0.966-1.701-4.053-3.84-5.345-4.133c0.585-0.629,1.695,0,2.076-1.049
				c-8.326-3.711-10.071-7.446-11.053-17.053c-4.262,3.081-18.508,9.707-10.899-1.052c-2.738-1.195-11.384-8.409-14.692-3.415
				c-1.563,2.22-3.992,5.977-6.504,7.126c-5.67,2.581-0.635,2.078-2.54,5.874c-3.208,6.253-10.916,5.375-14.582,10.847
				c-2.286,3.443-3.026,5.855-6.636,7.465c-3.12,1.391-4.29-2.302-2.783-5.243c1.11,1.221,2.137,1.406,3.037,0.503
				c0.26-1.317-1.673-0.69-2.264-1.231c1.115-1.935,2.473-3.696,4.031-5.308c-0.525-0.318-8.52-1.573-8.221-3.672
				c0.502-4.362-4.969-1.971-5.935-3.274c4.257-5.375,4.301-7.888,12.649-12.081c2.893-1.468,18.966-9.673,21.931-7.613
				c-0.397,1.822-2.385,1.446-3.434,2.41c2.313,0.585,9.022,1.32,11.313-0.289c-0.508-0.403-3.207-4.892-1.8-5.941
				c-0.243,0.188,4.604,0.083,4.969-0.019c2.595-0.633,5.428-0.944,6.896-3.567c1.275-2.33,9.778-5.347,11.794-4.199
				c11.092,6.294-15.09,12.989-15.289,12.255c0.491,1.844,7.569-1.259,9.314,3.608c0.431,1.173,8.47,3.755,9.265,2.623
				c0.447-0.55-2.286-3.484-2.43-4.199c8.437,4.072,7.967,1.977,6.56-3.669c-1.297-5.392,4.93,0.334,5.306,0.502
				c1.397,0.737,7.095-2.537,7.935-3.71c-2.038-1.573-5.621-1.532-7.394-3.482c-1.689-1.662,4.423-2.059,2.275-3.82
				c-2.518-2.117-6.609-1.554-5.212-5.665c-1.419-0.397-2.827-0.229-4.124,0.525c0.37,0.776,1.215,0.188,1.535,0.629
				c-1.386,0.842-2.932,0.966-4.528,0.925c0.497-0.715,1.883-0.715,1.927-2.101c-4.345-0.503-6.659,2.101-10.446,3.233
				c1.071-1.529,2.899-2.013,4.218-3.189c-4.18,0.525-8.127,2.076-11.396,4.779c0.503,0.469,0.989,0.947,1.298,1.535
				c-3.163,2.835-7.426,3.672-11.136,5.394c0.619-2.523,3.313-1.891,4.218-3.757c-1.364,0.022-2.683,0.292-3.925,0.9
				c1.557-0.207,6.272-4.887,7.349-6.085c-6.808-0.754-9.635,7.972-16.007,6.736c1.32-1.529,4.02-0.776,4.919-3.189
				c-2.368,0.293-11.324,6.355-12.793,3.189c-0.082-0.188,16.388-6.736,18.11-9.105c-1.093-0.146-2.336,1.03-3.363-0.312
				c0.8-0.925,2.165-0.969,3.059-1.974c-5.372-0.041-21.451,6.501-20.219,10.281c-2.092,1.676-4.324,2.139-6.857,1.071
				c0.988-1.554,4.484-1.573,1.662-3.842c-5.212,1.932-10.242,4.031-15.327,6.231c-11.529,5.165-22.919,11.225-33.708,17.875
				c-17.823,11.01-32.526,24.037-47.219,38.782c-7.824,7.937-37.567,42.647-37.479,49.891c0.094,5.367-3.042,10.068-5.063,14.891
				c-1.629,3.942-1.756,9.463-3.755,13.086c-4.301,7.702-2.319,16.597-4.273,25.425c2.44-1.797,7.481-42.329,11.849-40.819
				c0.861,0.293-2.7,16.824-3.605,18.88c-3.677,8.494,1.176,18.88-1.264,27.772c-0.243,0.861-1.485,5.392-1.513,6.275
				c-4.097,3.15,1.098,7.841,1.06,11.305c0,2.053,10.463,11.205,12.456,12.376c4.406,2.623,5.284-2.057,9.226-1.17
				c3.611,0.751,4.644,7.255,6.543,10.024c2.606,3.84,12.356,3.44,14.002,5.246c1.132,1.364,0.227,8.853,4.627,9.899
				c-0.038-0.502-0.077-3.185,0.53-3.566c1.364-0.817,4.213,4.155,3.247,5.06c-1.425,0.309-2.661-0.168-3.749-1.494
				c0,0.652-0.696,10.405,2.142,8.498c0.083-0.588,0.182-1.218,0.292-1.808c3.689,1.62,3.435,7.072,6.085,7.823
				c3.606,1.008,6.372,5.629,9.077,6.885c2.462,1.256,1.783-8.56,6.482-9.044c3.76-0.334,5.83,9.466,7.156,11.813
				c1.949,3.462-2.651,11.749-0.11,14.411c2.595,2.705-6.476,9.267-6.88,12.023c-0.293,2.115-4.887,4.088-4.732,4.867
				c0.348,2.346-1.005,5.43-1.827,7.611c-2.308,6.104-1.176,6.631,2.783,9.485c0.132,0.102-7.338,14.891-3.053,18.671
				c6.796,5.593,15.724,19.319,17.889,27.96c4.422,11.874,11.181,19.134,22.489,25.025c9.226,4.826,15.719,13.069,15.719,24.123
				c0.304,6.529-0.618,14.665,2.132,20.816c1.932,4.251-1.745,11.239,1.033,15.123c1.755,2.39-0.575,3.733,0.497,6.002
				c1.093,2.391,3.578,6.372,3.528,9.188c-0.072,4.66-0.022,10.19,0.321,14.806c0.055,1.593-1.397,4.279-0.608,5.284
				c1.093,1.284,7.327,16.727,7.327,21.238c0,1.104,4.848-0.279,0.486-4.707c5.19-2.888,4.135,9.317,4.494,9.425
				c-4.704-1.576-1.657-0.315-1.303,5.681c0.227,3.548-0.927,1.844,1.999,2.521c4.567,1.027,0,4.111,1.717,6.584
				c3.479,4.991,8.768,9.604,12.396,13.441C211.66,852.166,221.786,851.197,228.815,852.646
				C229.776,852.837,227.512,852.387,228.815,852.646z M248.212,367.481c-1.651,1.45-3.412,1.739-5.278,2.267
				C244.247,367.796,246.229,368.089,248.212,367.481z M232.713,366.137c1.214-0.168,2.164,0.168,2.799,1.03
				c0.061,0.459-6.339,0.756-7.31,2.413C229.025,366.769,231.361,367.227,232.713,366.137
				C233.37,366.957,231.361,367.227,232.713,366.137z M217.104,377.154C218.468,377.508,215.183,376.879,217.104,377.154
				C217.192,377.191,216.767,377.11,217.104,377.154z M208.552,360.853c0.585-0.676,1.044-0.549,1.364,0.312
				C209.308,361.861,208.85,361.734,208.552,360.853C208.618,360.477,208.508,361.251,208.552,360.853z M200.049,386.298
				C197.636,386.129,202.594,386.359,200.049,386.298C199.74,386.273,200.408,386.318,200.049,386.298z M202.594,376.415
				c-8.304,7.763-1.849,0.107-4.257,2.521c0.055,0.127,0,0.21-0.133,0.251C197.537,378.449,202.412,376.453,202.594,376.415
				C201.523,377.425,201.148,376.685,202.594,376.415z M199.508,367.252c-1.469,1.736-1.469,1.736-3.572,1.317
				C197.051,367.857,198.503,368.128,199.508,367.252z M236.512,338.03c-0.524,0.019-1.027,0.019-1.888,0.019
				C237.29,335.828,236.788,338.03,236.512,338.03C235.988,338.05,236.915,338.03,236.512,338.03z M242.541,334.064
				c-0.949,1.03-2.225,0.439-3.373,0.946C240.349,332.655,240.581,332.617,242.541,334.064z M208.971,336.772
				c0.69-0.63,1.529-0.944,2.446-0.884C212.235,337.061,206.377,337.732,208.971,336.772
				C209.308,336.159,208.64,336.915,208.971,336.772z M207.459,335.093c0.961,0.42,0.877,0.839-0.249,1.342
				C206.388,335.932,206.515,335.513,207.459,335.093C207.812,335.093,207.017,335.154,207.459,335.093z M164.072,409.143
				c0.072-0.025-13.003,5.201-11.997,1.965c-0.331,1.032,4.467-3.685,3.462-3.227c1.065-0.458,9.839-1.008,12.379-0.963
				C166.573,408.223,165.342,408.698,164.072,409.143C161.135,410.233,165.342,408.698,164.072,409.143z M174.48,402.702
				c10.783,1.027-6.372,4.301-8.221,2.371C168.688,402.973,171.548,402.365,174.48,402.702
				C175.363,402.804,171.548,402.365,174.48,402.702z M172.713,335.684c2.876-1.853,5.962-3.236,9.745-4.072
				c-2.749,2.283-6.466,3.227-9.817,4.154L172.713,335.684z M173.331,393.909c-0.508,0.486-0.949,0.464-1.402,0
				C172.597,393.661,173.221,393.451,173.331,393.909C173.514,394.373,173.221,393.451,173.331,393.909z M170.14,400.372
				C169.913,400.372,169.118,400.14,170.14,400.372C170.206,400.372,169.819,400.287,170.14,400.372z M166.993,394.856
				c3.898,1.847,1.657,7.909-1.745,3.189c-0.082,2.813-5.035,7.572-7.652,8.157c1.027-1.129,1.359-2.346,1.044-3.669
				c-0.834-0.69-2.446,1.195-3.374,1.195c0.419,1.654,7.073-11.454,1.452-7.636c-2.06,1.532-15.526,15.86-16.305,15.084
				c-1.253-1.278,5.963-11.81,6.482-12.213C151.511,395.168,161.135,392.132,166.993,394.856z M159.484,344.8
				c0.563-0.331,4.848-2.957,5.411-2.346c1.408,1.717-6.924,3.864-7.354,3.903C158.037,345.33,158.854,345.159,159.484,344.8
				C160.991,343.944,158.854,345.159,159.484,344.8z M160.384,379.921c-0.022,0.229-1.701,3.5-2.788,2.178
				C156.778,381.224,160.091,378.449,160.384,379.921C160.213,380.777,160.296,379.521,160.384,379.921z M150.915,352.797
				c0.53,0,7.492-4.364,7.724-2.556C158.749,350.744,150.131,352.941,150.915,352.797z M149.015,360.011
				c-0.464,0.798-0.861,1.22-1.833,1.198C147.563,360.373,148.154,360.262,149.015,360.011z M144.145,376.879
				c0.966-0.756,3.263-4.409,2.12-5.852c0.613,0.773-4.196-0.522-1.993-1.361c0.883-0.276,6.377-3.274,7.239-2.355
				c1.568,1.621-6.825,10.43-8.498,11.184C143.163,377.591,143.676,377.216,144.145,376.879
				C145.515,375.808,143.676,377.216,144.145,376.879z M148.905,387.957c6.051-1.913,8.21-5.312,11.854-0.696
				c1.347,1.698,1.121,6.129-2.12,5.099c0.894,0.29-9.767-0.732-7.818-1.891c-2.136,1.344-6.278,2.264-8.796,1.16
				C144.355,390.304,146.431,388.793,148.905,387.957C150.401,387.494,146.431,388.793,148.905,387.957z M140.534,376.796
				c0.558,1.402,0.127,2.139-1.502,2.39C139.657,378.198,140.082,377.461,140.534,376.796z M55.081,506.688
				C52.342,506.625,57.195,506.625,55.081,506.688C54.75,506.688,55.329,506.688,55.081,506.688z M89.539,531.437
				C88.789,531.714,91.709,530.979,89.539,531.437C89.44,531.523,89.926,531.38,89.539,531.437z M173.74,559.276
				C172.238,559.042,175.407,559.425,173.74,559.276C173.563,559.276,173.939,559.301,173.74,559.276z M187.51,805.95
				C185.136,805.552,188.753,804.078,187.51,805.95C186.914,805.867,187.571,805.867,187.51,805.95z M193.606,682.562
				C192.75,681.695,194.113,683.067,193.606,682.562C193.528,682.454,193.777,682.686,193.606,682.562z M194.555,759.444
				C193.097,759.946,196.228,758.836,194.555,759.444C194.18,759.568,194.809,759.336,194.555,759.444z M202.682,842.283
				c-1.071-0.61-1.071-1.027-0.033-1.195C203.826,841.57,203.848,841.988,202.682,842.283
				C202.235,842.242,203.097,842.385,202.682,842.283z M213.416,846.979c-1.093-0.224-0.983-0.668,0.331-1.298
				C214.675,846.057,214.565,846.523,213.416,846.979C212.952,846.979,213.731,846.857,213.416,846.979z M190.679,816.377
				c-0.11,0.066-0.254,0.102-0.375,0.127C190.652,816.23,190.762,816.189,190.679,816.377z M217.358,320.972c0,0-0.05,0-0.077,0
				c0.027-0.022,0.027-0.041,0.077-0.041V320.972z M116.257,368.903c0,0-0.072,0.028-0.088,0.028L116.257,368.903z M119.046,366.537
				h-0.033H119.046z M591.28,550.486h0.039c-5.83-21.414-10.165-42.65-19.043-63.435c-10.552-24.672-24.416-47.933-41.173-68.889
				c-15.802-19.803-34.133-37.551-54.396-52.696c-9.883-7.388-20.164-14.121-30.859-20.222c-5.118-2.937-10.324-5.726-15.631-8.371
				c-2.336-1.087-10.425-3.213-11.65-5.207c0.089,0.906,4.749,3.277,5.356,3.929c-3.147-0.842-11.468-4.387-11.556-4.931
				c0.144-0.356,0.84,0,0.768-0.627c-4.715-3-22.284-9.463-25.796-4.685c0.751-0.919,12.103,12.191,12.44,14.518
				c0.718,5.143,8.701,10.535,13.787,12.208c7.128,2.377,1.8-0.795,4.787-2.471c1.905-0.944,3.689,3.23,5.505,2.283
				c-0.017-0.044,0-0.105,0.066-0.105c-0.503-1.005-1.071-1.971-1.612-2.934c-0.541,0,12.837,13.784,14.533,10.78
				c-1.574-3.732-3.987-7.97-7.78-11.471c-3.363-3.147-8.641-3.443-12.274-6.59c-1.817-1.615-8.619-6.562-9.353-8.873
				c8.978,0.292,19.302,19.277,28.341,11.937c-1.276-0.842-2.491-1.786-3.689-2.772c1.673,0.483,9.183,2.877,6.626,6.065
				c-7.111-1.259,6.107,5.996,6.339,6.796c-1.325-0.083-2.236-1.115-3.423-1.217c0.508,2.493,7.576,5.057,8.078,9.315
				c-4.279,0.668-2.413-2.579-5.157,0.88c-0.905,1.11-4.748,0.756-6.824,0.925c-4.903,0.417-10.402-7.972-14.013-10.515
				c1.535,4.663,4.097,6.882,9.292,10.159c2.54,1.444-3.539,2.073-3.451,4.171c0.182,0,1.635,0.757,1.601,1.135
				c0,0.271-1.38-0.95-1.601-1.135c0.497-0.317-0.867,8.202-0.978,8.078c4.053,4.702-5.389,3.335-5.62,3.482
				c0.756,1.071,2.247,1.637,2.606,3.169c-2.772,0.185-4.969-0.229-7.663,0.751c3.87,1.157,25.205,10.991,20.556,18.422
				c-1.502,2.413-15.951-0.607-18.629-0.712c-5.588-0.375-0.393,5.325-0.237,5.994c0.872,4.265,4.191,6.126,3.92,11.104
				c-0.237,3.481,3.318,3.605,4.439,6.562c0.956,2.581,0.381,2.813,3.114,3.192c4.748,0.585,4.859-0.124,8.873,3.02
				c2.827,2.2,3.942-2.1,7.332-2.225c8.464-0.378,1.237-2.054,5.295-3.214c5.03-1.402-1.386-9.245-1.099-10.758
				c0.381-2.095-0.309-4.387,2.474-5.179c4.273-1.115-1.176-5.582-1.463-6.775c-0.817-3.525,11.837,2.998,10.325-5.916
				c7.255,2.264,14.742,8.895,21.478,12.666c3.964,2.374,7.923,4.638,10.827,8.395c3.44,4.486-4.952,2.661-5.477,3.964
				c-0.508,1.408,7.404,4.969,8.663,4.909c0.171-0.801-0.917-5.347-1.071-6.148c-0.37-3.145-4.953-6.27-4.633-8.809
				c1.469,0.149,2.794,0.715,3.898,1.637c-4.235-5.267-11.12-5.792-15.985-9.648c-2.998-2.41-6.625-4.346-9.502-6.797
				c-0.039-0.044-5.179-6.59-1.574-5.35c5.665,1.991,11.877,7.741,17.663,10.759c4.599,2.413,5.742,3.903,9.126,7.846
				c1.325,1.535,8.442,9.778,10.005,10.029c-0.061-0.044,5.792,5.163,8.116,5.935c-1.032-2.366-1.949-5.389-3.153-7.239
				c-1.585-2.6-8.193-4.091-8.193-7.948c1.49,0.127,1.667-1.45,4.864-1.32c-1.728-0.044,2.104-2.52,1.855-2.162
				c-6.156-3.503-14.477-13.828-16.707-20.788c1.678,0.083,2.606,2.349,4.444,1.173c-0.579-1.173-0.757-2.435-0.579-3.716
				c0.508,0.527,6.294,5.56,5.162,6.548c-1.64-0.044-3.026-0.737-4.152-2.013c0.773,2.932,3.721,2.998,4.925,5.011
				c0.11-0.795-0.436-1.469,0.232-2.372c5.157,2.139,15.493,10.218,16.901,15.923c-2.225,0.232-6.543-4.511-8.011-3.354
				c-0.48,1.173-0.414,2.302,0.232,3.437c-0.663,0.019-1.276,0.149-1.866,0.486c0.8,0.649,1.258,1.51,1.402,2.535
				c-0.833,0.251-1.678,0.527-2.54,0.737c0.723,2.874,15.824,17.243,16.868,15.794c0.315-0.486-0.629-1.952-0.37-2.181
				c0.811-0.902,3.186,3.252,4.395,2.432c0.994-0.626-0.977-1.946,0.138-2.498c2.303-1.168,11.347,16.551,12.435,18.627
				c4.367,8.226,1.49,3.213-1.822,4.348c-0.541,0.839-0.867,1.717-0.95,2.727c-5.283-1.217-11.048-4.24-15.377-7.324
				c-6.791-4.909,2.23,13.409-1.723,11.101c-2.302-1.306-3.666-3.271-6.582-3.528c-4.113-0.395-5.284-4.826-9.099-6.121
				c-3.125-1.052-15.421-2.164-13.831-7.807c1.298-4.823-4.903-8.812-6.968-10.654c-1.072-0.969-14.709,0.815-16.923,1.491
				c-3.777,1.212-9.69,2.41-11.827,5.933c-3.616,6.548-11.959-2.079-15.316-0.718c-1.789,0.696-0.061,6.09-0.994,7.81
				c-1.314,2.556-4.676,2.742-5.505,5.77c-1.469,5.596,2.755,10.192,0.828,15.33c-1.551,4.07-9.458,5.831-9.563,9.19
				c-0.039,1.806-0.337,3.799-2.038,4.74c-3.611,2.06,0.111,6.755-2.153,9.127c-12.086,12.293,3.898,24.374,1.148,37.928
				c-1.529,7.653-2.457,9.229,0.861,15.794c0.74,1.676,0.171,13.569,6.206,8.768c0.756,6.94,9.695,8.348,11.252,14.957
				c1.922,7.846,9.602,11.266,15.559,15.946c2.396,1.863,4.406,4.296,7.194,5.704c4.87,2.496,8.177-1.344,12.904-2.664
				c4.213-1.239,8.597-0.779,12.605,1.088c2.313,1.088,19.368-10.99,23.984-8.705c3.391,1.681,3.605,5.836,5.141,8.787
				c2.214,4.177,6.935-1.295,10.082,0.086c5.56,2.523,7.261,22.991,2.518,26.765c-3.566,2.609,4.555,13.786,5.665,16.05
				c3.208,6.353,6.123,17.392,5.102,24.418c-0.784,5.687,0.746,14.684-2.506,19.695c-3.219,5.019-5.113,10.327-7.714,16.009
				c-6.758,14.579-0.27,31.132-6.079,46.299c-3.49,7.738-2.882,16.026-4.765,24.15c-1.259,5.212-7.598,12.771-5.146,18.226
				c3.815-3.423,9.491-2.981,13.809-5.141c8.768-4.342,12.981-14.521,19.38-21.293c3.407-3.564,5.538-8.1,7.559-12.544
				c1.927-4.171,5.831-6.882,7.625-10.993c4.478-10.405,8.569-20.768,13.085-31.151c9.414-22.448,10.966-43.967,14.273-68.01
				C595.956,600.054,596.039,575.851,591.28,550.486z M568.791,491.333c-1.17-2.982-17.033-26.262-15.167-27.527
				c2.076-1.342,36.005,58.698,32.349,67.968C580.751,518.1,574.6,504.8,568.791,491.333
				C568.753,491.203,570.012,494.099,568.791,491.333z M583.356,597.541c-0.657-1.678,0.249-3.106,0.69-5.055
				C584.759,594.544,583.644,595.971,583.356,597.541z M581.595,606.961c-0.066-1.03-0.155-1.83,0.563-2.581
				C582.639,605.384,582.175,606.075,581.595,606.961z M575.947,683.984c-0.608,0.251-1.215,0.444-1.844,0.657
				c-1.088,0,2.032-1.51,2.181-1.573C576.113,683.567,576.113,683.777,575.947,683.984
				C575.489,684.66,576.113,683.777,575.947,683.984z M576.83,652.688c-0.066-2.805,0.066-2.981,2.893-4.779
				C579.16,649.92,577.139,650.842,576.83,652.688z M580.022,638.129c-0.044-5.223-0.232-11.343,0.916-16.401
				c0.215,8.831,0.657,17.789,0.381,26.662C579.911,646.538,580.022,640.376,580.022,638.129
				C579.994,636.241,580.022,639.935,580.022,638.129z M584.648,654.787c-0.077,4.784-0.751,17.768-3.898,21.481
				c0.336-8.056,3.28-15.355,3.423-23.366C584.88,653.652,584.676,654.262,584.648,654.787
				C584.648,655.353,584.676,654.262,584.648,654.787z M588.387,606.158c-1.364,5.687-0.045,7.47-3.44,10.637
				c-0.028-4.213-1.546-12.332,2.794-14.83C588.293,603.353,588.834,604.462,588.387,606.158
				C587.829,608.51,588.834,604.462,588.387,606.158z M401.539,882.6c0.42,0.842-37.423,11.54-41.3,12.359
				c-15.758,3.332-31.698,5.394-47.809,6.187c-30.611,1.507-62.601-1.278-91.986-10.234c3.793,0.414,8.371,2.393,12.208,1.758
				c-3.672-2.264-8.182-1.468-11.473-4.362c12.252,2.032,23.974,1.093,35.248,2.537c-1.204-1.573-11.462-4.053-11.379-5.099
				c1.43-0.124,9.364-0.351,9.651-0.607c3.694-2.874-5.941-2.54-5.035-4.597c0.254-0.541,2.893,0.334,3.843-0.88
				c1.447-1.949,0-2.954,0.547-3.945c0.42-0.834,15.245-3.437,16.796-2.742c-1.734,1.047-3.733-0.191-2.998,2.703
				c-1.485-0.213-6.101-0.083-6.349,1.955c0.083-0.508,5.03,6.355,5.195,6.642c1.684,2.714,7.636,4.342,8.161,7.539
				c0.966,5.389,29.142,4.861,33.387,4.378c10.496-1.176,20.374-4.944,30.748-6.75c6.162-1.099,12.307-2.838,18.557-3.465
				c2.96-0.273,12.573-3.63,14.836-2.871C373.811,888.141,396.344,881.597,401.539,882.6
				C401.611,882.729,400.728,882.456,401.539,882.6z M572.993,718.307c1.192-3.048,2.181-6.214,3.672-9.168
				C575.72,712.33,574.373,715.306,572.993,718.307z M577.902,705.97c0.143-0.373,0.309-0.754,0.458-1.11
				C578.404,705.299,578.084,705.638,577.902,705.97z M252.369,316.293c-1.59-0.271-3.291-0.083-4.975-0.334
				c0.867-0.795,5.881-0.944,3.677-2.346c6.902-4.224,21.252-5.08,29.125-4.114c8.884,1.093,17.712-1.656,26.464-0.27
				c3.544,0.563,6.603,0.646,10.126,0.878c3.069,0.356-0.414,3.506,3.069,4.008c2.054,0.271,6.168,4.947,8.028,3.942
				c-0.077,3.252-1.524,0.963-0.508,4.028c0.237,0.671,3.92,2.727,3.743,2.998c-0.358,0.486-10.236-0.251-9.805-0.122
				c-0.751-0.129,0.176,1.571,0.828,1.298c1.949,0.525,6.228-0.149,8.387,0.041c-4.969,4.511-12.412,3.964-17.994,7.595
				c-3.374,2.206-8.497,1.993-12.191,3.36c0,3.812-2.921,8.45-5.389,12.354c-1.811,2.705-14.394-3.523-15.691-5.16
				c-2.733-3.274-9-11.96-2.198-14.643c8.238-3.274,0.044-0.588-2.408-2.377c1.982-2.744,4.158-1.822,7.305-1.358
				c-1.585-2.225-3.572-2.766-5.991-1.615c-0.8-2.371,3.396-4.511-0.254-7.045c-1.612-1.093-10.319,0.185-10.573-1.345
				c-0.541-3.799,10.612-1.787,12.55-4.887C269.386,309.416,260.447,317.554,252.369,316.293
				C250.779,316.022,253.866,316.506,252.369,316.293z M409.07,373.058c1.32-0.166-1.695-4.428-2.474-5.261
				c0.917,0.083,1.74,0.166,2.606-0.4c-0.696-1.93-9.364-6.943-9.944-6.565c-3.318,2.038-7.404-7.111-7.807-8.367
				c5.599-0.781,9.105,5.217,14.179,7.694c4.302,2.079,19.827,9.508,20.291,14.182c0.331,2.346-11.793,1.367-13.555,4.138
				c-1.386-3.426,3.015-3.382,2.877-4.472C415.111,373.188,409.705,372.975,409.07,373.058
				C408.739,373.102,410.92,372.768,409.07,373.058z M250.481,377.425c-0.817,0.607-11.396,10.59-11.114,11.534
				c0.232,0.906,10.926,0.257,12.776,1.3c-0.11,1.217-1.579,0.585-1.811,1.657c1.391,0,5.709-2.7,6.421-1.883
				c0.083,0.646-0.038,1.342-0.326,1.968c4.71,4.68,4.246-5.499,4.478-6.018c-3.274-0.461,0.757-5.16-4.865-3.15
				c0.387-0.146-6.084-1.927-5.748-1.527c-0.519-0.53,4.577-4.936,4.953-5.521C252.27,375.051,251.861,376.371,250.481,377.425
				C248.659,378.726,250.834,377.13,250.481,377.425z M260.844,388.46C261.286,388.857,260.132,388.857,260.844,388.46
				C260.905,388.542,260.745,388.518,260.844,388.46z M258.47,388.208c0.299-0.359,2.076-1.115,0.983-0.085
				C259.089,388.813,257.51,389.299,258.47,388.208C258.581,388.06,258.26,388.46,258.47,388.208z M251,376.064l0.072-0.028
				c0,0,0,0.063,0.044,0.107C251.071,376.1,251.071,376.1,251,376.064z M241.52,385.627c0.298,0,0.508,0,0.74,0.188
				C241.983,385.815,240.813,385.771,241.52,385.627C241.818,385.627,241.354,385.649,241.52,385.627z M138.232,509.788
				c-2.893,0.276,1.883-2.283,1.507-3.208c-1.971-4.53-15.471-5.56-16.713-9.146c0.585-0.232,0.983-0.652,1.176-1.237
				c-4.644-1.888-7.007,3.777-11.214,3.415c8.713-14.703,30.218,2.123,38.881,8.923
				C147.342,509.098,142.793,509.142,138.232,509.788C137.851,509.788,140.745,509.413,138.232,509.788z M149.485,517.615
				c-2.192-0.939,7.116-0.858,8.381-1.38c-1.844-2.835-0.188-4.368-3.749-5.436c3.252-4.006,14.091,0.671,17.513,2.14
				c-0.254,0.524-0.949,0.041-1.286,0.671c0.271,0.227,7.426,6.123,2.606,4.155c-5.267-2.247-8.177,0.88-11.871,2.981
				C158.136,516.549,153.355,519.462,149.485,517.615C149.06,517.427,150.362,518.015,149.485,517.615z M401.501,367.04
				c5.074,5.242-2.811,9.251-6.333,5.897c-1.767-1.787-0.696-5.999-4.705-7.261c1.049-0.315,2.126-0.649,3.17-1.047
				C390.878,358.164,400.197,365.676,401.501,367.04C402.633,368.232,401.13,366.637,401.501,367.04z M335.587,335.215
				c-0.293-1.049,7.305-0.563,8.519-0.818c2.038-0.334,17.161,1.199,11.832,3.614c-4.108,1.825-10.137,3.962-14.019,0.353
				C340.959,337.545,335.653,335.427,335.587,335.215C335.399,334.524,335.879,336.244,335.587,335.215z M473.388,410.02
				c1.761,0,6.107,6.8,5.372,7.893c-2.043,3.183-5.427-4.911-7.492-6.167C472.008,411.238,472.731,410.691,473.388,410.02z
				 M237.859,318.372c5.157-3.904,6.361-1.679,12.743-1.047C248.576,319.189,243.646,319.592,237.859,318.372
				C239.311,317.281,243.646,319.592,237.859,318.372z M351.488,313.927c-3.799-1.054-7.763-1.201-11.457-2.664
				c4.395-0.505,9.729,1.174,12.826,2.076C353.873,313.654,351.234,313.842,351.488,313.927
				C347.689,312.872,351.847,314.01,351.488,313.927z M340.031,311.263c-0.409,0.061-0.834,0.086-1.259,0.122
				C339.197,311.006,339.623,310.946,340.031,311.263C339.623,311.324,339.866,311.194,340.031,311.263z M139.43,517.844
				c0.812,0.086,1.287,0.508,1.408,1.303c-0.514,2.139-7.211-0.878-7.907-1.825C135.257,515.975,137.371,516.756,139.43,517.844z
				 M187.344,517.698C183.81,526.339,174.894,511.638,187.344,517.698C186.814,518.94,185.247,516.676,187.344,517.698z
				 M201.159,559.803L201.159,559.803c0.088-0.251,0.343-0.359,0.657-0.378C201.622,559.552,201.435,559.635,201.159,559.803z
				 M202.412,559.552c-0.177-0.066,0.939-3.548,3.197-3.736C208.303,557.517,203.726,559.718,202.412,559.552
				C202.163,559.486,205.344,559.889,202.412,559.552z M230.571,316.506c-2.369,1.593-5.229,0.544-7.675,1.469
				C226.292,315.603,227.887,315.79,230.571,316.506C228.202,318.098,230.157,316.376,230.571,316.506z M141.125,491.038
				c-0.939-3.547-2.302-3.605,0.089-6.717C142.13,487.639,142.13,489.652,141.125,491.038
				C140.745,489.591,142.13,489.652,141.125,491.038z M76.603,614.114c-0.066,1.32-0.695,1.824-1.883,1.344
				c-0.447-0.362-0.673-4.66,0.127-5.568C75.405,611.281,76.034,612.67,76.603,614.114C76.807,614.696,76.034,612.67,76.603,614.114
				z M225.789,381.307c2.772-0.063,4.992,0.776,7.443,2.617C229.963,384.537,227.887,383.275,225.789,381.307z M472.273,408.825
				l0.049,0.022c-0.801-0.251-5.648-3.186-3.65-4.779C470.053,403.055,472.107,408.322,472.273,408.825z M522.291,433.663
				c-0.949-0.963-2.937-0.315-3.429-2.267c1.667,0.864,3.534,0.442,5.157,1.72C523.4,433.602,522.799,434.19,522.291,433.663
				C521.341,432.7,522.799,434.19,522.291,433.663z M234.778,318.162c-0.491-0.71-1.347-0.249-1.839-0.881
				c1.369-1.529,3.274-0.988,4.958-1.447C237.809,316.022,235.838,319.692,234.778,318.162
				C234.287,317.453,235.065,318.601,234.778,318.162z M226.441,319.99c-2.203,1.679-4.467,3.315-7.548,3.037
				C220.953,320.868,223.758,320.553,226.441,319.99z M225.668,393.683c0.585,0.124,1.242-0.022,2.219-0.105
				c-2.954,3.561-6.339-1.446-5.659-1.634C221.72,392.065,225.481,393.661,225.668,393.683
				C226.253,393.807,224.531,393.514,225.668,393.683z M226.91,321.436c2.032-1.657,4.45-1.949,6.962-1.745
				C231.73,320.95,229.439,321.668,226.91,321.436z M459.839,417.154c-2.352-0.315,4.378-2.432,1.949,0.654
				C461.103,417.739,460.402,417.538,459.839,417.154C459.435,417.112,460.529,417.22,459.839,417.154z M534.183,434.19
				c-1.468-0.715-1.999-1.659-1.573-3.315C533.781,431.755,534.288,432.677,534.183,434.19z M232.001,332.239
				c0.883-1.51,1.767-1.91,4.698-1.847C235.236,332.007,233.707,332.302,232.001,332.239z M210.501,342.221
				c-1.678,0.925-2.959,1.601-4.764,1.472C207.017,342.221,208.508,342.246,210.501,342.221z M389.188,354.495
				c-0.342,0.652-0.039,1.071,0.431,1.529c-0.513-0.229-2.589-2.81-1.005-3.227C389.353,353.134,389.547,353.697,389.188,354.495
				C388.845,355.147,389.403,354.114,389.188,354.495z M119.945,500.269c-0.094,1.049-0.568,1.532-1.524,1.507
				C117.947,500.915,119.498,498.442,119.945,500.269C120.111,500.855,119.835,499.911,119.945,500.269z M220.174,809.414
				c0.779,0.296,1.209,0.878,1.32,1.723C221.494,813.735,216.801,809.729,220.174,809.414
				C220.677,809.348,219.39,809.478,220.174,809.414z M213.416,343.753c-0.569,0.842-1.325,1.262-2.601,1.701
				C211.462,344.071,212.367,343.822,213.416,343.753z M78.762,613.65C78.53,616.67,77.9,610.799,78.762,613.65
				C78.74,614.026,78.679,613.355,78.762,613.65z M233.304,348.728c0.077-0.063,0.226,0.038,0.375,0.063
				C233.315,349.021,232.652,349.021,233.304,348.728z M220.003,320.324c-0.326,0.041-0.707,0.102-1.044,0.146
				C219.269,320.238,219.628,320.194,220.003,320.324z M218.833,320.531c-0.21,0,0.061-0.06,0.127-0.06
				C218.893,320.492,218.833,320.492,218.833,320.531z M217.358,320.931v0.041C217.308,320.931,217.358,320.931,217.358,320.931z
				 M217.358,320.931c0.359-0.461,0.906-0.378,1.364-0.4C218.385,321.033,217.927,321.099,217.358,320.931z M226.849,321.436
				c0,0,0.028,0,0.061,0C226.877,321.453,226.849,321.48,226.849,321.436z M226.849,321.453c-0.11,0.55-0.535,0.464-0.911,0.464
				C226.076,321.453,226.419,321.414,226.849,321.453z M117.339,626.385C116.671,625.904,117.754,626.785,117.339,626.385
				C117.063,626.197,117.659,626.672,117.339,626.385z M435.666,344.8C437.516,345.33,435.805,345.203,435.666,344.8
				C435.666,344.8,435.777,345.098,435.666,344.8z M389.69,356.088c-0.044-0.017-0.044-0.064-0.044-0.064
				c0.144,0.047,0.226,0.193,0.144,0.4C389.778,356.323,389.707,356.218,389.69,356.088
				C389.646,356.071,389.707,356.218,389.69,356.088z M225.872,321.916c0.05,0,0.05,0,0.066,0c0,0.044-0.017,0.044-0.078,0.022
				C225.861,321.938,225.872,321.938,225.872,321.916z M225.309,322.046c0.171-0.044,0.359-0.044,0.552-0.108
				C225.607,322.336,225.414,322.356,225.309,322.046C225.481,322.002,225.331,322.085,225.309,322.046z M496.484,414.051
				L496.484,414.051l0.044,0.022L496.484,414.051z M260.243,605.972C259.337,605.214,260.883,605.404,260.243,605.972
				C260.132,605.909,260.447,605.782,260.243,605.972z M401.732,882.539c-0.061,0.061-0.11,0.061-0.193,0.061
				c0.022-0.144,0.083-0.232,0.21-0.163L401.732,882.539z M401.539,882.6C401.539,882.6,401.501,882.6,401.539,882.6L401.539,882.6z
				 M163.741,395.232c0.149-0.036,2.91-0.334,1.96,0.718C164.624,396.515,163.995,396.264,163.741,395.232
				C164.072,395.196,163.779,395.844,163.741,395.232z M146.376,371.026c-0.773-0.522-0.591-1.071,0.502-1.637
				C147.817,369.723,147.651,370.292,146.376,371.026C146.012,370.982,147.006,370.839,146.376,371.026z"/>
		</g>
		<path clip-path="url(#SVGID_2_)" fill="#232E38" d="M369.637,412.323c0,11.785-31.836,21.337-71.125,21.337
			c-39.296,0-71.132-9.552-71.132-21.337c0-11.785,31.836-21.34,71.132-21.34C337.801,390.983,369.637,400.538,369.637,412.323z"/>
	</g>
	<g>
		<path fill="#F77B55" d="M298.511,56.677c-72.175,0-130.74,58.576-130.74,130.723c0,30.1,10.96,57.063,27.088,79.679
			c103.653,145.244,103.653,145.244,103.653,145.244s0,0,103.657-145.261c16.123-22.613,27.06-49.651,27.06-79.662
			C429.229,115.253,370.736,56.677,298.511,56.677z"/>
		<path fill="#FFFFFF" d="M395.852,187.4c0,53.833-43.531,97.352-97.341,97.352c-53.723,0-97.363-43.519-97.363-97.352
			c0-53.719,43.64-97.341,97.363-97.341C352.322,90.059,395.852,133.681,395.852,187.4z"/>
		<g>
			<g>
				<g>
					<g>
						<polygon fill="#353F49" points="298.511,109.525 284.746,187.409 298.511,265.287 312.248,187.409 						"/>
						<polygon fill="#353F49" points="220.622,187.409 298.511,201.154 376.378,187.409 298.511,173.658 						"/>
					</g>
				</g>
				<g>
					<g>
						<polygon fill="#353F49" points="259.574,148.458 291.632,194.28 337.448,226.342 305.379,180.543 						"/>
						<polygon fill="#353F49" points="259.569,226.348 305.379,194.266 337.436,148.469 291.648,180.532 						"/>
					</g>
				</g>
			</g>
		</g>
	</g>
	<path fill="#29ABE2" d="M562.591,245.217c-1.441,0-2.816,0.237-4.108,0.69c0.375-1.927,0.58-3.906,0.58-5.93
		c0-16.915-13.692-30.597-30.599-30.597c-16.917,0-30.621,13.69-30.621,30.597c0,0.232,0.022,0.444,0.022,0.671
		c-1.938-0.853-4.075-1.339-6.333-1.339c-8.652,0-15.647,6.998-15.647,15.636s7.001,15.648,15.647,15.648l71.06-0.006
		c7,0,12.688-5.684,12.688-12.685C575.279,250.898,569.592,245.217,562.591,245.217z"/>
	<path fill="#29ABE2" d="M163.437,165.284c-0.022,0-0.038,0-0.038,0c0-0.472,0.038-0.936,0.038-1.411
		c0-27.27-22.124-49.386-49.399-49.386c-22.29,0-41.134,14.792-47.257,35.083c-3.727-1.753-7.879-2.741-12.263-2.741
		c-15.896,0-28.788,12.886-28.788,28.788c0,3.664,0.69,7.159,1.932,10.383c-0.32-0.025-0.624-0.05-0.944-0.05
		c-10.192,0-18.452,8.26-18.452,18.452c0,10.189,8.26,18.46,18.452,18.46h136.719c15.891,0,28.772-12.89,28.772-28.791
		C192.209,178.168,179.328,165.284,163.437,165.284z"/>
</g>
</svg>
