<?xml version="1.0" encoding="utf-8"?>
<!-- Generator: Adobe Illustrator 17.0.0, SVG Export Plug-In . SVG Version: 6.00 Build 0)  -->
<!DOCTYPE svg PUBLIC "-//W3C//DTD SVG 1.1//EN" "http://www.w3.org/Graphics/SVG/1.1/DTD/svg11.dtd">
<svg version="1.1" id="Isolation_Mode" xmlns="http://www.w3.org/2000/svg" xmlns:xlink="http://www.w3.org/1999/xlink" x="0px"
	 y="0px" width="155px" height="155px" viewBox="0 0 155 155" enable-background="new 0 0 155 155" xml:space="preserve">
<circle fill="#21D8DE" cx="77.5" cy="77.5" r="77.5"/>
<g>
	<g>
		<path fill="#CCCBCA" d="M118.968,17.825h-11.81v11.81h11.81h11.812C130.779,23.112,125.49,17.825,118.968,17.825z"/>
		<path fill="#FFFFFF" d="M118.969,17.825c-6.521,0-11.811,5.287-11.811,11.81v95.73c0,6.524-5.288,11.81-11.811,11.81H31.118
			V29.635c0-6.522,5.29-11.81,11.812-11.81H118.969z"/>
		<path fill="#CCCBCA" d="M83.543,125.365H7.5c0,6.524,5.287,11.81,11.809,11.81h76.039
			C88.826,137.173,83.543,131.89,83.543,125.365z"/>
		<g>
			<g>
				<g>
					<rect x="38.607" y="59.781" fill="#FF6D3B" width="2.386" height="19.121"/>
					<rect x="42.17" y="52.409" fill="#242D3C" width="2.379" height="26.493"/>
					<rect x="45.725" y="62.296" fill="#FFD55C" width="2.39" height="16.606"/>
					<rect x="49.284" y="56.824" fill="#CCCBCA" width="2.384" height="22.078"/>
					<rect x="54.608" y="73.464" fill="#FF6D3B" width="2.384" height="5.438"/>
					<rect x="58.17" y="66.539" fill="#242D3C" width="2.384" height="12.363"/>
					<rect x="61.725" y="68.833" fill="#FFD55C" width="2.39" height="10.069"/>
					<rect x="65.286" y="60.665" fill="#CCCBCA" width="2.384" height="18.237"/>
					<rect x="70.607" y="72.397" fill="#FF6D3B" width="2.385" height="6.505"/>
					<rect x="74.17" y="73.563" fill="#242D3C" width="2.382" height="5.34"/>
					<rect x="77.725" y="63.727" fill="#FFD55C" width="2.389" height="15.176"/>
					<rect x="81.289" y="68.355" fill="#CCCBCA" width="2.379" height="10.548"/>
					<rect x="86.607" y="54.55" fill="#FF6D3B" width="2.389" height="24.353"/>
					<rect x="90.166" y="62.199" fill="#242D3C" width="2.39" height="16.703"/>
					<rect x="93.728" y="69.583" fill="#FFD55C" width="2.381" height="9.319"/>
					<rect x="97.287" y="58.325" fill="#CCCBCA" width="2.383" height="20.577"/>
				</g>
			</g>
			<g>
				<g>
					<rect x="38.607" y="108.284" fill="#E6E5E5" width="61.062" height="1.749"/>
					<rect x="38.607" y="112.663" fill="#E6E5E5" width="61.062" height="1.754"/>
					<rect x="38.607" y="117.04" fill="#E6E5E5" width="30.531" height="1.755"/>
				</g>
			</g>
			<g>
				<rect x="38.607" y="37.517" fill="#242D3C" width="61.062" height="1.751"/>
				<rect x="38.607" y="29.635" fill="#FF6D3B" width="61.062" height="5.251"/>
				<rect x="38.607" y="41.897" fill="#E6E5E5" width="61.062" height="1.752"/>
				<rect x="38.607" y="46.274" fill="#E6E5E5" width="30.531" height="1.755"/>
			</g>
			<g>
				<g>
					<rect x="38.607" y="91.172" fill="#E6E5E5" width="28.946" height="12.731"/>
					<rect x="70.723" y="91.172" fill="#E6E5E5" width="28.947" height="12.731"/>
				</g>
			</g>
			<g>
				<g>
					<rect x="38.607" y="83.282" fill="#CCCBCA" width="3.51" height="3.51"/>
					<rect x="43.872" y="85.038" fill="#E6E5E5" width="7.902" height="1.755"/>
				</g>
				<g>
					<rect x="54.57" y="83.282" fill="#FF6D3B" width="3.512" height="3.51"/>
					<rect x="59.836" y="85.037" fill="#E6E5E5" width="7.903" height="1.755"/>
				</g>
				<g>
					<rect x="70.537" y="83.282" fill="#FFD55C" width="3.51" height="3.51"/>
					<rect x="75.801" y="85.038" fill="#E6E5E5" width="7.904" height="1.755"/>
				</g>
				<g>
					<rect x="86.5" y="83.282" fill="#242D3C" width="3.512" height="3.51"/>
					<rect x="91.766" y="85.038" fill="#E6E5E5" width="7.904" height="1.755"/>
				</g>
			</g>
		</g>
	</g>
	<g>
		<path fill="#3E4959" d="M119.164,110.567v2.855c0,1.604-0.625,3.111-1.758,4.244c-1.133,1.135-2.643,1.76-4.244,1.76
			c-1.605,0-3.113-0.625-4.248-1.76c-1.131-1.133-1.756-2.641-1.756-4.244V85.324c0-1.604,0.625-3.112,1.756-4.245
			c1.135-1.134,2.643-1.76,4.248-1.76h9.678v-7.537h-9.678c-3.618,0-7.02,1.41-9.577,3.965c-2.558,2.559-3.968,5.961-3.968,9.577
			v28.099c0,3.617,1.41,7.019,3.968,9.576c2.558,2.557,5.959,3.965,9.577,3.965c3.615,0,7.016-1.408,9.574-3.965
			c2.558-2.558,3.967-5.959,3.967-9.576v-2.855H119.164z"/>
		<g>
			<g>
				<rect x="122.84" y="64.802" fill="#3E4959" width="13.962" height="21.499"/>
				<polygon fill="#131A26" points="134.707,62.847 124.934,62.847 122.84,64.802 136.802,64.802 				"/>
				<rect x="124.934" y="55.865" fill="#3E4959" width="9.773" height="6.982"/>
				<rect x="122.84" y="52.516" fill="#131A26" width="13.962" height="3.35"/>
			</g>
			<g>
				<g>
					<path fill="#3E4959" d="M142.711,98.58l-4.54,4.54l-6.052-6.052c-0.58-0.581-0.939-1.383-0.941-2.271
						c0.002-0.885,0.361-1.689,0.941-2.27l0,0c0.581-0.58,1.385-0.94,2.271-0.94c0.885,0,1.688,0.36,2.27,0.94L142.711,98.58z"/>
					<polygon fill="#131A26" points="142.712,100.849 140.44,103.12 138.171,103.12 142.712,98.58 					"/>
				</g>
				<rect x="116.93" y="86.301" fill="#3E4959" width="25.782" height="2.728"/>
				<path fill="#131A26" d="M119.286,89.029c0,5.819,4.719,10.536,10.536,10.536c5.817,0,10.534-4.717,10.534-10.536H119.286z"/>
				<g>
					<path fill="#3E4959" d="M133.123,103.312h-6.42v-8.557c0-0.822,0.313-1.645,0.94-2.271c0.628-0.627,1.448-0.941,2.269-0.941
						l0,0c0.822,0,1.645,0.314,2.273,0.941c0.625,0.627,0.938,1.449,0.938,2.271V103.312z"/>
					<polygon fill="#131A26" points="131.521,105.476 128.309,105.476 126.703,103.312 133.123,103.312 					"/>
				</g>
			</g>
		</g>
		<g>
			<circle fill="#131A26" cx="122.841" cy="75.552" r="5.911"/>
			<circle fill="#3E4959" cx="122.841" cy="75.552" r="2.394"/>
		</g>
		<g>
			<g>
				<g>
					<rect x="116.93" y="107.838" fill="#131A26" width="25.782" height="2.73"/>
				</g>
				<g>
					<circle fill="#131A26" cx="122.934" cy="110.567" r="1.954"/>
				</g>
			</g>
		</g>
		<g>
			<path fill="#131A26" d="M116.93,128.641h-7.538v-5.446c0-0.963,0.368-1.928,1.104-2.665c0.736-0.735,1.7-1.102,2.666-1.102l0,0
				c0.964,0,1.929,0.367,2.664,1.102c0.738,0.737,1.104,1.702,1.104,2.665V128.641z"/>
			<circle fill="#3E4959" cx="113.16" cy="123.194" r="1.676"/>
			<rect x="107.158" y="128.641" fill="#131A26" width="12.006" height="1.395"/>
		</g>
		<g>
			<path fill="#3E4959" d="M97.369,130.035c-0.65,0-1.3,0.248-1.795,0.745c-0.496,0.496-0.745,1.145-0.745,1.795v3.205H147.5v-3.205
				c0-0.65-0.246-1.299-0.743-1.795c-0.495-0.497-1.145-0.745-1.796-0.745H97.369z"/>
			<rect x="94.829" y="135.78" fill="#131A26" width="13.962" height="1.395"/>
			<rect x="133.539" y="135.78" fill="#131A26" width="13.961" height="1.395"/>
		</g>
	</g>
</g>
</svg>
