<?xml version="1.0" encoding="utf-8"?>
<!-- Generator: Adobe Illustrator 17.0.0, SVG Export Plug-In . SVG Version: 6.00 Build 0)  -->
<!DOCTYPE svg PUBLIC "-//W3C//DTD SVG 1.1//EN" "http://www.w3.org/Graphics/SVG/1.1/DTD/svg11.dtd">
<svg version="1.1" id="Isolation_Mode" xmlns="http://www.w3.org/2000/svg" xmlns:xlink="http://www.w3.org/1999/xlink" x="0px"
	 y="0px" width="376.683px" height="358px" viewBox="0 0 376.683 358" enable-background="new 0 0 376.683 358"
	 xml:space="preserve">
<g>
	<path fill="#FFFFFF" d="M218.154,353.451H40.516V5.467h213.158v312.459C253.674,337.526,237.752,353.451,218.154,353.451z"/>
	<path fill="#F77B55" d="M156.821,40.578c0,5.376-4.349,9.732-9.726,9.732c-5.374,0-9.723-4.356-9.723-9.732
		c0-5.373,4.348-9.723,9.723-9.723C152.472,30.855,156.821,35.205,156.821,40.578z"/>
	<path fill="#CCCBCA" d="M40.516,353.445C20.875,353.445,5,337.526,5,317.929h177.612c0,19.598,15.894,35.517,35.53,35.517H40.516z"
		/>
	<g>
		<g>
			<g>
				<g>
					<g>
						<rect x="94.463" y="125.255" fill="#E6E5E5" width="131.651" height="7.817"/>
					</g>
				</g>
				<g>
					<g>
						<rect x="68.075" y="118.611" fill="#E6E5E5" width="14.473" height="14.46"/>
					</g>
				</g>
			</g>
		</g>
		<g>
			<g>
				<g>
					<g>
						<rect x="94.463" y="147.532" fill="#E6E5E5" width="131.651" height="7.817"/>
					</g>
				</g>
				<g>
					<g>
						<rect x="68.075" y="140.888" fill="#E6E5E5" width="14.473" height="14.46"/>
					</g>
				</g>
			</g>
		</g>
		<g>
			<g>
				<g>
					<g>
						<rect x="94.463" y="169.809" fill="#E6E5E5" width="131.651" height="7.817"/>
					</g>
				</g>
				<g>
					<g>
						<rect x="68.075" y="163.165" fill="#E6E5E5" width="14.473" height="14.46"/>
					</g>
				</g>
			</g>
		</g>
		<g>
			<g>
				<g>
					<g>
						<rect x="94.463" y="192.086" fill="#E6E5E5" width="131.651" height="7.819"/>
					</g>
				</g>
				<g>
					<g>
						<rect x="68.075" y="185.444" fill="#E6E5E5" width="14.473" height="14.462"/>
					</g>
				</g>
			</g>
		</g>
		<g>
			<g>
				<g>
					<g>
						<rect x="94.463" y="214.362" fill="#E6E5E5" width="131.651" height="7.82"/>
					</g>
				</g>
				<g>
					<g>
						<rect x="68.075" y="207.72" fill="#E6E5E5" width="14.473" height="14.462"/>
					</g>
				</g>
			</g>
		</g>
		<g>
			<g>
				<g>
					<g>
						<rect x="94.463" y="236.637" fill="#E6E5E5" width="131.651" height="7.82"/>
					</g>
				</g>
				<g>
					<g>
						<rect x="68.075" y="229.995" fill="#E6E5E5" width="14.473" height="14.462"/>
					</g>
				</g>
			</g>
		</g>
		<g>
			<g>
				<g>
					<g>
						<rect x="94.463" y="258.913" fill="#E6E5E5" width="131.651" height="7.82"/>
					</g>
				</g>
				<g>
					<g>
						<rect x="68.075" y="252.271" fill="#E6E5E5" width="14.473" height="14.462"/>
					</g>
				</g>
			</g>
		</g>
		<g>
			<g>
				<g>
					<g>
						<rect x="94.463" y="281.188" fill="#E6E5E5" width="131.651" height="7.819"/>
					</g>
				</g>
				<g>
					<g>
						<rect x="68.075" y="274.546" fill="#E6E5E5" width="14.473" height="14.462"/>
					</g>
				</g>
			</g>
		</g>
		<rect x="68.075" y="82.038" fill="#F77B55" width="158.038" height="16.294"/>
	</g>
	<g>
		<path fill="#474F59" d="M253.674,53.117h-75.419c-3.211,0-6.419-1.229-8.864-3.676c-2.449-2.443-3.673-5.65-3.673-8.863l0,0
			c0-3.207,1.223-6.411,3.673-8.854c2.445-2.446,5.653-3.676,8.864-3.676h75.419V53.117z"/>
		<g>
			<rect x="178.255" y="28.048" fill="#353F49" width="2.927" height="25.068"/>
			<rect x="184.108" y="28.048" fill="#353F49" width="2.927" height="25.068"/>
			<rect x="189.961" y="28.048" fill="#353F49" width="2.927" height="25.068"/>
		</g>
		<g>
			<path fill="#F77B55" d="M362.061,11.338c3.74,0,7.487,1.432,10.342,4.284c2.852,2.846,4.28,6.599,4.28,10.337l0,0
				c0,3.744-1.428,7.485-4.28,10.337c-2.855,2.861-6.602,4.281-10.342,4.281h-48.865c6.372-17.074,22.834-29.241,42.132-29.241
				H362.061z"/>
			<path fill="#F77B55" d="M362.061,69.825c3.74,0,7.487-1.426,10.342-4.281c2.852-2.861,4.28-6.602,4.28-10.343l0,0
				c0-3.738-1.428-7.482-4.28-10.337c-2.855-2.855-6.602-4.284-10.342-4.284h-48.865c6.372,17.08,22.834,29.246,42.132,29.246
				H362.061z"/>
		</g>
		<path fill="#E6E5E5" d="M323.595,37.632c-0.816-0.817-1.887-1.226-2.96-1.226h-49.604c-7.029,0-13.288-3.264-17.357-8.357v8.357
			v8.354v8.357c4.072-5.099,10.328-8.357,17.36-8.357h49.601c1.073,0,2.143-0.406,2.96-1.226c0.816-0.812,1.225-1.884,1.225-2.955
			C324.819,39.518,324.411,38.443,323.595,37.632z"/>
		<path fill="#D9D8D7" d="M147.095,38.495c-0.536,0-1.069,0.197-1.476,0.609c-0.41,0.414-0.609,0.946-0.609,1.475
			c0,0.537,0.199,1.072,0.609,1.481c0.407,0.409,0.94,0.614,1.476,0.614h18.8v-4.178H147.095z"/>
	</g>
</g>
</svg>
