<?xml version="1.0" encoding="utf-8"?>
<!-- Generator: Adobe Illustrator 17.0.0, SVG Export Plug-In . SVG Version: 6.00 Build 0)  -->
<!DOCTYPE svg PUBLIC "-//W3C//DTD SVG 1.1//EN" "http://www.w3.org/Graphics/SVG/1.1/DTD/svg11.dtd">
<svg version="1.1" id="Isolation_Mode" xmlns="http://www.w3.org/2000/svg" xmlns:xlink="http://www.w3.org/1999/xlink" x="0px"
	 y="0px" width="158.25px" height="157.75px" viewBox="0 0 158.25 157.75" enable-background="new 0 0 158.25 157.75"
	 xml:space="preserve">
<circle fill="#21D8DE" cx="79" cy="78.75" r="77.5"/>
<g>
	<path fill="#FFFFFF" d="M121.369,82.174c0.004,0,0.005,0,0.007,0c-0.002-0.089-0.007-0.176-0.007-0.265
		c0-5.13,4.158-9.288,9.286-9.288c4.193,0,7.735,2.781,8.888,6.598c0.701-0.331,1.481-0.517,2.307-0.517
		c2.987,0,5.412,2.424,5.412,5.413c0,0.69-0.129,1.347-0.364,1.954c0.061-0.005,0.118-0.01,0.179-0.01c1.916,0,3.47,1.553,3.47,3.47
		c0,1.915-1.554,3.472-3.47,3.472h-25.707c-2.989,0-5.411-2.425-5.411-5.414C115.958,84.597,118.38,82.174,121.369,82.174z"/>
	<g>
		<g>
			<path fill="#FFFFFF" d="M64.084,65.693l-1.414-1.414c0.524-0.524,1.05-1.046,1.574-1.564l1.406,1.422
				C65.128,64.653,64.606,65.171,64.084,65.693z"/>
			<path fill="#FFFFFF" d="M68.721,61.14L67.332,59.7c1.043-1.006,2.085-1.998,3.125-2.978l1.371,1.457
				C70.794,59.153,69.758,60.14,68.721,61.14z M74.972,55.259l-1.352-1.475c1.068-0.979,2.135-1.945,3.198-2.897l1.334,1.49
				C77.095,53.323,76.034,54.283,74.972,55.259z M81.369,49.539l-1.312-1.508c1.096-0.955,2.188-1.893,3.276-2.812l1.291,1.527
				C83.544,47.66,82.459,48.592,81.369,49.539z M87.919,43.998l-1.27-1.545c1.126-0.926,2.246-1.831,3.358-2.716l1.246,1.564
				C90.149,42.181,89.037,43.08,87.919,43.998z M94.63,38.66l-1.219-1.586c1.16-0.892,2.311-1.761,3.448-2.604l1.191,1.607
				C96.921,36.913,95.78,37.774,94.63,38.66z M101.518,33.557l-1.16-1.629c1.198-0.854,2.383-1.677,3.552-2.471l1.123,1.654
				C103.875,31.897,102.704,32.713,101.518,33.557z M108.602,28.749l-1.084-1.682c1.247-0.803,2.472-1.568,3.675-2.296l1.035,1.711
				C111.04,27.2,109.831,27.956,108.602,28.749z M115.915,24.331l-0.979-1.744c1.304-0.731,2.594-1.42,3.833-2.048l0.904,1.783
				C118.459,22.938,117.194,23.614,115.915,24.331z M123.512,20.499l-0.807-1.83c1.408-0.621,2.774-1.169,4.062-1.627l0.67,1.885
				C126.196,19.368,124.876,19.897,123.512,20.499z M131.451,17.732L131,15.783c1.617-0.375,3.115-0.581,4.454-0.614l0.049,2
				C134.3,17.198,132.936,17.388,131.451,17.732z"/>
			<path fill="#FFFFFF" d="M140.798,18.812c-0.421-0.421-0.931-0.765-1.517-1.023l0.809-1.83c0.812,0.359,1.526,0.844,2.122,1.439
				L140.798,18.812z"/>
		</g>
		<g>
			<polygon fill="#E6E5E5" points="105.232,19.701 115.935,27.036 79.42,48.274 			"/>
			<polygon fill="#FFFFFF" points="105.669,23.861 107.288,39.09 79.42,48.274 			"/>
			<polygon fill="#FFFFFF" points="104.243,10.422 105.232,19.701 79.42,48.274 			"/>
			<polygon fill="#CCCBCA" points="115.935,27.036 105.669,23.861 106.579,32.479 			"/>
		</g>
		<g>
			<path fill="#FFFFFF" d="M120.5,78.746c0,22.916-18.576,41.5-41.505,41.5c-22.917,0-41.495-18.584-41.495-41.5
				c0-22.922,18.578-41.497,41.495-41.497C101.924,37.249,120.5,55.823,120.5,78.746z"/>
			<path fill="#D9D8D7" d="M93.566,39.886c7.572,6.915,12.324,16.866,12.324,27.928c0,20.883-16.933,37.82-37.831,37.82
				c-11.06,0-21.005-4.749-27.921-12.321c5.898,15.732,21.067,26.932,38.856,26.932c22.929,0,41.505-18.584,41.505-41.5
				C120.5,60.953,109.306,45.786,93.566,39.886z"/>
			<path fill-rule="evenodd" clip-rule="evenodd" fill="#3E4959" d="M69.285,113.439c0.166,0.033,0.617-0.122,0.743-0.156
				c-0.307-0.251-0.975-0.278-1.366-0.515c0.035,0.016-1.248-0.764-0.977-0.123c0.072,0.156,0.31,0.015,0.422,0.095
				c-0.154,0.229-0.221,0.155-0.054,0.259c0-0.003-1.419-0.771,0.006-0.818c-0.985-0.889,0.065-0.612-0.247-1.172
				c-0.213-0.387,0.838-0.752,0.27-1.083c-0.267-0.156-0.563-0.126-0.844-0.32c-0.389-0.281-0.021-0.782,0.348-0.733
				c0.035,0,0.227-0.893,0.296-1.035c-0.108-0.044-0.841-0.952-0.665-1.146c0.221-0.228,1.17,0.588,1.406-0.014
				c0.092-0.218-0.332-0.805-0.297-1.05c0.432-0.038,3.264,0.07,2.779-1.23c-0.166-0.45-1.357-1.125-1.23-1.496
				c0.412,0.063,1.1,0.662,1.539,0.421c0.369-0.185,0.658,0.212,1.039-0.212c0.066-0.078,0.697-0.753,0.515-0.88
				c-0.192-0.004-0.296,0.107-0.315,0.333c-0.225-0.305,0.165-0.517,0.366-0.74c0.052,0.068,0.097,0.135,0.144,0.194
				c0.236-0.356,1.546-2.063,1.588-2.102c0.672-0.774,0.123-1.822,0.787-2.443c0.602-0.572,1.264-0.943,2.018-1.247
				c0.235-0.093,1.068-0.534,1.238-0.484c1.39,0.429,1.222-1.232,2.107-1.982c0.896-0.749,0.236-4.593,0.966-4.879
				c0.4-0.156,1.581-1.612,2.194-2.274c0.595-0.639,0.668-1.462,0.438-2.275c-0.354-1.243-0.707-0.54-1.603-1.075
				c-0.72-0.429-1.27-1.288-2.162-1.41c-0.522-0.072-1.071,0.085-1.585-0.067c-0.223-0.067-0.82-0.432-1.045-0.125
				c0.039-0.053-0.478,0.192-0.441,0.207c-0.055-0.035-0.01-0.679-0.184-0.841c-0.268-0.256-1.198-0.521-1.531-0.604
				c-0.773-0.198-0.963,0.718-1.162-0.375c-0.64-0.172-1.271-0.917-1.162-1.1c0.061-0.077-0.99-2.297-1.137-2.09
				c-0.012-0.743-2.322-1.669-2.907-1.315c-0.525,0.383-1.495-0.344-1.819-0.691c-0.366-0.396-0.357-0.819-0.97-1.073
				c-0.263-0.114-0.712-0.054-0.611-0.503c0.105-0.477-1.135-0.57-1.253-1.036c0.176,0.033,0.324-0.054,0.488-0.098
				c-0.483,0.167-1.072-0.186-1.547,0.205c-0.691,0.576-1.104-0.272-1.861-0.123c-0.965,0.181-0.316-0.168-0.922-0.54
				c0.249,0.155-1.125-0.627-0.804-0.599c-0.288-0.032,0.041,0.475-0.278,0.585c-0.499,0.186-0.933,0.298-0.608,0.901
				c0.553,1.104-1.152,0.584-0.352-0.167c0.143-0.128,0.185-1.559,0.345-1.509c-0.202-0.07-1.758,0.941-1.938,1.153
				c-0.498-0.797-1.344,1.983-1.625,2.004c-0.141-0.685-0.791-0.963-1.357-1.166c-0.485-0.185-0.971,0.968-1.599,0.333
				c-1.126-1.135-0.63-2.964-0.06-4.262c0.24-0.598-2.072-0.782-2.354-0.537c-0.568,0.459,0.084-0.952,0.082-0.912
				c0.062-0.57,0.191-0.945,0.443-0.938c0.148-0.336,1.011-1.877,0.92-2.064c-0.344-0.808-1.805,0.628-1.943,0.988
				c-0.145,0.35-0.426,0.545-0.562,0.863c-0.139,0.32-0.404-0.071-0.638,0.057c-0.631,0.356-1.531,0.173-1.394-0.74
				c0.143-1.102-0.274-3.274,0.961-4.028c0.377-0.234,0.438-1.329,0.873-1.719c0.053-0.046,1.303-0.77,1.18-0.912
				c0.185,0.193,1.168-0.199,1.289,0.055c0.098,0.208,0.675,0.431,0.878,0.312c-0.009,0.027,0.101-0.484,0.101-0.49
				c-0.017-0.005-0.402-0.058-0.387-0.182c0.046-0.17,1.217-0.053,1.256-0.05c0.554,0.038,0.965,0.497,1.377,0.223
				c0.639-0.435,0.248,2.417,0.506,2.678c0.137,0.152,0.033,0.497,0.305,0.468c0.363-0.04,0.479-3.7,1.424-4.462
				c0.687-0.557,1.439-1.056,2.203-1.469c0.244-0.122,0.873-0.429,1.006-0.668c-0.028-0.114-0.144-0.258-0.274-0.134
				c-0.039-0.223,0.336-0.085,0.406-0.321c0.07-0.235-0.194-0.314-0.163-0.396c-0.012,0.023,0.233-0.478,0.151-0.412
				c0.012,0.017,0.012,0.039,0.018,0.052c0.379,0.062-0.084-0.353-0.102-0.417c0.497,0.259,0.288-0.545,0.777-0.585
				c-0.35,0.143-0.282,0.534-0.236,0.773c0.1,0.521,0.562-0.725,0.507-0.676c0.466-0.191,1.192-0.58,1.69-0.931
				c-0.118-0.048-0.241,0.042-0.383-0.058c0.512-0.185,1.086-0.124,1.572-0.377c-0.021-0.514,0.289-1.057,0.868-1.152
				c0.886-0.146,1.923-0.688,2.81-0.987c-0.131,0.304,0.074,0.07,0.314,0.183c-0.288-0.747-1.859,1.389-1.113,0.956
				c0.633-0.364,2.76-0.696,3.052-1.311c-0.01-0.032-0.144-0.442-0.14-0.442c-0.524,0-0.566,0.648-1.215,0.645
				c-1.174-0.013-0.465-0.734-0.709-1.06c-0.207,0.049-0.387-0.007-0.527-0.168c0.119-0.025,1.564-0.36,0.799-0.532
				c-1.24-0.267-2.067,1.116-3.088,1.084c0.762-0.466,1.803-1.458,2.73-1.583c0.982-0.138,2.354,0.346,3.221-0.265
				c0.771-0.536,1.301-0.141,1.738-1.014c0.133-0.237-0.564-0.535-0.744-0.575c0.077-0.088,0.232,0,0.289-0.148
				c-1.162-0.52-1.405-1.033-1.545-2.377c-0.592,0.43-2.578,1.353-1.516-0.148c-0.382-0.165-1.588-1.171-2.049-0.477
				c-0.216,0.312-0.554,0.837-0.91,0.998c-0.784,0.358-0.086,0.289-0.347,0.817c-0.452,0.871-1.525,0.75-2.04,1.512
				c-0.322,0.48-0.418,0.816-0.918,1.042c-0.438,0.193-0.604-0.324-0.392-0.733c0.155,0.172,0.296,0.199,0.421,0.071
				c0.037-0.188-0.229-0.097-0.312-0.171c0.15-0.267,0.343-0.514,0.559-0.742c-0.072-0.04-1.187-0.215-1.147-0.512
				c0.074-0.608-0.695-0.272-0.826-0.456c0.594-0.751,0.594-1.099,1.764-1.686c0.398-0.199,2.641-1.347,3.059-1.062
				c-0.054,0.259-0.332,0.205-0.479,0.338c0.32,0.083,1.258,0.183,1.575-0.038c-0.067-0.06-0.444-0.684-0.253-0.832
				c-0.027,0.03,0.644,0.017,0.695-0.003c0.361-0.086,0.756-0.13,0.961-0.496c0.178-0.323,1.362-0.741,1.645-0.581
				c1.547,0.874-2.101,1.806-2.138,1.708c0.076,0.254,1.054-0.178,1.305,0.497c0.062,0.165,1.185,0.525,1.29,0.37
				c0.066-0.078-0.32-0.488-0.333-0.585c1.176,0.568,1.105,0.271,0.913-0.515c-0.185-0.748,0.689,0.052,0.737,0.074
				c0.196,0.1,0.987-0.355,1.106-0.517c-0.285-0.222-0.779-0.217-1.025-0.485c-0.242-0.233,0.608-0.288,0.314-0.534
				c-0.356-0.292-0.921-0.218-0.723-0.791c-0.205-0.055-0.402-0.031-0.583,0.076c0.056,0.105,0.173,0.027,0.216,0.081
				c-0.195,0.119-0.415,0.141-0.635,0.135c0.066-0.1,0.273-0.1,0.275-0.296c-0.608-0.07-0.93,0.296-1.461,0.457
				c0.148-0.219,0.405-0.285,0.588-0.45c-0.578,0.074-1.131,0.29-1.586,0.667c0.068,0.067,0.133,0.129,0.176,0.213
				c-0.441,0.391-1.031,0.512-1.553,0.752c0.09-0.35,0.468-0.268,0.589-0.526c-0.19,0.001-0.378,0.043-0.545,0.126
				c0.22-0.029,0.874-0.681,1.021-0.848c-0.942-0.11-1.339,1.111-2.234,0.94c0.188-0.217,0.565-0.103,0.689-0.445
				c-0.325,0.039-1.577,0.889-1.782,0.445c-0.012-0.026,2.288-0.94,2.529-1.273c-0.156-0.016-0.329,0.143-0.473-0.041
				c0.113-0.125,0.297-0.136,0.43-0.273c-0.753-0.007-2.992,0.903-2.826,1.429c-0.289,0.236-0.602,0.302-0.957,0.153
				c0.141-0.218,0.631-0.222,0.234-0.536c-0.725,0.266-1.426,0.561-2.129,0.867c-1.615,0.718-3.207,1.562-4.707,2.495
				c-2.481,1.535-4.531,3.348-6.583,5.406c-1.088,1.104-5.233,5.943-5.22,6.955c0.014,0.744-0.428,1.407-0.706,2.076
				c-0.228,0.55-0.251,1.317-0.525,1.822c-0.602,1.076-0.325,2.315-0.6,3.553c0.345-0.259,1.047-5.909,1.657-5.698
				c0.119,0.042-0.377,2.349-0.507,2.636c-0.512,1.184,0.163,2.633-0.175,3.872c-0.035,0.121-0.205,0.748-0.209,0.872
				c-0.57,0.439,0.15,1.093,0.146,1.576c0,0.285,1.454,1.562,1.736,1.728c0.61,0.367,0.733-0.285,1.289-0.166
				c0.503,0.105,0.646,1.015,0.915,1.399c0.355,0.536,1.72,0.479,1.951,0.729c0.156,0.193,0.027,1.231,0.646,1.377
				c-0.006-0.071-0.019-0.44,0.065-0.492c0.193-0.115,0.59,0.576,0.461,0.706c-0.197,0.042-0.375-0.026-0.523-0.214
				c0,0.093-0.106,1.455,0.296,1.188c0.007-0.08,0.03-0.17,0.039-0.25c0.521,0.225,0.479,0.988,0.847,1.093
				c0.51,0.14,0.891,0.776,1.27,0.959c0.346,0.172,0.25-1.197,0.9-1.261c0.52-0.048,0.817,1.316,0.996,1.645
				c0.274,0.48-0.367,1.637-0.012,2.009c0.362,0.379-0.896,1.292-0.961,1.674c-0.041,0.298-0.682,0.571-0.658,0.682
				c0.049,0.321-0.144,0.756-0.254,1.059c-0.32,0.853-0.162,0.928,0.389,1.322c0.016,0.012-1.023,2.078-0.426,2.606
				c0.945,0.775,2.191,2.689,2.492,3.895c0.621,1.653,1.561,2.67,3.14,3.487c1.282,0.676,2.188,1.824,2.188,3.368
				c0.046,0.908-0.085,2.044,0.298,2.899c0.27,0.596-0.242,1.568,0.145,2.11c0.246,0.332-0.08,0.521,0.066,0.836
				c0.15,0.335,0.501,0.892,0.493,1.28c-0.009,0.65-0.002,1.422,0.042,2.069c0.015,0.219-0.191,0.593-0.081,0.731
				c0.15,0.18,1.024,2.333,1.024,2.962c-0.004,0.153,0.673-0.042,0.061-0.654c0.725-0.406,0.582,1.296,0.631,1.312
				c-0.652-0.22-0.232-0.045-0.182,0.794c0.033,0.492-0.129,0.256,0.275,0.351c0.642,0.141,0,0.572,0.244,0.916
				c0.478,0.697,1.219,1.335,1.726,1.878C66.889,113.371,68.303,113.233,69.285,113.439
				C69.426,113.462,69.104,113.401,69.285,113.439z M71.988,45.796c-0.229,0.205-0.475,0.243-0.733,0.319
				C71.435,45.839,71.713,45.881,71.988,45.796z M69.832,45.609c0.168-0.023,0.3,0.023,0.388,0.143
				c0.002,0.064-0.882,0.104-1.019,0.333C69.316,45.695,69.639,45.761,69.832,45.609C69.918,45.725,69.639,45.761,69.832,45.609z
				 M67.658,47.146C67.846,47.192,67.384,47.104,67.658,47.146C67.664,47.148,67.603,47.14,67.658,47.146z M66.465,44.872
				c0.08-0.09,0.145-0.077,0.186,0.045C66.564,45.008,66.502,44.996,66.465,44.872C66.471,44.821,66.453,44.926,66.465,44.872z
				 M65.272,48.419C64.941,48.396,65.628,48.431,65.272,48.419C65.228,48.419,65.326,48.423,65.272,48.419z M65.628,47.044
				c-1.153,1.08-0.255,0.013-0.594,0.348c0.01,0.018,0,0.035-0.015,0.036C64.926,47.325,65.603,47.053,65.628,47.044
				C65.48,47.185,65.428,47.081,65.628,47.044z M65.206,45.765c-0.214,0.243-0.214,0.243-0.503,0.188
				C64.855,45.849,65.06,45.887,65.206,45.765z M70.361,41.691c-0.074,0.004-0.148,0.004-0.269,0.004
				C70.463,41.385,70.4,41.691,70.361,41.691C70.287,41.695,70.414,41.691,70.361,41.691z M71.196,41.137
				c-0.126,0.144-0.308,0.057-0.467,0.128C70.896,40.943,70.926,40.938,71.196,41.137z M66.518,41.516
				c0.098-0.088,0.216-0.131,0.347-0.121C66.975,41.558,66.158,41.651,66.518,41.516C66.564,41.43,66.477,41.534,66.518,41.516z
				 M66.31,41.281c0.133,0.062,0.121,0.119-0.037,0.186C66.16,41.399,66.179,41.342,66.31,41.281
				C66.358,41.281,66.245,41.289,66.31,41.281z M60.262,51.604c0.009-0.005-1.814,0.728-1.674,0.276
				c-0.046,0.145,0.623-0.516,0.483-0.452c0.148-0.065,1.368-0.14,1.725-0.136C60.608,51.478,60.435,51.543,60.262,51.604
				C59.857,51.757,60.435,51.543,60.262,51.604z M61.713,50.706c1.506,0.146-0.894,0.6-1.148,0.333
				C60.905,50.745,61.301,50.659,61.713,50.706C61.833,50.718,61.301,50.659,61.713,50.706z M61.467,41.364
				c0.401-0.257,0.832-0.45,1.357-0.565c-0.385,0.312-0.9,0.447-1.369,0.576L61.467,41.364z M61.549,49.482
				c-0.064,0.066-0.133,0.062-0.194-0.002C61.449,49.447,61.535,49.418,61.549,49.482C61.58,49.544,61.535,49.418,61.549,49.482z
				 M61.109,50.381C61.076,50.381,60.959,50.35,61.109,50.381C61.117,50.381,61.06,50.369,61.109,50.381z M60.667,49.616
				c0.541,0.254,0.231,1.101-0.235,0.441c-0.02,0.393-0.7,1.057-1.07,1.137c0.142-0.155,0.188-0.328,0.144-0.515
				c-0.118-0.092-0.346,0.173-0.473,0.166c0.054,0.238,0.983-1.592,0.202-1.063c-0.285,0.22-2.162,2.216-2.271,2.105
				c-0.176-0.176,0.832-1.646,0.905-1.7C58.509,49.656,59.857,49.235,60.667,49.616z M59.62,42.634
				c0.076-0.044,0.681-0.413,0.755-0.325c0.193,0.239-0.967,0.536-1.025,0.542C59.418,42.706,59.533,42.686,59.62,42.634
				C59.834,42.514,59.533,42.686,59.62,42.634z M59.747,47.532c-0.002,0.029-0.24,0.486-0.386,0.306
				C59.246,47.711,59.706,47.325,59.747,47.532C59.731,47.654,59.736,47.476,59.747,47.532z M58.428,43.751
				c0.07,0,1.045-0.611,1.077-0.36C59.516,43.462,58.32,43.769,58.428,43.751z M58.16,44.754c-0.062,0.111-0.116,0.169-0.253,0.167
				C57.958,44.804,58.044,44.792,58.16,44.754z M57.481,47.104c0.134-0.102,0.451-0.614,0.298-0.813
				c0.084,0.11-0.586-0.075-0.276-0.19c0.124-0.04,0.886-0.457,1.006-0.331c0.224,0.23-0.949,1.456-1.185,1.56
				C57.348,47.208,57.416,47.152,57.481,47.104C57.674,46.961,57.416,47.152,57.481,47.104z M58.146,48.653
				c0.84-0.268,1.148-0.742,1.65-0.1c0.193,0.238,0.156,0.857-0.292,0.709c0.12,0.043-1.366-0.098-1.091-0.259
				c-0.297,0.182-0.878,0.316-1.227,0.161C57.512,48.979,57.799,48.77,58.146,48.653C58.357,48.588,57.799,48.77,58.146,48.653z
				 M56.977,47.093c0.08,0.199,0.021,0.298-0.211,0.334C56.856,47.292,56.919,47.188,56.977,47.093z M45.064,65.206
				C44.678,65.191,45.361,65.191,45.064,65.206C45.019,65.204,45.102,65.204,45.064,65.206z M49.869,68.659
				C49.764,68.697,50.172,68.587,49.869,68.659C49.852,68.664,49.924,68.651,49.869,68.659z M61.603,72.536
				C61.402,72.505,61.841,72.555,61.603,72.536C61.586,72.536,61.637,72.542,61.603,72.536z M63.525,106.927
				C63.195,106.871,63.705,106.669,63.525,106.927C63.446,106.918,63.529,106.918,63.525,106.927z M64.377,89.724
				C64.26,89.603,64.453,89.79,64.377,89.724C64.365,89.71,64.406,89.742,64.377,89.724z M64.515,100.44
				C64.299,100.515,64.743,100.358,64.515,100.44C64.459,100.46,64.544,100.429,64.515,100.44z M65.644,111.994
				c-0.15-0.088-0.15-0.141-0.007-0.17C65.803,111.892,65.805,111.95,65.644,111.994C65.58,111.985,65.697,112.004,65.644,111.994z
				 M67.141,112.645c-0.154-0.028-0.143-0.091,0.047-0.179C67.317,112.52,67.303,112.582,67.141,112.645
				C67.074,112.645,67.18,112.632,67.141,112.645z M63.97,108.379c-0.016,0.009-0.036,0.013-0.054,0.019
				C63.968,108.362,63.979,108.353,63.97,108.379z M67.685,39.31c0,0-0.002,0-0.004,0c0.002,0,0.002-0.004,0.002-0.004L67.685,39.31
				z M53.59,45.995C53.59,46,53.586,46,53.586,46L53.59,45.995z M53.981,45.667L53.981,45.667L53.981,45.667z M119.819,71.306
				l0.005,0.004c-0.811-2.987-1.417-5.943-2.655-8.844c-1.474-3.441-3.402-6.683-5.739-9.604c-2.203-2.76-4.756-5.234-7.582-7.346
				c-1.377-1.03-2.808-1.97-4.306-2.822c-0.711-0.411-1.439-0.797-2.177-1.165c-0.322-0.151-1.453-0.447-1.622-0.723
				c0.009,0.126,0.657,0.453,0.747,0.539c-0.438-0.115-1.604-0.606-1.617-0.682c0.025-0.051,0.121,0,0.106-0.086
				c-0.653-0.418-3.102-1.321-3.593-0.652c0.107-0.132,1.689,1.697,1.729,2.022c0.107,0.714,1.221,1.47,1.932,1.701
				c0.988,0.331,0.246-0.114,0.659-0.344c0.276-0.134,0.523,0.452,0.774,0.318c-0.006-0.006,0-0.012,0.01-0.018
				c-0.07-0.138-0.15-0.272-0.23-0.407c-0.07,0,1.793,1.92,2.027,1.502c-0.223-0.521-0.553-1.111-1.086-1.601
				c-0.465-0.438-1.203-0.476-1.708-0.918c-0.257-0.222-1.204-0.917-1.306-1.235c1.252,0.041,2.695,2.69,3.949,1.663
				c-0.174-0.119-0.345-0.248-0.508-0.384c0.232,0.064,1.278,0.402,0.93,0.842c-1.002-0.177,0.842,0.839,0.872,0.953
				c-0.183-0.013-0.306-0.159-0.477-0.172c0.073,0.348,1.058,0.705,1.129,1.297c-0.59,0.093-0.335-0.358-0.725,0.125
				c-0.124,0.155-0.655,0.107-0.944,0.128c-0.687,0.053-1.455-1.11-1.953-1.468c0.21,0.649,0.57,0.963,1.294,1.42
				c0.349,0.199-0.492,0.287-0.481,0.58c0.025,0,0.232,0.104,0.223,0.159c0,0.036-0.19-0.131-0.223-0.159
				c0.069-0.044-0.12,1.143-0.137,1.125c0.567,0.655-0.754,0.463-0.779,0.486c0.104,0.151,0.312,0.228,0.355,0.442
				c-0.379,0.022-0.691-0.035-1.062,0.102c0.539,0.157,3.518,1.533,2.865,2.571c-0.21,0.335-2.222-0.084-2.6-0.1
				c-0.777-0.053-0.051,0.745-0.031,0.837c0.125,0.593,0.582,0.851,0.543,1.546c-0.037,0.488,0.466,0.505,0.619,0.915
				c0.137,0.36,0.057,0.391,0.43,0.445c0.664,0.085,0.682-0.019,1.244,0.417c0.395,0.311,0.547-0.289,1.02-0.309
				c1.184-0.049,0.177-0.288,0.741-0.448c0.697-0.194-0.194-1.289-0.153-1.501c0.055-0.288-0.043-0.611,0.341-0.717
				c0.597-0.159-0.157-0.782-0.198-0.946c-0.119-0.493,1.646,0.419,1.434-0.827c1.017,0.32,2.062,1.237,3.001,1.764
				c0.551,0.334,1.1,0.652,1.509,1.176c0.476,0.624-0.691,0.372-0.766,0.549c-0.071,0.197,1.03,0.695,1.209,0.685
				c0.025-0.109-0.135-0.749-0.151-0.855c-0.051-0.441-0.69-0.877-0.644-1.229c0.199,0.021,0.383,0.102,0.544,0.226
				c-0.597-0.733-1.56-0.804-2.236-1.344c-0.407-0.335-0.921-0.605-1.321-0.949c-0.002-0.004-0.718-0.917-0.218-0.743
				c0.794,0.276,1.655,1.078,2.464,1.499c0.641,0.336,0.801,0.542,1.272,1.093c0.188,0.216,1.174,1.365,1.394,1.401
				c-0.01-0.013,0.805,0.718,1.133,0.828c-0.146-0.331-0.271-0.75-0.441-1.014c-0.225-0.362-1.146-0.566-1.146-1.104
				c0.212,0.017,0.235-0.202,0.682-0.186c-0.236-0.01,0.291-0.35,0.262-0.302c-0.863-0.489-2.018-1.928-2.334-2.9
				c0.236,0.014,0.367,0.326,0.628,0.164c-0.088-0.164-0.108-0.336-0.088-0.515c0.067,0.074,0.882,0.774,0.72,0.912
				c-0.231-0.006-0.418-0.105-0.586-0.281c0.119,0.409,0.525,0.416,0.693,0.698c0.016-0.111-0.061-0.206,0.039-0.33
				c0.708,0.298,2.16,1.427,2.355,2.224c-0.312,0.031-0.911-0.632-1.119-0.471c-0.067,0.162-0.06,0.321,0.03,0.476
				c-0.092,0.006-0.176,0.026-0.26,0.074c0.115,0.087,0.176,0.208,0.195,0.353c-0.115,0.037-0.229,0.07-0.35,0.103
				c0.095,0.4,2.201,2.408,2.352,2.204c0.041-0.071-0.088-0.274-0.059-0.307c0.111-0.126,0.443,0.454,0.621,0.34
				c0.137-0.089-0.142-0.272,0.012-0.35c0.319-0.163,1.578,2.309,1.738,2.599c0.605,1.145,0.204,0.448-0.257,0.607
				c-0.069,0.119-0.117,0.239-0.132,0.376c-0.732-0.168-1.539-0.593-2.134-1.021c-0.957-0.687,0.302,1.868-0.245,1.549
				c-0.324-0.185-0.517-0.458-0.917-0.49c-0.579-0.057-0.741-0.678-1.273-0.855c-0.435-0.147-2.153-0.3-1.931-1.089
				c0.18-0.671-0.681-1.228-0.971-1.487c-0.146-0.132-2.053,0.115-2.358,0.21c-0.525,0.167-1.354,0.339-1.65,0.827
				c-0.502,0.914-1.664-0.289-2.135-0.098c-0.245,0.096-0.007,0.849-0.136,1.084c-0.188,0.36-0.655,0.386-0.771,0.808
				c-0.203,0.78,0.389,1.418,0.116,2.134c-0.215,0.568-1.313,0.813-1.329,1.283c-0.006,0.248-0.055,0.526-0.287,0.659
				c-0.501,0.288,0.01,0.944-0.297,1.271c-1.693,1.719,0.541,3.401,0.16,5.288c-0.22,1.068-0.345,1.289,0.114,2.207
				c0.108,0.232,0.027,1.892,0.87,1.219c0.102,0.97,1.35,1.167,1.572,2.086c0.264,1.093,1.336,1.572,2.163,2.224
				c0.333,0.258,0.618,0.597,1.006,0.791c0.683,0.351,1.139-0.186,1.793-0.37c0.593-0.169,1.206-0.11,1.763,0.155
				c0.316,0.151,2.696-1.535,3.344-1.213c0.473,0.235,0.496,0.81,0.713,1.222c0.312,0.582,0.971-0.18,1.407,0.019
				c0.78,0.347,1.013,3.2,0.353,3.725c-0.495,0.366,0.637,1.924,0.789,2.243c0.449,0.883,0.85,2.422,0.711,3.4
				c-0.111,0.791,0.105,2.045-0.345,2.743c-0.454,0.702-0.716,1.441-1.079,2.236c-0.94,2.035-0.041,4.339-0.848,6.453
				c-0.49,1.08-0.401,2.235-0.666,3.367c-0.176,0.729-1.057,1.782-0.711,2.541c0.526-0.479,1.318-0.417,1.912-0.716
				c1.232-0.606,1.817-2.021,2.707-2.968c0.479-0.501,0.775-1.129,1.057-1.746c0.27-0.586,0.811-0.963,1.065-1.537
				c0.626-1.448,1.192-2.895,1.819-4.342c1.315-3.13,1.532-6.133,1.99-9.482C120.477,78.22,120.488,74.849,119.819,71.306z
				 M116.69,63.064c-0.169-0.417-2.378-3.659-2.12-3.838c0.296-0.185,5.02,8.18,4.508,9.478
				C118.354,66.796,117.496,64.941,116.69,63.064C116.681,63.045,116.85,63.448,116.69,63.064z M118.716,77.869
				c-0.089-0.231,0.032-0.432,0.097-0.704C118.912,77.452,118.755,77.651,118.716,77.869z M118.471,79.186
				c-0.012-0.146-0.014-0.258,0.074-0.36C118.611,78.964,118.549,79.063,118.471,79.186z M117.679,89.926
				c-0.079,0.028-0.167,0.058-0.253,0.086c-0.15,0,0.28-0.207,0.304-0.223C117.704,89.865,117.704,89.896,117.679,89.926
				C117.621,90.017,117.704,89.896,117.679,89.926z M117.798,85.561c-0.004-0.395,0.018-0.414,0.416-0.667
				C118.133,85.17,117.85,85.301,117.798,85.561z M118.248,83.53c-0.01-0.727-0.025-1.584,0.132-2.291
				c0.027,1.235,0.091,2.485,0.049,3.723C118.233,84.702,118.248,83.844,118.248,83.53C118.245,83.266,118.248,83.782,118.248,83.53
				z M118.897,85.854c-0.014,0.667-0.105,2.477-0.543,2.993c0.041-1.124,0.456-2.144,0.477-3.257
				C118.924,85.694,118.897,85.776,118.897,85.854C118.897,85.928,118.897,85.776,118.897,85.854z M119.417,79.073
				c-0.19,0.795-0.005,1.042-0.475,1.485c-0.006-0.594-0.222-1.723,0.387-2.074C119.405,78.679,119.477,78.835,119.417,79.073
				C119.338,79.398,119.477,78.835,119.417,79.073z M93.365,117.615c0.065,0.117-5.213,1.608-5.756,1.725
				c-2.195,0.461-4.422,0.749-6.668,0.86c-4.263,0.211-8.721-0.183-12.818-1.426c0.527,0.057,1.162,0.332,1.701,0.246
				c-0.514-0.317-1.145-0.209-1.6-0.608c1.709,0.28,3.342,0.147,4.906,0.351c-0.163-0.217-1.592-0.56-1.584-0.71
				c0.203-0.02,1.305-0.052,1.347-0.084c0.521-0.402-0.821-0.353-0.704-0.644c0.04-0.074,0.408,0.05,0.537-0.118
				c0.204-0.276,0-0.413,0.077-0.554c0.061-0.119,2.126-0.48,2.345-0.38c-0.24,0.142-0.525-0.027-0.416,0.377
				c-0.214-0.029-0.854-0.01-0.891,0.27c0.016-0.067,0.7,0.889,0.726,0.933c0.235,0.373,1.066,0.601,1.135,1.047
				c0.138,0.751,4.067,0.677,4.656,0.611c1.468-0.168,2.843-0.691,4.287-0.943c0.862-0.151,1.718-0.395,2.591-0.478
				c0.404-0.042,1.757-0.514,2.064-0.404C89.503,118.384,92.639,117.473,93.365,117.615
				C93.373,117.629,93.248,117.592,93.365,117.615z M117.269,94.707c0.169-0.425,0.306-0.867,0.514-1.279
				C117.65,93.873,117.461,94.285,117.269,94.707z M117.957,92.987c0.02-0.051,0.043-0.106,0.062-0.156
				C118.023,92.896,117.982,92.938,117.957,92.987z M72.57,38.659c-0.221-0.034-0.459-0.007-0.693-0.044
				c0.123-0.111,0.822-0.137,0.512-0.329c0.962-0.588,2.961-0.707,4.062-0.576c1.236,0.153,2.473-0.229,3.688-0.038
				c0.493,0.08,0.922,0.092,1.41,0.122c0.426,0.052-0.061,0.491,0.426,0.563c0.292,0.034,0.864,0.687,1.127,0.546
				c-0.014,0.453-0.217,0.14-0.074,0.562c0.033,0.097,0.542,0.382,0.521,0.419c-0.049,0.067-1.428-0.033-1.363-0.014
				c-0.109-0.019,0.023,0.212,0.11,0.178c0.276,0.071,0.874-0.018,1.172,0.004c-0.694,0.63-1.736,0.555-2.509,1.058
				c-0.473,0.312-1.184,0.283-1.701,0.472c0,0.53-0.401,1.175-0.753,1.722c-0.247,0.379-2.005-0.496-2.183-0.719
				c-0.384-0.46-1.258-1.664-0.311-2.042c1.15-0.456,0.006-0.083-0.331-0.329c0.272-0.387,0.576-0.255,1.017-0.194
				c-0.223-0.308-0.503-0.384-0.836-0.224c-0.108-0.331,0.477-0.63-0.037-0.982c-0.225-0.155-1.439,0.026-1.473-0.188
				c-0.076-0.527,1.476-0.247,1.748-0.681C74.941,37.702,73.699,38.833,72.57,38.659C72.35,38.625,72.775,38.692,72.57,38.659z
				 M94.417,46.574c0.187-0.02-0.235-0.615-0.346-0.735c0.128,0.012,0.239,0.026,0.366-0.053c-0.092-0.269-1.309-0.968-1.389-0.919
				c-0.459,0.288-1.031-0.99-1.088-1.166c0.78-0.104,1.266,0.729,1.97,1.076c0.602,0.291,2.771,1.321,2.831,1.975
				c0.051,0.329-1.639,0.189-1.889,0.577c-0.189-0.479,0.424-0.473,0.41-0.625C95.258,46.594,94.505,46.563,94.417,46.574
				C94.373,46.582,94.678,46.535,94.417,46.574z M72.309,47.185c-0.119,0.082-1.589,1.471-1.552,1.606
				c0.03,0.125,1.523,0.037,1.784,0.181c-0.02,0.168-0.222,0.083-0.257,0.232c0.197,0,0.8-0.377,0.896-0.265
				c0.016,0.095,0,0.188-0.049,0.274c0.666,0.65,0.598-0.766,0.635-0.836c-0.465-0.067,0.1-0.718-0.685-0.44
				c0.051-0.021-0.849-0.27-0.8-0.217c-0.071-0.066,0.637-0.688,0.691-0.766C72.557,46.851,72.502,47.033,72.309,47.185
				C72.057,47.368,72.358,47.14,72.309,47.185z M73.756,48.721C73.812,48.773,73.652,48.773,73.756,48.721
				C73.766,48.73,73.734,48.728,73.756,48.721z M73.421,48.687c0.044-0.051,0.292-0.155,0.14-0.011
				C73.507,48.77,73.289,48.838,73.421,48.687C73.437,48.667,73.394,48.721,73.421,48.687z M72.385,46.993l0.004-0.003
				c0,0.003,0,0.01,0.008,0.018C72.389,47,72.389,47,72.385,46.993z M71.06,48.324c0.039,0,0.069,0,0.103,0.03
				C71.126,48.354,70.963,48.347,71.06,48.324C71.1,48.324,71.031,48.329,71.06,48.324z M56.658,65.634
				c-0.403,0.044,0.263-0.315,0.207-0.446c-0.275-0.63-2.154-0.77-2.33-1.273c0.083-0.035,0.139-0.09,0.163-0.17
				c-0.645-0.265-0.974,0.524-1.558,0.472c1.211-2.05,4.212,0.297,5.42,1.244C57.926,65.54,57.291,65.546,56.658,65.634
				C56.609,65.638,57.006,65.586,56.658,65.634z M58.225,66.727c-0.301-0.132,0.995-0.12,1.172-0.189
				c-0.258-0.395-0.023-0.61-0.525-0.764c0.457-0.554,1.964,0.093,2.443,0.302c-0.039,0.071-0.132,0.007-0.178,0.095
				c0.037,0.029,1.033,0.854,0.361,0.576c-0.731-0.312-1.139,0.125-1.658,0.413C59.434,66.58,58.766,66.983,58.225,66.727
				C58.164,66.702,58.348,66.786,58.225,66.727z M93.36,45.734c0.707,0.731-0.384,1.292-0.88,0.826
				c-0.241-0.249-0.099-0.84-0.661-1.012c0.149-0.049,0.302-0.096,0.449-0.148C91.887,44.498,93.184,45.547,93.36,45.734
				C93.519,45.9,93.312,45.679,93.36,45.734z M84.174,41.3c-0.041-0.147,1.014-0.081,1.189-0.113
				c0.282-0.05,2.387,0.159,1.648,0.499c-0.574,0.257-1.414,0.551-1.959,0.054C84.916,41.624,84.182,41.331,84.174,41.3
				C84.144,41.2,84.213,41.44,84.174,41.3z M103.389,51.728c0.244,0,0.844,0.946,0.74,1.097c-0.279,0.447-0.749-0.683-1.043-0.856
				C103.189,51.896,103.291,51.817,103.389,51.728z M70.551,38.948c0.713-0.54,0.879-0.234,1.773-0.145
				C72.039,39.065,71.352,39.12,70.551,38.948C70.747,38.799,71.352,39.12,70.551,38.948z M86.389,38.332
				c-0.529-0.148-1.084-0.173-1.6-0.376c0.619-0.067,1.361,0.171,1.789,0.292C86.726,38.294,86.352,38.317,86.389,38.332
				C85.859,38.184,86.441,38.341,86.389,38.332z M84.789,37.956c-0.051,0.011-0.115,0.014-0.171,0.021
				C84.674,37.918,84.736,37.912,84.789,37.956C84.738,37.967,84.766,37.949,84.789,37.956z M56.822,66.761
				c0.118,0.01,0.178,0.071,0.201,0.18c-0.072,0.298-1.008-0.123-1.109-0.257C56.24,66.499,56.539,66.607,56.822,66.761z
				 M63.508,66.741C63.017,67.946,61.771,65.895,63.508,66.741C63.431,66.913,63.213,66.595,63.508,66.741z M65.434,72.607
				L65.434,72.607c0.014-0.034,0.043-0.049,0.092-0.053C65.494,72.574,65.473,72.585,65.434,72.607z M65.603,72.574
				c-0.023-0.01,0.133-0.496,0.449-0.519C66.426,72.289,65.789,72.596,65.603,72.574C65.578,72.564,66.014,72.623,65.603,72.574z
				 M69.532,38.692c-0.331,0.22-0.729,0.072-1.071,0.199C68.94,38.564,69.154,38.59,69.532,38.692
				C69.201,38.912,69.473,38.674,69.532,38.692z M57.06,63.021c-0.13-0.493-0.317-0.504,0.014-0.936
				C57.203,62.547,57.203,62.826,57.06,63.021C57.006,62.821,57.203,62.826,57.06,63.021z M48.065,80.183
				c-0.01,0.18-0.096,0.25-0.267,0.186c-0.059-0.049-0.09-0.651,0.02-0.775C47.898,79.79,47.988,79.979,48.065,80.183
				C48.1,80.265,47.988,79.979,48.065,80.183z M68.863,47.724c0.387-0.009,0.699,0.109,1.039,0.364
				C69.445,48.177,69.154,48,68.863,47.724z M103.231,51.56l0.005,0.004c-0.113-0.037-0.787-0.446-0.515-0.666
				C102.921,50.756,103.203,51.488,103.231,51.56z M110.195,55.026c-0.128-0.139-0.398-0.045-0.473-0.318
				c0.233,0.124,0.492,0.061,0.718,0.239C110.359,55.012,110.273,55.095,110.195,55.026
				C110.067,54.888,110.273,55.095,110.195,55.026z M70.121,38.919c-0.07-0.097-0.188-0.033-0.256-0.12
				c0.19-0.21,0.455-0.14,0.688-0.203C70.541,38.625,70.264,39.133,70.121,38.919C70.051,38.822,70.155,38.984,70.121,38.919z
				 M68.954,39.178c-0.304,0.229-0.622,0.459-1.051,0.418C68.189,39.296,68.579,39.253,68.954,39.178z M68.85,49.449
				c0.084,0.017,0.171-0.004,0.305-0.016c-0.408,0.498-0.883-0.199-0.783-0.228C68.299,49.224,68.822,49.447,68.85,49.449
				C68.934,49.466,68.687,49.423,68.85,49.449z M69.02,39.376c0.284-0.229,0.618-0.269,0.974-0.243
				C69.689,39.31,69.379,39.407,69.02,39.376z M101.49,52.724c-0.323-0.045,0.614-0.345,0.276,0.089
				C101.667,52.804,101.574,52.775,101.49,52.724C101.441,52.716,101.598,52.731,101.49,52.724z M111.857,55.091
				c-0.197-0.094-0.273-0.225-0.219-0.457C111.803,54.754,111.873,54.885,111.857,55.091z M69.731,40.883
				c0.118-0.211,0.247-0.266,0.653-0.261C70.183,40.852,69.965,40.893,69.731,40.883z M66.733,42.274
				c-0.233,0.128-0.412,0.222-0.667,0.205C66.245,42.274,66.453,42.281,66.733,42.274z M91.644,43.985
				c-0.048,0.09-0.002,0.153,0.062,0.219c-0.071-0.034-0.36-0.398-0.14-0.453C91.669,43.798,91.696,43.872,91.644,43.985
				C91.596,44.075,91.679,43.931,91.644,43.985z M54.111,64.31c-0.012,0.145-0.083,0.214-0.213,0.211
				C53.832,64.398,54.046,64.055,54.111,64.31C54.129,64.394,54.093,64.257,54.111,64.31z M68.082,107.408
				c0.107,0.04,0.17,0.126,0.184,0.243C68.266,108.014,67.613,107.453,68.082,107.408C68.15,107.4,67.977,107.416,68.082,107.408z
				 M67.141,42.488c-0.08,0.119-0.186,0.179-0.363,0.238C66.868,42.532,66.994,42.499,67.141,42.488z M48.367,80.118
				C48.336,80.535,48.248,79.718,48.367,80.118C48.365,80.173,48.355,80.075,48.367,80.118z M69.912,43.179
				c0.01-0.007,0.035,0.005,0.051,0.013C69.912,43.221,69.824,43.221,69.912,43.179z M68.056,39.222
				c-0.046,0.009-0.097,0.013-0.144,0.019C67.953,39.208,68.007,39.204,68.056,39.222z M67.894,39.25
				c-0.034,0,0.01-0.009,0.019-0.009C67.903,39.242,67.896,39.242,67.894,39.25z M67.689,39.306l-0.004,0.004
				C67.684,39.306,67.685,39.306,67.689,39.306z M67.689,39.306c0.051-0.065,0.123-0.052,0.192-0.056
				C67.828,39.32,67.769,39.331,67.689,39.306z M69.012,39.376h0.009C69.019,39.383,69.012,39.386,69.012,39.376z M69.012,39.383
				c-0.014,0.071-0.071,0.062-0.127,0.062C68.908,39.383,68.954,39.373,69.012,39.383z M53.74,81.895
				C53.647,81.825,53.801,81.946,53.74,81.895C53.707,81.866,53.789,81.935,53.74,81.895z M98.127,42.634
				C98.382,42.706,98.141,42.689,98.127,42.634C98.127,42.634,98.137,42.678,98.127,42.634z M91.711,44.211
				c-0.002-0.002-0.002-0.007-0.005-0.007c0.025,0.005,0.03,0.02,0.025,0.054C91.727,44.239,91.72,44.224,91.711,44.211
				C91.709,44.209,91.72,44.224,91.711,44.211z M68.875,39.445c0.006,0,0.006,0,0.01,0c0,0.006-0.004,0.006-0.012,0.002
				C68.873,39.447,68.875,39.447,68.875,39.445z M68.797,39.465c0.025-0.012,0.053-0.012,0.076-0.018
				C68.84,39.503,68.81,39.509,68.797,39.465C68.822,39.453,68.801,39.471,68.797,39.465z M106.606,52.287v-0.002l0.005,0.004
				L106.606,52.287z M73.666,79.046C73.537,78.943,73.76,78.968,73.666,79.046C73.652,79.037,73.699,79.02,73.666,79.046z
				 M93.394,117.605c-0.011,0.008-0.016,0.008-0.028,0.008c0.008-0.021,0.013-0.034,0.028-0.025
				C93.394,117.588,93.394,117.603,93.394,117.605z M93.365,117.615c0-0.002-0.005-0.002,0-0.002V117.615z M60.213,49.665
				c0.023-0.007,0.41-0.047,0.273,0.104C60.338,49.846,60.25,49.807,60.213,49.665C60.262,49.658,60.218,49.749,60.213,49.665z
				 M57.795,46.291c-0.111-0.075-0.086-0.149,0.068-0.229C57.998,46.11,57.973,46.19,57.795,46.291
				C57.738,46.286,57.878,46.264,57.795,46.291z"/>
			<path fill="#242D3C" d="M103.086,51.968c0.104-0.071,0.205-0.15,0.303-0.24c0.244,0,0.844,0.946,0.74,1.097
				C103.85,53.271,103.38,52.141,103.086,51.968z M102.722,50.898c-0.272,0.22,0.401,0.629,0.515,0.666l-0.005-0.004
				C103.203,51.488,102.921,50.756,102.722,50.898z M69.285,113.439c-0.982-0.206-2.396-0.068-3.225-0.939
				c-0.508-0.543-1.248-1.181-1.726-1.878c-0.244-0.344,0.397-0.775-0.244-0.916c-0.404-0.095-0.242,0.141-0.275-0.351
				c-0.051-0.838-0.471-1.014,0.182-0.794c-0.049-0.016,0.094-1.718-0.631-1.312c0.612,0.612-0.064,0.808-0.061,0.654
				c0-0.514-0.588-2.051-0.883-2.692c1.842,0.277,3.725,0.422,5.638,0.422c0.128,0,0.239-0.007,0.367-0.009
				c-0.042,0.002-0.072,0.003-0.101,0.003c-0.035,0.245,0.389,0.832,0.297,1.05c-0.236,0.603-1.186-0.214-1.406,0.014
				c-0.176,0.194,0.557,1.102,0.665,1.146c-0.069,0.142-0.261,1.035-0.296,1.035c-0.369-0.049-0.736,0.452-0.348,0.733
				c0.28,0.194,0.577,0.164,0.844,0.32c0.568,0.331-0.482,0.696-0.27,1.083c0.313,0.56-0.738,0.283,0.247,1.172
				c-1.425,0.047-0.006,0.815-0.006,0.818c-0.167-0.104-0.101-0.03,0.054-0.259c-0.112-0.08-0.35,0.061-0.422-0.095
				c-0.271-0.641,1.012,0.139,0.977,0.123c0.392,0.237,1.06,0.264,1.366,0.515c-0.126,0.035-0.562,0.186-0.737,0.156
				C69.248,113.43,69.179,113.416,69.285,113.439z M63.508,106.921c-0.02-0.001-0.026,0,0.018,0.006
				C63.699,106.676,63.234,106.86,63.508,106.921z M65.637,111.824c-0.143,0.029-0.143,0.082,0.007,0.17
				c-0.063-0.009,0.054,0.01,0,0C65.805,111.95,65.803,111.892,65.637,111.824z M67.187,112.466c-0.18,0.086-0.197,0.144-0.06,0.177
				c-0.01,0-0.014,0.002,0.014,0.002C67.303,112.582,67.317,112.52,67.187,112.466z M67.127,112.643
				c0.002,0,0.004,0.002,0.014,0.002C67.164,112.637,67.141,112.637,67.127,112.643z M63.916,108.398
				c0.018-0.006,0.038-0.01,0.054-0.019C63.979,108.353,63.968,108.362,63.916,108.398z M69.291,113.439c0,0-0.002,0-0.006,0
				C69.338,113.448,69.322,113.445,69.291,113.439z M96.252,42.599c0.611,0.686,1.197,1.392,1.76,2.119
				c0.129,0.058,0.231,0.061,0.275-0.017c-0.223-0.521-0.553-1.111-1.086-1.601C96.943,42.854,96.593,42.733,96.252,42.599z
				 M98.127,42.634C98.141,42.689,98.382,42.706,98.127,42.634L98.127,42.634z M110.201,55.026h-0.006
				C110.219,55.047,110.215,55.037,110.201,55.026z M118.897,85.854c0-0.001,0-0.005,0-0.007
				C118.897,85.832,118.897,85.821,118.897,85.854z M118.516,66.359c0.209,0.734,0.403,1.468,0.594,2.205
				C119.158,68.143,118.912,67.335,118.516,66.359z M119.407,79.105c0.005-0.012,0.005-0.021,0.01-0.032
				C119.377,79.237,119.394,79.175,119.407,79.105z M111.639,54.634c-0.055,0.232,0.021,0.363,0.219,0.457
				C111.873,54.885,111.803,54.754,111.639,54.634z M106.606,52.286v0.002l0.005,0.003L106.606,52.286z M110.44,54.948
				c-0.226-0.179-0.484-0.115-0.718-0.239c0.074,0.273,0.345,0.179,0.473,0.318c-0.094-0.096-0.023-0.029,0.006,0
				C110.277,55.091,110.361,55.012,110.44,54.948z M119.99,81.773c-0.458,3.349-0.675,6.352-1.99,9.482
				c-0.627,1.447-1.193,2.894-1.819,4.342c-0.255,0.574-0.796,0.95-1.065,1.537c-0.281,0.617-0.578,1.245-1.057,1.746
				c-0.89,0.947-1.475,2.362-2.707,2.968c-0.594,0.299-1.386,0.237-1.912,0.716c-0.346-0.76,0.535-1.812,0.711-2.541
				c0.265-1.131,0.176-2.287,0.666-3.367c0.807-2.114-0.092-4.418,0.848-6.453c0.363-0.796,0.625-1.535,1.079-2.236
				c0.45-0.698,0.233-1.952,0.345-2.743c0.14-0.978-0.262-2.517-0.711-3.4c-0.152-0.319-1.284-1.877-0.789-2.243
				c0.66-0.525,0.428-3.378-0.353-3.725c-0.437-0.199-1.095,0.563-1.407-0.019c-0.217-0.413-0.24-0.987-0.713-1.222
				c-0.647-0.321-3.027,1.365-3.344,1.213c-0.223-0.105-0.457-0.168-0.695-0.205c0.535-2.521,0.814-5.134,0.814-7.808
				c0-4.82-0.909-9.416-2.548-13.654c0.671-0.101,1.727-0.209,1.835-0.113c0.29,0.259,1.15,0.816,0.971,1.487
				c-0.223,0.789,1.495,0.942,1.931,1.089c0.532,0.177,0.694,0.798,1.273,0.855c0.4,0.033,0.593,0.305,0.917,0.49
				c0.547,0.319-0.712-2.235,0.245-1.549c0.595,0.428,1.401,0.852,2.134,1.021c0.015-0.137,0.062-0.258,0.132-0.376
				c0.461-0.159,0.862,0.538,0.257-0.607c-0.16-0.291-1.419-2.762-1.738-2.599c-0.153,0.077,0.125,0.26-0.012,0.35
				c-0.178,0.114-0.51-0.466-0.621-0.34c-0.029,0.032,0.1,0.235,0.059,0.307c-0.15,0.205-2.257-1.804-2.352-2.204
				c0.121-0.033,0.234-0.066,0.35-0.103c-0.02-0.144-0.08-0.265-0.195-0.353c0.084-0.048,0.168-0.068,0.26-0.074
				c-0.09-0.155-0.098-0.314-0.03-0.476c0.208-0.161,0.808,0.501,1.119,0.471c-0.194-0.797-1.647-1.925-2.355-2.224
				c-0.1,0.125-0.023,0.22-0.039,0.33c-0.168-0.282-0.574-0.289-0.693-0.698c0.168,0.176,0.354,0.275,0.586,0.281
				c0.162-0.138-0.652-0.838-0.72-0.912c-0.021,0.179,0,0.351,0.088,0.515c-0.261,0.162-0.392-0.15-0.628-0.164
				c0.316,0.972,1.471,2.411,2.334,2.9c0.029-0.048-0.498,0.292-0.262,0.302c-0.446-0.016-0.47,0.203-0.682,0.186
				c0,0.538,0.922,0.742,1.146,1.104c0.17,0.264,0.295,0.683,0.441,1.014c-0.328-0.11-1.143-0.841-1.133-0.828
				c-0.22-0.037-1.206-1.185-1.394-1.401c-0.472-0.551-0.632-0.757-1.272-1.093c-0.809-0.42-1.67-1.223-2.464-1.499
				c-0.5-0.174,0.216,0.739,0.218,0.743c0.4,0.344,0.914,0.615,1.321,0.949c0.677,0.54,1.64,0.611,2.236,1.344
				c-0.161-0.124-0.345-0.205-0.544-0.226c-0.046,0.352,0.593,0.789,0.644,1.229c0.017,0.106,0.177,0.746,0.151,0.855
				c-0.179,0.01-1.28-0.488-1.209-0.685c0.074-0.177,1.242,0.075,0.766-0.549c-0.409-0.523-0.958-0.842-1.509-1.176
				c-0.939-0.526-1.984-1.444-3.001-1.764c0.059,0.331-0.029,0.505-0.178,0.599c-0.928-1.816-1.994-3.547-3.199-5.175
				c0.297-0.01,0.725,0.01,0.831-0.124c0.39-0.483,0.135-0.031,0.725-0.125c-0.071-0.592-1.056-0.95-1.129-1.297
				c0.171,0.013,0.294,0.159,0.477,0.172c-0.03-0.113-1.874-1.13-0.872-0.953c0.349-0.44-0.697-0.778-0.93-0.842
				c0.163,0.136,0.334,0.265,0.508,0.384c-0.993,0.81-2.102-0.667-3.137-1.347c-0.42-0.422-0.848-0.839-1.289-1.245
				c0.541,0.185,1.029,0.404,1.269,0.559c0.015,0.086-0.081,0.035-0.106,0.086c0.014,0.075,1.179,0.567,1.617,0.682
				c-0.09-0.086-0.738-0.413-0.747-0.539c0.169,0.276,1.3,0.572,1.622,0.723c0.738,0.368,1.466,0.754,2.177,1.165
				c1.498,0.852,2.929,1.792,4.306,2.822c2.826,2.112,5.379,4.586,7.582,7.346c2.337,2.921,4.266,6.163,5.739,9.604
				c0.546,1.289,0.974,2.588,1.347,3.893c-1.184-2.899-3.73-7.267-3.945-7.133c-0.258,0.179,1.951,3.421,2.12,3.838
				c-0.01-0.019,0.159,0.384,0,0c0.806,1.877,1.664,3.732,2.388,5.64c0.018-0.041,0.027-0.086,0.031-0.14
				c0.236,0.91,0.467,1.829,0.715,2.746l-0.005-0.004C120.488,74.849,120.477,78.22,119.99,81.773z M118.716,77.869
				c0.039-0.218,0.196-0.417,0.097-0.704C118.748,77.437,118.627,77.638,118.716,77.869z M118.471,79.186
				c0.078-0.122,0.141-0.222,0.074-0.36C118.457,78.928,118.459,79.04,118.471,79.186z M117.679,89.926
				c0.025-0.031,0.025-0.062,0.051-0.136c-0.023,0.016-0.454,0.223-0.304,0.223C117.512,89.984,117.6,89.954,117.679,89.926
				C117.621,90.017,117.704,89.896,117.679,89.926z M118.214,84.894c-0.398,0.253-0.42,0.272-0.416,0.667
				C117.85,85.301,118.133,85.17,118.214,84.894z M118.248,83.53c0,0.314-0.015,1.171,0.181,1.431
				c0.042-1.238-0.021-2.488-0.049-3.723C118.223,81.946,118.238,82.803,118.248,83.53C118.245,83.266,118.248,83.782,118.248,83.53
				z M118.831,85.59c-0.021,1.113-0.436,2.133-0.477,3.257c0.438-0.517,0.529-2.326,0.543-2.993c0,0.044,0,0.014,0-0.007
				C118.897,85.771,118.919,85.69,118.831,85.59z M119.417,79.073c0.06-0.238-0.012-0.394-0.088-0.588
				c-0.608,0.351-0.393,1.48-0.387,2.074c0.463-0.437,0.29-0.685,0.465-1.453C119.429,79.037,119.446,78.955,119.417,79.073z
				 M68.266,107.65c-0.014-0.117-0.076-0.203-0.184-0.243C67.613,107.453,68.266,108.014,68.266,107.65z M93.321,117.611
				c-0.79-0.107-3.821,0.763-4.021,0.073c-0.308-0.11-1.66,0.362-2.064,0.404c-0.873,0.083-1.729,0.327-2.591,0.478
				c-1.444,0.253-2.819,0.775-4.287,0.943c-0.589,0.065-4.519,0.14-4.656-0.611c-0.068-0.446-0.899-0.675-1.135-1.047
				c-0.025-0.044-0.71-0.999-0.726-0.933c0.037-0.279,0.677-0.298,0.891-0.27c-0.109-0.404,0.176-0.235,0.416-0.377
				c-0.219-0.1-2.284,0.262-2.345,0.38c-0.077,0.141,0.127,0.278-0.077,0.554c-0.129,0.168-0.497,0.044-0.537,0.118
				c-0.117,0.291,1.225,0.242,0.704,0.644c-0.042,0.032-1.144,0.064-1.347,0.084c-0.008,0.15,1.421,0.493,1.584,0.71
				c-1.564-0.204-3.197-0.071-4.906-0.351c0.455,0.399,1.086,0.291,1.6,0.608c-0.539,0.086-1.174-0.189-1.701-0.246
				c4.098,1.244,8.556,1.637,12.818,1.426c2.246-0.111,4.473-0.399,6.668-0.86c0.543-0.117,5.821-1.607,5.756-1.725
				C93.373,117.623,93.336,117.617,93.321,117.611z M93.321,117.611c0.015,0.004,0.035,0.004,0.044,0.004
				C93.314,117.605,93.314,117.608,93.321,117.611z M68.082,107.408C68.15,107.4,67.977,107.416,68.082,107.408L68.082,107.408z
				 M93.365,117.613c0.013,0,0.018,0,0.028-0.008c0-0.003,0-0.018,0-0.018C93.378,117.579,93.373,117.592,93.365,117.613z
				 M118.019,92.831c-0.019,0.05-0.043,0.105-0.062,0.156C117.982,92.938,118.023,92.896,118.019,92.831z M117.782,93.428
				c-0.208,0.412-0.345,0.854-0.514,1.279C117.461,94.285,117.65,93.873,117.782,93.428z"/>
		</g>
		<path fill="#FFFFFF" d="M22.187,146.084c-2.592,0.001-4.802-0.669-6.394-2.262c-3.805-3.804-2.694-11.954,3.212-23.568
			l1.783,0.906c-5.398,10.614-6.67,18.16-3.581,21.248c3.763,3.764,14.018,1.063,28.134-7.406
			c14.688-8.812,31.94-22.831,48.58-39.472c30.13-30.132,50.896-61.902,48.305-73.9l1.955-0.422
			c2.768,12.812-17.774,44.663-48.846,75.736c-16.752,16.753-34.142,30.878-48.965,39.772
			C38.573,141.395,29.046,146.084,22.187,146.084z"/>
		<g>
			<g>
				<path fill="#D9D8D7" d="M142.212,17.397c-0.596-0.596-1.31-1.08-2.122-1.439l-0.809,1.83c0.586,0.259,1.096,0.603,1.517,1.023
					L142.212,17.397z"/>
				<path fill="#D9D8D7" d="M140.772,31.959c0.476,0.626,0.933,1.267,1.389,1.908c1.961-5.178,2.702-9.5,2.02-12.659l-1.955,0.422
					C142.785,24.221,142.251,27.738,140.772,31.959z"/>
				<path fill="#D9D8D7" d="M135.503,17.169l-0.049-2c-1.339,0.033-2.837,0.239-4.454,0.614l0.451,1.949
					C132.936,17.388,134.3,17.198,135.503,17.169z"/>
				<path fill="#D9D8D7" d="M33.218,141.27c-7.816,3.259-13.436,3.714-16.011,1.138c-2.512-2.512-2.139-7.972,0.991-15.633
					c-0.473-0.597-0.95-1.189-1.405-1.801c-3.899,9.109-4.266,15.583-1,18.848c1.593,1.593,3.803,2.263,6.394,2.262
					c3.756,0,8.312-1.41,12.945-3.45C34.487,142.189,33.849,141.734,33.218,141.27z"/>
				<path fill="#D9D8D7" d="M127.114,18.018l-0.347-0.976c-0.195,0.069-0.404,0.155-0.604,0.229
					C126.483,17.516,126.799,17.767,127.114,18.018z"/>
			</g>
		</g>
	</g>
	<path fill="#FFFFFF" d="M116.225,127.692c-0.348,0-0.68,0.058-0.991,0.166c0.089-0.465,0.14-0.942,0.14-1.432
		c0-4.083-3.308-7.388-7.392-7.388c-4.081,0-7.392,3.307-7.392,7.388c0,0.056,0.005,0.108,0.005,0.162
		c-0.467-0.206-0.983-0.322-1.527-0.322c-2.091,0-3.779,1.691-3.779,3.777c0,2.085,1.692,3.776,3.779,3.776l17.157-0.001
		c1.691,0,3.063-1.371,3.063-3.064C119.288,129.064,117.916,127.692,116.225,127.692z"/>
	<path fill="#FFFFFF" d="M18.142,42.975c-0.012-0.203-0.02-0.404-0.02-0.606c0-5.46,4.432-9.89,9.891-9.89
		c5.188,0,9.438,3.992,9.854,9.075c0.513-0.159,1.054-0.245,1.619-0.245c1.45,0,2.767,0.567,3.75,1.49
		c1.086-1.58,2.91-2.618,4.976-2.618c3.204,0,5.827,2.499,6.021,5.659c0.288-0.084,0.59-0.128,0.9-0.128
		c1.809,0,3.271,1.466,3.273,3.273c0,1.807-1.467,3.272-3.273,3.272H18.711c-2.574,0-4.66-2.086-4.66-4.661
		C14.051,45.218,15.838,43.252,18.142,42.975z"/>
</g>
</svg>
