<?xml version="1.0" encoding="utf-8"?>
<!-- Generator: Adobe Illustrator 17.0.0, SVG Export Plug-In . SVG Version: 6.00 Build 0)  -->
<!DOCTYPE svg PUBLIC "-//W3C//DTD SVG 1.1//EN" "http://www.w3.org/Graphics/SVG/1.1/DTD/svg11.dtd">
<svg version="1.1" id="Isolation_Mode" xmlns="http://www.w3.org/2000/svg" xmlns:xlink="http://www.w3.org/1999/xlink" x="0px"
	 y="0px" width="134.5px" height="141.209px" viewBox="0 0 134.5 141.209" enable-background="new 0 0 134.5 141.209"
	 xml:space="preserve">
<circle fill="#ADECF7" cx="69.5" cy="76.209" r="65"/>
<g>
	<path fill="#FFFFFF" d="M120.716,125.581c0.244-1.118,0.382-2.276,0.382-3.468c0-8.941-7.251-16.188-16.189-16.188
		c-3.757,0-7.205,1.291-9.953,3.439c-0.854-2.55-3.257-4.39-6.093-4.39c-2.038,0-3.671,1.069-5.009,2.406
		c-1.786,1.787-5.322,0.156-5.883-0.213c-2.58-1.689-6.885-5.066-6.885-19.691l-0.02-2.854c0-1.589,0.67-2.376,1.568-2.534
		c1.031-0.183,1.863-0.95,1.863-2.014c0-0.004-0.001-0.009-0.001-0.012c1.939-0.068,3.493-1.649,3.493-3.605
		c0-1.996-1.617-3.615-3.617-3.615c-1.071,0-2.024,0.476-2.686,1.218c-0.191-0.504-0.674-0.864-1.243-0.864
		c-0.51,0-0.948,0.29-1.171,0.711c-0.345-0.631-1.006-1.065-1.775-1.065c-0.785,0-1.459,0.451-1.795,1.104
		c-0.366-0.167-0.769-0.266-1.199-0.266c-1.596,0-2.891,1.295-2.891,2.893c0,1.598,1.295,2.893,2.891,2.893
		c0.021,0,0.039-0.006,0.059-0.006c-0.023,0.094-0.059,0.182-0.059,0.281c0,0.565,0.387,1,0.885,1.198
		c0.502,0.2,0.826,0.741,0.826,1.325v9.986c0,5.709-0.715,9.668-2.638,12.401c-0.674,0.958-1.6,1.771-2.854,1.771
		c-0.992,0-1.89-0.45-2.468-1.158c0.008,0.014,0.013,0.027,0.021,0.042c-1.488-2.428-4.159-4.052-7.214-4.052
		c-2.803,0-5.277,1.365-6.82,3.463c-2.912-1.935-6.403-3.067-10.162-3.067c-10.161,0-18.4,8.237-18.4,18.399
		c0,10.162,8.239,18.4,18.4,18.4c4.062,0,7.802-1.332,10.846-3.559c0.316,3.542,3.29,6.318,6.915,6.318
		c3.837,0,6.947-3.11,6.947-6.947c0-0.399-0.041-0.789-0.105-1.171c1.427,0.685,3.018,1.079,4.704,1.079
		c2.974,0,5.663-1.191,7.631-3.12c-0.002,0.056-0.016,0.107-0.016,0.165c0,2.35,1.905,4.252,4.252,4.252
		c1.127,0,2.143-0.445,2.904-1.16c1.301,4.006,5.06,6.902,9.501,6.902c3.82,0,7.136-2.146,8.818-5.297
		c2.458,1.505,5.337,2.389,8.431,2.389c4.126,0,7.882-1.559,10.741-4.102c0.77,0.48,1.671,0.77,2.644,0.77
		c2.772,0,5.018-2.246,5.018-5.018C123.312,128.062,122.256,126.438,120.716,125.581z"/>
	<g>
		<g>
			<g>
				<path fill="#FFFFFF" d="M100.764,53.231c-0.635-0.64-1.475-0.958-2.311-0.958c-0.836,0-1.672,0.318-2.31,0.958
					c-0.641,0.637-0.957,1.476-0.957,2.312v12.314h6.537V55.542C101.723,54.707,101.405,53.868,100.764,53.231z"/>
				<rect x="95.186" y="67.856" fill="#353F49" width="6.537" height="3.051"/>
			</g>
			<path fill="#353F49" d="M78.575,35.952v31.904h16.611V59.25C86.01,59.25,78.575,48.819,78.575,35.952z"/>
		</g>
		<g>
			<g>
				<path fill="#FFFFFF" d="M42.858,53.231c-0.637-0.64-1.477-0.958-2.311-0.958c-0.838,0-1.674,0.318-2.311,0.958
					c-0.641,0.637-0.959,1.476-0.959,2.312v12.314h6.537V55.542C43.815,54.707,43.498,53.868,42.858,53.231z"/>
				<rect x="37.278" y="67.856" fill="#353F49" width="6.537" height="3.051"/>
			</g>
			<path fill="#353F49" d="M60.426,35.952v31.904H43.815V59.25C52.991,59.25,60.426,48.819,60.426,35.952z"/>
		</g>
		<g>
			<path fill="#FFFFFF" d="M69.5,0c-5.721,8.293-9.074,18.339-9.074,29.173v38.684h18.148V29.173C78.575,18.339,75.217,8.293,69.5,0
				z"/>
			<path fill="#353F49" d="M69.5,0c-2.197,3.188-4.043,6.636-5.484,10.285h10.967C73.541,6.636,71.696,3.188,69.5,0z"/>
			<rect x="60.426" y="61.753" fill="#D9D8D7" width="18.148" height="6.103"/>
			<polygon fill="#353F49" points="75.733,73.959 63.268,73.959 60.426,67.856 78.575,67.856 			"/>
		</g>
		<g>
			<circle fill="#D9D8D7" cx="69.501" cy="25.694" r="6"/>
			<circle fill="#353F49" cx="69.501" cy="25.694" r="4.2"/>
		</g>
	</g>
</g>
<g>
	<circle fill="#FFFFFF" cx="104.879" cy="85.992" r="4.433"/>
	<circle fill="#FFFFFF" cx="28.167" cy="45.299" r="2.85"/>
	<circle fill="#FFFFFF" cx="43.557" cy="81.16" r="1.9"/>
	<circle fill="#FFFFFF" cx="95.47" cy="9.746" r="1.34"/>
	<circle fill="#FFFFFF" cx="0" cy="105.334" r="1.173"/>
	<path fill="#FFFFFF" d="M123.827,58.326c-3.463,0-6.268,2.812-6.268,6.266c0-3.453-2.801-6.266-6.264-6.266
		c3.463,0,6.264-2.812,6.264-6.264C117.559,55.514,120.364,58.326,123.827,58.326z"/>
	<path fill="#FFFFFF" d="M103.931,38.463c-1.925,0-3.484,1.565-3.484,3.484c0-1.92-1.561-3.484-3.483-3.484
		c1.923,0,3.483-1.562,3.483-3.482C100.447,36.9,102.006,38.463,103.931,38.463z"/>
	<path fill="#FFFFFF" d="M122.782,84.811c-0.889,0-1.609,0.723-1.609,1.609c0-0.887-0.721-1.609-1.609-1.609
		c0.889,0,1.609-0.722,1.609-1.609C121.172,84.089,121.893,84.811,122.782,84.811z"/>
	<path fill="#FFFFFF" d="M23.002,76.21c-2.973,0-5.384,2.416-5.384,5.382c0-2.966-2.411-5.382-5.382-5.382
		c2.971,0,5.382-2.418,5.382-5.384C17.619,73.792,20.03,76.21,23.002,76.21z"/>
	<path fill="#FFFFFF" d="M25.07,22.352c-1.573,0-2.851,1.277-2.851,2.848c0-1.57-1.275-2.848-2.85-2.848
		c1.574,0,2.85-1.28,2.85-2.852C22.219,21.071,23.497,22.352,25.07,22.352z"/>
	<path fill="#FFFFFF" d="M134.129,107.026c-1.172,0-2.123,0.951-2.123,2.121c0-1.17-0.949-2.121-2.122-2.121
		c1.173,0,2.122-0.953,2.122-2.123C132.006,106.073,132.957,107.026,134.129,107.026z"/>
</g>
</svg>
