<?xml version="1.0" encoding="utf-8"?>
<!-- Generator: Adobe Illustrator 17.0.0, SVG Export Plug-In . SVG Version: 6.00 Build 0)  -->
<!DOCTYPE svg PUBLIC "-//W3C//DTD SVG 1.1//EN" "http://www.w3.org/Graphics/SVG/1.1/DTD/svg11.dtd">
<svg version="1.1" id="Isolation_Mode" xmlns="http://www.w3.org/2000/svg" xmlns:xlink="http://www.w3.org/1999/xlink" x="0px"
	 y="0px" width="130px" height="130px" viewBox="0 0 130 130" enable-background="new 0 0 130 130" xml:space="preserve">
<circle fill="#FFDB79" cx="65" cy="65" r="65"/>
<g>
	<g>
		<rect x="23" y="76.248" fill="#FFFFFF" width="84" height="49.105"/>
		<rect x="23" y="63.972" fill="#F77B55" width="84" height="12.276"/>
		<g>
			<rect x="34.354" y="87.604" fill="#F77B55" width="26.396" height="26.395"/>
			<g>
				<g>
					<path fill="#353F49" d="M95.646,113.999H60.749V87.604h34.897V113.999z M61.639,113.109h33.118V88.494H61.639V113.109z"/>
					<rect x="61.195" y="104.609" fill="#353F49" width="34.005" height="0.889"/>
					<rect x="61.195" y="96.103" fill="#353F49" width="34.005" height="0.89"/>
					<rect x="86.252" y="88.049" fill="#353F49" width="0.892" height="25.504"/>
					<rect x="77.751" y="88.049" fill="#353F49" width="0.89" height="25.504"/>
					<rect x="69.251" y="88.049" fill="#353F49" width="0.891" height="25.504"/>
				</g>
			</g>
		</g>
		<g>
			<path fill="#353F49" d="M31.509,68.102v-1.509c1.445,0,2.621-1.175,2.621-2.621c0-1.445-1.176-2.621-2.621-2.621
				c-1.445,0-2.621,1.175-2.621,2.621H27.38c0-2.277,1.853-4.129,4.129-4.129s4.129,1.853,4.129,4.129
				C35.638,66.249,33.785,68.102,31.509,68.102z"/>
			<path fill="#353F49" d="M44.903,68.102v-1.509c1.446,0,2.624-1.175,2.624-2.621c0-1.445-1.178-2.621-2.624-2.621
				c-1.445,0-2.621,1.175-2.621,2.621h-1.508c0-2.277,1.853-4.129,4.129-4.129c2.278,0,4.132,1.853,4.132,4.129
				C49.035,66.249,47.182,68.102,44.903,68.102z"/>
			<path fill="#353F49" d="M58.301,68.102v-1.509c1.446,0,2.623-1.175,2.623-2.621c0-1.445-1.177-2.621-2.623-2.621
				c-1.445,0-2.621,1.175-2.621,2.621h-1.508c0-2.277,1.853-4.129,4.129-4.129c2.278,0,4.131,1.853,4.131,4.129
				C62.432,66.249,60.579,68.102,58.301,68.102z"/>
			<path fill="#353F49" d="M71.699,68.102v-1.509c1.445,0,2.621-1.175,2.621-2.621c0-1.445-1.176-2.621-2.621-2.621
				c-1.446,0-2.623,1.175-2.623,2.621h-1.508c0-2.277,1.853-4.129,4.131-4.129c2.276,0,4.129,1.853,4.129,4.129
				C75.828,66.249,73.976,68.102,71.699,68.102z"/>
			<path fill="#353F49" d="M85.095,68.102v-1.509c1.445,0,2.621-1.175,2.621-2.621c0-1.445-1.176-2.621-2.621-2.621
				c-1.445,0-2.622,1.175-2.622,2.621h-1.508c0-2.277,1.853-4.129,4.13-4.129c2.276,0,4.129,1.853,4.129,4.129
				C89.224,66.249,87.371,68.102,85.095,68.102z"/>
			<path fill="#353F49" d="M98.491,68.102v-1.509c1.445,0,2.621-1.175,2.621-2.621c0-1.445-1.176-2.621-2.621-2.621
				c-1.446,0-2.623,1.175-2.623,2.621H94.36c0-2.277,1.853-4.129,4.131-4.129c2.276,0,4.129,1.853,4.129,4.129
				C102.62,66.249,100.768,68.102,98.491,68.102z"/>
		</g>
	</g>
	<g>
		<path fill="#353F49" d="M55.006,27.503c0,15.19-12.312,27.503-27.504,27.503C12.315,55.005,0,42.693,0,27.503
			C0,12.313,12.315,0,27.502,0C42.694,0,55.006,12.313,55.006,27.503z"/>
		<path fill="#FFFFFF" d="M50.148,27.503c0,12.508-10.134,22.649-22.646,22.649c-12.505,0-22.646-10.141-22.646-22.649
			c0-12.507,10.141-22.65,22.646-22.65C40.015,4.853,50.148,14.996,50.148,27.503z"/>
		<path fill="#E6E5E5" d="M27.502,50.152c12.513,0,22.646-10.141,22.646-22.649c0-0.001,0-0.002,0-0.003H27.502V50.152z"/>
		<g>
			<g>
				<path fill="#353F49" d="M28.066,7.722c0,0.312-0.253,0.563-0.564,0.563c-0.308,0-0.561-0.251-0.561-0.563
					c0-0.308,0.253-0.56,0.561-0.56C27.813,7.162,28.066,7.414,28.066,7.722z"/>
				<path fill="#353F49" d="M18.103,10.091c0.153,0.269,0.061,0.612-0.208,0.769c-0.268,0.154-0.612,0.061-0.765-0.209
					c-0.156-0.268-0.065-0.608,0.202-0.763C17.604,9.732,17.947,9.823,18.103,10.091z"/>
				<path fill="#353F49" d="M10.658,17.124c0.269,0.159,0.359,0.5,0.202,0.771c-0.153,0.266-0.494,0.358-0.767,0.201
					c-0.265-0.153-0.358-0.494-0.203-0.76C10.047,17.062,10.39,16.971,10.658,17.124z"/>
				<path fill="#353F49" d="M7.726,26.94c0.312,0,0.563,0.252,0.563,0.563c0.002,0.309-0.252,0.558-0.563,0.558
					c-0.307,0-0.558-0.25-0.56-0.558C7.168,27.191,7.419,26.94,7.726,26.94z"/>
				<path fill="#353F49" d="M10.094,36.904c0.272-0.156,0.613-0.063,0.771,0.206c0.154,0.267,0.064,0.61-0.207,0.766
					c-0.269,0.154-0.61,0.063-0.766-0.203C9.736,37.4,9.83,37.059,10.094,36.904z"/>
				<path fill="#353F49" d="M17.131,44.349c0.154-0.269,0.497-0.36,0.767-0.206c0.269,0.156,0.359,0.497,0.206,0.767
					c-0.153,0.268-0.498,0.36-0.766,0.205C17.067,44.957,16.975,44.615,17.131,44.349z"/>
				<path fill="#353F49" d="M26.941,47.28c0-0.313,0.254-0.561,0.565-0.561c0.308,0,0.563,0.248,0.56,0.561
					c0.003,0.309-0.253,0.559-0.56,0.559C27.194,47.838,26.941,47.588,26.941,47.28z"/>
				<path fill="#353F49" d="M36.911,44.91c-0.158-0.271-0.065-0.611,0.203-0.768c0.267-0.154,0.61-0.064,0.765,0.207
					c0.156,0.267,0.067,0.608-0.202,0.764C37.407,45.27,37.063,45.176,36.911,44.91z"/>
				<path fill="#353F49" d="M44.352,37.875c-0.27-0.156-0.36-0.499-0.203-0.771c0.151-0.266,0.495-0.358,0.764-0.201
					c0.269,0.155,0.36,0.495,0.208,0.764C44.965,37.939,44.62,38.028,44.352,37.875z"/>
				<path fill="#353F49" d="M47.283,28.061c-0.311-0.002-0.561-0.251-0.562-0.562c0-0.31,0.251-0.56,0.562-0.559
					c0.308-0.001,0.558,0.249,0.558,0.557C47.842,27.812,47.592,28.059,47.283,28.061z"/>
				<path fill="#353F49" d="M44.913,18.098c-0.269,0.154-0.609,0.062-0.769-0.208c-0.152-0.266-0.062-0.608,0.209-0.764
					c0.267-0.155,0.611-0.063,0.764,0.203C45.273,17.6,45.182,17.941,44.913,18.098z"/>
				<path fill="#353F49" d="M37.879,10.652c-0.157,0.27-0.497,0.361-0.769,0.205c-0.265-0.153-0.357-0.497-0.199-0.766
					c0.152-0.269,0.496-0.36,0.763-0.206C37.946,10.042,38.034,10.383,37.879,10.652z"/>
			</g>
		</g>
		<g>
			<rect x="26.828" y="27.502" fill="#353F49" width="1.357" height="10.979"/>
			<rect x="28.63" y="27.047" fill="#353F49" width="13.586" height="0.907"/>
			<path fill="#353F49" d="M30.031,27.502c0,1.393-1.132,2.526-2.529,2.526c-1.392,0-2.524-1.132-2.524-2.526
				c0-1.397,1.132-2.526,2.524-2.526C28.899,24.976,30.031,26.105,30.031,27.502z"/>
			<g>
				<g>
					
						<rect x="23.236" y="14.446" transform="matrix(0.7057 -0.7085 0.7085 0.7057 -9.7346 23.5713)" fill="#F77B55" width="0.542" height="18.116"/>
					<circle fill="#F77B55" cx="27.502" cy="27.502" r="1.686"/>
				</g>
			</g>
			<path fill="#353F49" d="M28.348,27.502c0,0.465-0.383,0.839-0.846,0.839c-0.461,0-0.839-0.374-0.839-0.839
				c0-0.469,0.378-0.843,0.839-0.843C27.965,26.659,28.348,27.033,28.348,27.502z"/>
		</g>
	</g>
	<g>
		<path fill="#FFFFFF" d="M107,23.012v31.994H80.21c-2.875,0-5.203-2.331-5.203-5.206V23.012H107z"/>
		<circle fill="#F77B55" cx="91.002" cy="26.799" r="1.852"/>
		<g>
			<g>
				<rect x="80.753" y="34.849" fill="#CCCBCA" width="20.499" height="1.383"/>
				<g>
					<rect x="80.753" y="38.315" fill="#CCCBCA" width="20.499" height="1.384"/>
				</g>
				<g>
					<rect x="80.753" y="41.783" fill="#CCCBCA" width="10.25" height="1.385"/>
				</g>
			</g>
		</g>
		<path fill="#CCCBCA" d="M85.413,49.8c0,2.875-2.33,5.206-5.203,5.206H107c2.875,0,5.202-2.33,5.203-5.204L85.413,49.8z"/>
	</g>
</g>
</svg>
