<?xml version="1.0" encoding="utf-8"?>
<!-- Generator: Adobe Illustrator 17.0.0, SVG Export Plug-In . SVG Version: 6.00 Build 0)  -->
<!DOCTYPE svg PUBLIC "-//W3C//DTD SVG 1.1//EN" "http://www.w3.org/Graphics/SVG/1.1/DTD/svg11.dtd">
<svg version="1.1" id="Isolation_Mode" xmlns="http://www.w3.org/2000/svg" xmlns:xlink="http://www.w3.org/1999/xlink" x="0px"
	 y="0px" width="130px" height="130px" viewBox="0 0 130 130" enable-background="new 0 0 130 130" xml:space="preserve">
<circle fill="#F2F2F2" cx="65" cy="65" r="65"/>
<g>
	<g>
		<path fill="#353F49" d="M12.905,103.812c-2.323,0-4.226-1.893-4.226-4.221V30.407c0-2.319,1.902-4.218,4.226-4.218h104.196
			c2.323,0,4.219,1.899,4.219,4.218v69.184c0,2.328-1.896,4.221-4.219,4.221H12.905z"/>
		<path fill="#474F59" d="M116.613,69.28c0,1.033-0.84,1.879-1.878,1.879h-0.462c-1.039,0-1.883-0.846-1.883-1.879v-8.562
			c0-1.032,0.844-1.879,1.883-1.879h0.462c1.038,0,1.878,0.848,1.878,1.879V69.28z"/>
		<path fill="#474F59" d="M16.115,65.008c0,1.069-0.859,1.921-1.936,1.921c-1.057,0-1.933-0.853-1.933-1.921
			c0-1.064,0.876-1.936,1.933-1.936C15.256,63.072,16.115,63.944,16.115,65.008z"/>
		<path fill="#353F49" d="M14.99,65.002c0,0.449-0.362,0.802-0.811,0.802c-0.442,0-0.8-0.353-0.8-0.802
			c0-0.447,0.357-0.809,0.8-0.809C14.628,64.193,14.99,64.555,14.99,65.002z"/>
		<rect x="19.686" y="30.599" fill="#FFFFFF" width="87.997" height="68.814"/>
		<g>
			<g>
				<rect x="24.499" y="47.084" fill="#F77B55" width="36.356" height="20.453"/>
			</g>
			<g>
				<rect x="66.331" y="47.084" fill="#474F59" width="14.971" height="8.418"/>
			</g>
			<g>
				<rect x="66.331" y="59.106" fill="#474F59" width="14.971" height="8.43"/>
			</g>
			<g>
				<rect x="66.331" y="71.144" fill="#474F59" width="14.971" height="8.418"/>
			</g>
			<g>
				<g>
					<rect x="84.355" y="51.991" fill="#D9D8D7" width="18.516" height="1.061"/>
					<rect x="84.355" y="54.453" fill="#D9D8D7" width="18.516" height="1.049"/>
					<rect x="84.355" y="49.543" fill="#D9D8D7" width="18.516" height="1.05"/>
					<rect x="84.354" y="47.084" fill="#D9D8D7" width="10.548" height="1.061"/>
				</g>
			</g>
			<g>
				<g>
					<rect x="32.561" y="88.079" fill="#D9D8D7" width="28.292" height="1.059"/>
					<rect x="32.561" y="90.526" fill="#D9D8D7" width="14.147" height="1.061"/>
					<rect x="32.561" y="85.618" fill="#D9D8D7" width="28.292" height="1.061"/>
					<rect x="24.499" y="83.171" fill="#D9D8D7" width="16.116" height="1.061"/>
				</g>
			</g>
			<g>
				<g>
					<rect x="32.561" y="76.054" fill="#D9D8D7" width="28.292" height="1.059"/>
					<rect x="32.561" y="78.501" fill="#D9D8D7" width="21.703" height="1.061"/>
					<rect x="32.561" y="73.593" fill="#D9D8D7" width="26.065" height="1.061"/>
					<rect x="24.499" y="71.144" fill="#D9D8D7" width="26.381" height="1.062"/>
				</g>
			</g>
			<g>
				<g>
					<rect x="84.355" y="64.015" fill="#D9D8D7" width="18.516" height="1.061"/>
					<rect x="84.355" y="66.475" fill="#D9D8D7" width="18.516" height="1.061"/>
					<rect x="84.355" y="61.568" fill="#D9D8D7" width="18.516" height="1.061"/>
					<rect x="84.354" y="59.106" fill="#D9D8D7" width="10.548" height="1.061"/>
				</g>
			</g>
			<g>
				<g>
					<rect x="84.355" y="76.054" fill="#D9D8D7" width="18.516" height="1.059"/>
					<rect x="84.355" y="78.501" fill="#D9D8D7" width="18.516" height="1.061"/>
					<rect x="84.355" y="73.593" fill="#D9D8D7" width="18.516" height="1.061"/>
					<rect x="84.354" y="71.144" fill="#D9D8D7" width="10.548" height="1.062"/>
				</g>
			</g>
			<g>
				<rect x="66.331" y="83.171" fill="#474F59" width="14.971" height="8.416"/>
			</g>
			<g>
				<g>
					<rect x="84.355" y="88.079" fill="#D9D8D7" width="18.516" height="1.059"/>
					<rect x="84.355" y="90.526" fill="#D9D8D7" width="18.516" height="1.061"/>
					<rect x="84.355" y="85.618" fill="#D9D8D7" width="18.516" height="1.061"/>
					<rect x="84.354" y="83.171" fill="#D9D8D7" width="10.548" height="1.061"/>
				</g>
			</g>
			<g>
				<rect x="24.499" y="35.412" fill="#F77B55" width="78.371" height="7.291"/>
				<rect x="26.894" y="37.807" fill="#FFFFFF" width="54.407" height="2.5"/>
			</g>
		</g>
	</g>
</g>
</svg>
