<?xml version="1.0" encoding="utf-8"?>
<!-- Generator: Adobe Illustrator 17.0.0, SVG Export Plug-In . SVG Version: 6.00 Build 0)  -->
<!DOCTYPE svg PUBLIC "-//W3C//DTD SVG 1.1//EN" "http://www.w3.org/Graphics/SVG/1.1/DTD/svg11.dtd">
<svg version="1.1" id="Isolation_Mode" xmlns="http://www.w3.org/2000/svg" xmlns:xlink="http://www.w3.org/1999/xlink" x="0px"
	 y="0px" width="157.336px" height="130px" viewBox="0 0 157.336 130" enable-background="new 0 0 157.336 130"
	 xml:space="preserve">
<circle fill="#FF916E" cx="80.275" cy="65" r="65"/>
<g>
	<g>
		<g>
			<polygon fill="#CCCBCA" points="95.601,119.947 64.948,119.947 66.618,105.238 93.937,105.238 			"/>
			<path fill="#FFFFFF" d="M101.728,121.662H58.823v-0.73c0-0.252,0.094-0.504,0.287-0.697c0.185-0.191,0.439-0.287,0.691-0.287
				h40.947c0.248,0,0.502,0.096,0.689,0.287c0.193,0.193,0.289,0.445,0.289,0.697V121.662z"/>
		</g>
		<g>
			<path fill="#FFFFFF" d="M135.44,102.787c0,0.627-0.24,1.258-0.723,1.73c-0.475,0.48-1.102,0.721-1.731,0.721H27.56
				c-0.625,0-1.25-0.24-1.73-0.721c-0.479-0.473-0.719-1.104-0.719-1.73V95.43h110.33V102.787z"/>
			<path fill="#353F49" d="M135.44,24.789c0-0.631-0.24-1.256-0.723-1.736c-0.475-0.476-1.102-0.715-1.731-0.715H27.56
				c-0.625,0-1.25,0.238-1.73,0.715c-0.479,0.48-0.719,1.105-0.719,1.736V95.43h110.33V24.789z"/>
			<rect x="30.632" y="27.853" fill="#FFFFFF" width="99.293" height="62.053"/>
		</g>
		<g>
			<g>
				<g>
					<rect x="84.196" y="32.88" fill="#F77B55" width="2.954" height="1.816"/>
					<rect x="84.196" y="44.604" fill="#CCCBCA" width="2.307" height="1.816"/>
					<rect x="89.687" y="32.88" fill="#F77B55" width="12.145" height="1.816"/>
					<rect x="89.216" y="44.604" fill="#CCCBCA" width="9.356" height="1.816"/>
					<rect x="87.15" y="37.333" fill="#353F49" width="4.688" height="1.816"/>
					<rect x="87.15" y="57.972" fill="#CCCBCA" width="4.688" height="1.816"/>
					<rect x="94.076" y="57.972" fill="#353F49" width="9.201" height="1.816"/>
					<rect x="90.931" y="65.242" fill="#CCCBCA" width="2.741" height="1.817"/>
					<rect x="95.738" y="83.063" fill="#CCCBCA" width="5.499" height="1.816"/>
					<rect x="116.704" y="74.153" fill="#CCCBCA" width="5.032" height="1.817"/>
					<rect x="108.571" y="57.972" fill="#353F49" width="6.881" height="1.816"/>
					<rect x="118.368" y="57.972" fill="#353F49" width="4.282" height="1.816"/>
					<rect x="87.15" y="49.065" fill="#353F49" width="7.008" height="1.816"/>
					<rect x="87.15" y="53.52" fill="#F77B55" width="9.938" height="1.817"/>
					<rect x="89.808" y="69.695" fill="#353F49" width="11.387" height="1.817"/>
					<rect x="89.808" y="74.153" fill="#F77B55" width="10.464" height="1.817"/>
					<rect x="103.659" y="74.153" fill="#CCCBCA" width="10.851" height="1.817"/>
					<rect x="103.659" y="83.063" fill="#CCCBCA" width="10.851" height="1.816"/>
					<rect x="84.196" y="65.242" fill="#CCCBCA" width="4.023" height="1.817"/>
					<rect x="89.808" y="83.063" fill="#CCCBCA" width="3.502" height="1.816"/>
					<rect x="92.174" y="78.604" fill="#CCCBCA" width="5.801" height="1.816"/>
					<rect x="101.61" y="78.604" fill="#F77B55" width="17.12" height="1.816"/>
					<rect x="100.099" y="53.52" fill="#CCCBCA" width="7.988" height="1.817"/>
					<rect x="111.194" y="53.52" fill="#CCCBCA" width="13.002" height="1.817"/>
					<rect x="96.448" y="49.065" fill="#353F49" width="10.764" height="1.816"/>
					<rect x="94.776" y="37.333" fill="#353F49" width="4.317" height="1.816"/>
				</g>
			</g>
			<g>
				<g>
					<g>
						<rect x="36.359" y="51.23" fill="#F77B55" width="6.093" height="5.107"/>
						<rect x="45.497" y="43.892" fill="#F77B55" width="6.095" height="12.445"/>
						<rect x="54.636" y="48.004" fill="#F77B55" width="6.089" height="8.333"/>
						<rect x="63.773" y="32.88" fill="#F77B55" width="6.09" height="23.457"/>
						<rect x="72.912" y="41.276" fill="#F77B55" width="6.089" height="15.061"/>
					</g>
				</g>
				<g>
					<rect x="36.359" y="75.404" fill="#CCCBCA" width="42.642" height="1.895"/>
					<rect x="36.359" y="79.194" fill="#CCCBCA" width="42.642" height="1.895"/>
					<rect x="36.359" y="82.984" fill="#CCCBCA" width="21.321" height="1.895"/>
				</g>
				<g>
					<rect x="36.359" y="60.241" fill="#CCCBCA" width="24.365" height="13.268"/>
					<rect x="63.773" y="60.241" fill="#CCCBCA" width="15.228" height="13.268"/>
				</g>
				<g>
					<rect x="36.359" y="32.88" fill="#353F49" width="15.232" height="5.686"/>
					<rect x="38.254" y="34.775" fill="#FFFFFF" width="11.441" height="1.895"/>
					<polygon fill="#353F49" points="48.544,41.612 45.497,38.565 48.544,38.565 					"/>
				</g>
			</g>
		</g>
	</g>
	<g>
		<g>
			<g>
				<polygon fill="#474F59" points="137.102,77.875 133.779,77.875 132.811,82.707 138.07,82.707 				"/>
				<polygon fill="#474F59" points="125.932,79.977 123.055,81.639 124.631,86.309 129.188,83.68 				"/>
				<polygon fill="#474F59" points="117.311,87.382 115.65,90.259 119.352,93.516 121.98,88.961 				"/>
				<polygon fill="#474F59" points="113.545,98.107 113.547,101.43 118.381,102.398 118.381,97.139 				"/>
				<polygon fill="#474F59" points="115.65,109.277 117.311,112.155 121.98,110.576 119.352,106.021 				"/>
				<polygon fill="#474F59" points="123.055,117.898 125.932,119.561 129.188,115.858 124.633,113.229 				"/>
				<polygon fill="#474F59" points="133.781,121.662 137.102,121.662 138.07,116.83 132.811,116.83 				"/>
				<polygon fill="#474F59" points="144.951,119.561 147.826,117.898 146.249,113.229 141.693,115.858 				"/>
				<polygon fill="#474F59" points="153.572,112.155 155.231,109.277 151.531,106.021 148.9,110.576 				"/>
				<polygon fill="#474F59" points="157.336,101.43 157.334,98.107 152.502,97.139 152.502,102.398 				"/>
				<polygon fill="#474F59" points="155.231,90.259 153.572,87.382 148.9,88.961 151.531,93.515 				"/>
				<polygon fill="#474F59" points="147.826,81.639 144.949,79.979 141.693,83.68 146.249,86.308 				"/>
			</g>
		</g>
		<path fill="#353F49" d="M135.439,82.508c-9.533,0-17.262,7.727-17.262,17.262c0,9.535,7.729,17.26,17.262,17.26
			c9.537,0,17.262-7.725,17.262-17.26C152.701,90.234,144.977,82.508,135.439,82.508z M135.439,104.55
			c-2.635,0-4.779-2.145-4.779-4.78c0-2.637,2.145-4.781,4.779-4.781c2.638,0,4.781,2.145,4.781,4.781
			C140.221,102.405,138.077,104.55,135.439,104.55z"/>
		<path fill="#E6E5E5" d="M135.439,91.482c-4.577,0-8.284,3.708-8.284,8.287c0,4.578,3.707,8.284,8.284,8.284
			c4.578,0,8.287-3.706,8.287-8.284C143.727,95.19,140.018,91.482,135.439,91.482z M135.439,103.912
			c-2.285,0-4.142-1.855-4.142-4.143c0-2.286,1.856-4.141,4.142-4.141c2.285,0,4.143,1.854,4.143,4.141
			C139.582,102.057,137.725,103.912,135.439,103.912z"/>
	</g>
	<g>
		<circle fill="#FFFFFF" cx="141.693" cy="10.588" r="8"/>
		<circle fill="#FFFFFF" cx="28.61" cy="117.029" r="3.5"/>
		<circle fill="#353F49" cx="94.776" cy="9" r="3"/>
		<circle fill="#353F49" cx="6" cy="49.973" r="6"/>
	</g>
</g>
</svg>
