<?xml version="1.0" encoding="utf-8"?>
<!-- Generator: Adobe Illustrator 17.0.0, SVG Export Plug-In . SVG Version: 6.00 Build 0)  -->
<!DOCTYPE svg PUBLIC "-//W3C//DTD SVG 1.1//EN" "http://www.w3.org/Graphics/SVG/1.1/DTD/svg11.dtd">
<svg version="1.1" id="Isolation_Mode" xmlns="http://www.w3.org/2000/svg" xmlns:xlink="http://www.w3.org/1999/xlink" x="0px"
	 y="0px" width="155px" height="155px" viewBox="0 0 155 155" enable-background="new 0 0 155 155" xml:space="preserve">
<circle fill="#FF6D3B" cx="77.5" cy="77.5" r="77.5"/>
<g>
	<g>
		<rect x="44.076" y="83.091" fill="#21D8DE" width="94.424" height="54.719"/>
		<rect x="46.921" y="85.931" fill="#06B2B8" width="88.733" height="49.059"/>
		<rect x="49.866" y="88.873" fill="#21D8DE" width="82.842" height="43.174"/>
		<path fill="#06B2B8" d="M74.71,110.463c0-9.165,7.42-16.594,16.586-16.594c9.148,0,16.572,7.429,16.572,16.594
			c0,9.146-7.424,16.583-16.572,16.583C82.13,127.046,74.71,119.609,74.71,110.463z"/>
		<g>
			<g>
				<path fill="#21D8DE" d="M92.827,111.663h-3.074c-1.281,0-2.487-0.507-3.387-1.413c-0.903-0.891-1.402-2.098-1.402-3.388
					c0-1.277,0.499-2.487,1.406-3.392c0.889-0.896,2.089-1.391,3.383-1.391h6.656v2.412h-6.656c-0.643,0-1.241,0.254-1.671,0.688
					c-0.458,0.45-0.702,1.046-0.702,1.683c0,0.648,0.242,1.24,0.686,1.673c0.46,0.462,1.054,0.708,1.687,0.708h3.074V111.663z"/>
				<path fill="#21D8DE" d="M92.827,118.828h-6.653v-2.421h6.653c0.632,0,1.232-0.244,1.686-0.69
					c0.438-0.44,0.689-1.036,0.689-1.677c0-0.642-0.249-1.236-0.683-1.665c-0.46-0.464-1.06-0.712-1.693-0.712h-3.074v-2.42h3.074
					c1.28,0,2.481,0.508,3.387,1.411c0.899,0.888,1.401,2.096,1.401,3.386c0,1.281-0.499,2.491-1.409,3.39
					C95.3,118.335,94.096,118.828,92.827,118.828z"/>
				<rect x="90.082" y="101.242" fill="#21D8DE" width="2.414" height="18.428"/>
			</g>
		</g>
		<g>
			<g>
				<path fill="#06B2B8" d="M135.654,99.384V85.931h-13.452C123.394,92.799,128.788,98.192,135.654,99.384z"/>
				<path fill="#06B2B8" d="M46.921,121.519v13.471H60.37C59.179,128.107,53.793,122.716,46.921,121.519z"/>
				<path fill="#06B2B8" d="M46.921,99.384c6.868-1.191,12.251-6.585,13.449-13.453H46.921V99.384z"/>
				<path fill="#06B2B8" d="M122.203,134.989h13.452v-13.471C128.788,122.716,123.391,128.107,122.203,134.989z"/>
			</g>
		</g>
	</g>
	<g>
		<path fill-rule="evenodd" clip-rule="evenodd" fill="#FFFFFF" d="M93.526,29.541c0.874,0,1.754,0.333,2.421,1.004
			c0.666,0.666,1.005,1.547,1.005,2.422L96.95,72.773c0.002,0.881-0.337,1.762-1.003,2.432c-0.671,0.668-1.547,0.998-2.421,1H30.379
			c-0.876,0-1.753-0.332-2.423-1c-0.667-0.67-1.003-1.551-1.003-2.432l0.001-39.803c-0.001-0.879,0.335-1.76,1.002-2.43
			c0.67-0.667,1.546-1,2.42-1H93.526z"/>
		<g>
			<path fill="#FF6D3B" d="M71.071,52.874c0-3.408,1.71-6.42,4.313-8.231c-0.961-0.357-1.997-0.565-3.086-0.565
				c-4.855,0-8.792,3.94-8.792,8.796c0,4.856,3.936,8.798,8.792,8.798c1.089,0,2.125-0.207,3.086-0.572
				C72.781,59.293,71.071,56.281,71.071,52.874z"/>
			<g>
				<g>
					<g>
						<g>
							<g>
								<path fill="#CCCBCA" d="M81.097,61.67c-4.852,0-8.799-3.946-8.799-8.798c0-4.852,3.947-8.794,8.799-8.794v0.531
									c-4.557,0-8.265,3.705-8.265,8.263s3.708,8.265,8.265,8.265V61.67z"/>
								<path fill="#CCCBCA" d="M81.097,61.67c-1.242,0-2.4-0.939-3.255-2.646c-0.826-1.646-1.272-3.832-1.272-6.152
									c0-2.317,0.447-4.505,1.272-6.149c0.855-1.707,2.013-2.645,3.255-2.645v0.531c-1.032,0-2.02,0.836-2.778,2.35
									c-0.784,1.58-1.216,3.675-1.216,5.913c0,2.24,0.432,4.337,1.216,5.911c0.758,1.521,1.747,2.354,2.778,2.354V61.67z"/>
								<rect x="80.829" y="44.344" fill="#CCCBCA" width="0.534" height="17.059"/>
								<path fill="#CCCBCA" d="M81.097,61.67v-0.533c1.032,0,2.02-0.832,2.778-2.354c0.784-1.574,1.217-3.671,1.217-5.911
									c0-2.238-0.433-4.333-1.217-5.913c-0.758-1.514-1.747-2.35-2.778-2.35v-0.531c1.24,0,2.4,0.938,3.256,2.645
									c0.823,1.645,1.272,3.832,1.272,6.149c0,2.32-0.45,4.507-1.272,6.152C83.497,60.73,82.337,61.67,81.097,61.67z"/>
								<path fill="#CCCBCA" d="M81.097,61.67v-0.533c4.558,0,8.263-3.707,8.263-8.265s-3.705-8.263-8.263-8.263v-0.531
									c4.851,0,8.797,3.942,8.797,8.794C89.894,57.724,85.948,61.67,81.097,61.67z"/>
							</g>
							<g>
								<rect x="73.711" y="48.343" fill="#CCCBCA" width="14.77" height="0.532"/>
								<rect x="72.567" y="52.604" fill="#CCCBCA" width="17.062" height="0.537"/>
								<rect x="73.711" y="56.868" fill="#CCCBCA" width="14.77" height="0.532"/>
							</g>
						</g>
					</g>
				</g>
			</g>
			<path fill="#FFD55C" d="M45.64,56.559c0,0.508-0.417,0.932-0.927,0.932h-9.769c-0.517,0-0.936-0.424-0.936-0.932v-7.371
				c0-0.508,0.418-0.93,0.936-0.93h9.769c0.51,0,0.927,0.422,0.927,0.93V56.559z"/>
			<rect x="34.009" y="50.541" fill="#FFB733" width="11.631" height="4.663"/>
			<g>
				<g>
					<rect x="34.009" y="67.215" fill-rule="evenodd" clip-rule="evenodd" fill="#CCCBCA" width="11.631" height="1.39"/>
					<rect x="48.759" y="67.215" fill-rule="evenodd" clip-rule="evenodd" fill="#CCCBCA" width="11.631" height="1.39"/>
					<rect x="63.512" y="67.215" fill-rule="evenodd" clip-rule="evenodd" fill="#CCCBCA" width="11.633" height="1.39"/>
					<rect x="78.258" y="67.215" fill-rule="evenodd" clip-rule="evenodd" fill="#CCCBCA" width="11.637" height="1.39"/>
				</g>
			</g>
			<rect x="34.009" y="35.116" fill="#242D3C" width="26.381" height="3.267"/>
			<rect x="26.954" y="39.893" fill="#FF6D3B" width="69.997" height="0.657"/>
		</g>
	</g>
	<g>
		<g>
			<g>
				<rect x="20.413" y="132.047" fill="#FFC640" width="27.567" height="5.763"/>
				<rect x="20.413" y="131.475" fill="#FFD55C" width="27.567" height="5.759"/>
			</g>
			<g>
				<rect x="16.5" y="125.715" fill="#FFB733" width="27.576" height="5.76"/>
				<rect x="16.5" y="125.139" fill="#FFC640" width="27.576" height="5.755"/>
			</g>
			<g>
				<rect x="22.641" y="119.374" fill="#FFC640" width="27.572" height="5.765"/>
				<rect x="22.641" y="118.788" fill="#FFD55C" width="27.572" height="5.773"/>
			</g>
			<g>
				<rect x="23.505" y="113.034" fill="#FFC640" width="27.567" height="5.754"/>
				<rect x="23.505" y="112.459" fill="#FFB733" width="27.567" height="5.768"/>
			</g>
			<g>
				<rect x="21.031" y="106.699" fill="#FFB733" width="27.571" height="5.76"/>
				<rect x="21.031" y="106.122" fill="#FFC640" width="27.571" height="5.757"/>
			</g>
			<g>
				<rect x="21.981" y="100.361" fill="#FFB733" width="27.572" height="5.761"/>
				<rect x="21.981" y="99.78" fill="#FFC640" width="27.572" height="5.765"/>
			</g>
			<g>
				<rect x="20.413" y="94.027" fill="#FFC640" width="27.567" height="5.753"/>
				<rect x="20.413" y="93.448" fill="#FFD55C" width="27.567" height="5.758"/>
			</g>
		</g>
		<g>
			<path fill="#FFB733" d="M73.537,124.021c0,7.61-6.17,13.788-13.784,13.788c-7.616,0-13.784-6.178-13.784-13.788
				c0-7.609,6.167-13.783,13.784-13.783C67.367,110.238,73.537,116.412,73.537,124.021z"/>
			<path fill="#FFD55C" d="M70.774,124.021c0,6.105-4.93,11.031-11.021,11.031c-6.095,0-11.028-4.927-11.028-11.031
				c0-6.088,4.933-11.02,11.028-11.02C65.844,113.002,70.774,117.934,70.774,124.021z"/>
			<g>
				<g>
					<path fill="#FFB733" d="M60.913,124.935h-2.319c-0.968,0-1.875-0.377-2.551-1.065c-0.683-0.672-1.06-1.576-1.06-2.544
						c0-0.973,0.377-1.876,1.065-2.565c0.664-0.666,1.57-1.048,2.546-1.048h5.018v1.826h-5.018c-0.488,0-0.934,0.182-1.266,0.51
						c-0.337,0.341-0.522,0.792-0.522,1.276c0,0.48,0.186,0.921,0.516,1.256c0.348,0.345,0.796,0.538,1.272,0.538h2.319V124.935z"/>
					<path fill="#FFB733" d="M60.913,130.336h-5.021v-1.821h5.021c0.471,0,0.925-0.179,1.269-0.52
						c0.329-0.334,0.523-0.783,0.523-1.265c0-0.486-0.195-0.938-0.523-1.254c-0.343-0.348-0.798-0.542-1.269-0.542h-2.319v-1.815
						h2.319c0.962,0,1.867,0.377,2.55,1.06c0.68,0.66,1.056,1.577,1.056,2.552c0,0.964-0.376,1.879-1.061,2.557
						C62.779,129.959,61.868,130.336,60.913,130.336z"/>
					<rect x="58.846" y="117.082" fill="#FFB733" width="1.811" height="13.89"/>
				</g>
			</g>
		</g>
	</g>
</g>
</svg>
