<?xml version="1.0" encoding="utf-8"?>
<!-- Generator: Adobe Illustrator 17.0.0, SVG Export Plug-In . SVG Version: 6.00 Build 0)  -->
<!DOCTYPE svg PUBLIC "-//W3C//DTD SVG 1.1//EN" "http://www.w3.org/Graphics/SVG/1.1/DTD/svg11.dtd">
<svg version="1.1" id="Isolation_Mode" xmlns="http://www.w3.org/2000/svg" xmlns:xlink="http://www.w3.org/1999/xlink" x="0px"
	 y="0px" width="155px" height="155px" viewBox="0 0 155 155" enable-background="new 0 0 155 155" xml:space="preserve">
<circle fill="#FFD55C" cx="77.5" cy="77.5" r="77.5"/>
<g>
	<g>
		<path fill="#FFFFFF" d="M138.585,126.521c0.481-0.863,0.749-1.811,0.749-2.803c0-4.009-4.343-7.259-9.698-7.259
			c-5.357,0-9.699,3.249-9.699,7.259c0,0.992,0.267,1.94,0.75,2.803H138.585z"/>
		<path fill="#E6E5E5" d="M120.038,124.756c0.116,0.617,0.337,1.209,0.648,1.766h17.899c0.311-0.557,0.531-1.149,0.646-1.766
			H120.038z"/>
	</g>
	<g>
		<g>
			<polygon fill="#E6E5E5" points="92.264,124.312 62.722,124.312 66.47,106.049 88.509,106.049 			"/>
			<polygon fill="#D9D8D7" points="92.264,124.312 88.509,106.049 66.47,106.049 84.733,124.312 			"/>
			<path fill="#FFFFFF" d="M100.175,126.521H54.813v-0.762c0-0.37,0.14-0.74,0.422-1.021c0.282-0.284,0.653-0.425,1.021-0.425
				h42.472c0.369,0,0.741,0.142,1.024,0.425c0.281,0.282,0.423,0.652,0.423,1.021V126.521z"/>
		</g>
		<path fill="#242D3C" d="M23.56,30.894c-1.511,0-2.753,1.247-2.753,2.762v69.634c0,1.518,1.241,2.759,2.753,2.759h107.869
			c1.521,0,2.767-1.242,2.767-2.759V33.656c0-1.515-1.246-2.762-2.767-2.762H23.56z"/>
		<rect x="26.532" y="36.625" fill="#FFFFFF" width="101.922" height="63.693"/>
		<g>
			<g>
				<g>
					<g>
						<rect x="35.068" y="86.213" fill="#E6E5E5" width="37.281" height="1.657"/>
						<rect x="35.068" y="89.526" fill="#E6E5E5" width="37.281" height="1.658"/>
						<rect x="35.068" y="92.841" fill="#E6E5E5" width="18.641" height="1.657"/>
					</g>
				</g>
				<g>
					<path fill="#E6E5E5" d="M62.407,57.359c0,2.402-0.972,4.576-2.549,6.151l4.394,4.395c2.703-2.7,4.369-6.429,4.369-10.545
						H62.407z"/>
					<path fill="#242D3C" d="M59.855,63.513c-1.572,1.572-3.747,2.544-6.146,2.544c-4.803,0-8.697-3.895-8.697-8.699
						c0-3.623,2.216-6.728,5.368-8.034l-2.376-5.741c-5.404,2.234-9.206,7.564-9.206,13.778c0,8.234,6.68,14.91,14.908,14.91
						c4.116,0,7.848-1.665,10.546-4.361L59.855,63.513z"/>
					<path fill="#FFD55C" d="M53.705,48.661v-6.215c-2.017,0-3.946,0.403-5.701,1.138l2.376,5.741
						C51.407,48.898,52.528,48.661,53.705,48.661z"/>
					<path fill="#FF6D3B" d="M53.709,48.661c4.806,0,8.698,3.895,8.698,8.698v0.001h6.213c0-8.237-6.676-14.914-14.913-14.914
						L53.709,48.661C53.709,48.661,53.709,48.661,53.709,48.661z"/>
				</g>
				<g>
					<g>
						<rect x="35.068" y="77.6" fill="#242D3C" width="2.499" height="2.494"/>
						<rect x="39.221" y="78.437" fill="#E6E5E5" width="3.418" height="1.656"/>
					</g>
					<g>
						<rect x="44.971" y="77.6" fill="#FFD55C" width="2.496" height="2.494"/>
						<rect x="49.125" y="78.437" fill="#E6E5E5" width="3.417" height="1.656"/>
					</g>
					<g>
						<rect x="54.875" y="77.6" fill="#FF6D3B" width="2.495" height="2.494"/>
						<rect x="59.026" y="78.437" fill="#E6E5E5" width="3.421" height="1.656"/>
					</g>
					<g>
						<rect x="64.779" y="77.6" fill="#E6E5E5" width="2.498" height="2.494"/>
						<rect x="68.934" y="78.437" fill="#E6E5E5" width="3.415" height="1.656"/>
					</g>
				</g>
			</g>
			<g>
				<g>
					<rect x="82.637" y="42.446" fill="#242D3C" width="37.279" height="1.657"/>
					<rect x="82.637" y="45.759" fill="#E6E5E5" width="18.641" height="1.658"/>
				</g>
				<g>
					<g>
						<rect x="82.637" y="53.537" fill="#FFD55C" width="17.81" height="16.616"/>
						<rect x="102.104" y="53.537" fill="#FFD55C" width="17.812" height="16.616"/>
					</g>
				</g>
				<g>
					<g>
						<rect x="82.637" y="86.213" fill="#E6E5E5" width="37.279" height="1.657"/>
						<rect x="82.637" y="82.9" fill="#E6E5E5" width="37.279" height="1.656"/>
						<rect x="82.637" y="79.586" fill="#E6E5E5" width="37.279" height="1.657"/>
						<rect x="82.637" y="76.273" fill="#E6E5E5" width="37.279" height="1.657"/>
						<rect x="82.637" y="89.526" fill="#E6E5E5" width="37.279" height="1.658"/>
						<rect x="82.637" y="92.841" fill="#E6E5E5" width="18.642" height="1.657"/>
					</g>
				</g>
			</g>
		</g>
	</g>
	<g>
		<rect x="14.38" y="94.927" fill="#FFFFFF" width="24.306" height="31.595"/>
		<rect x="26.532" y="94.927" fill="#F2F2F2" width="12.154" height="31.595"/>
		<rect x="32.609" y="94.927" fill="#E6E5E5" width="6.077" height="31.595"/>
		<path fill="#F2F2F2" d="M41.602,119.593h-2.916v-2.671h2.916c0.616,0,1.195-0.238,1.632-0.675
			c0.436-0.436,0.678-1.019,0.678-1.633v-7.78c0-0.615-0.243-1.195-0.678-1.628c-0.437-0.438-1.016-0.678-1.632-0.678h-2.916v-2.673
			h2.916c1.328,0,2.58,0.516,3.521,1.457c0.943,0.941,1.459,2.193,1.459,3.523v7.78c0,1.33-0.516,2.582-1.459,3.522
			C44.182,119.077,42.93,119.593,41.602,119.593z"/>
		<g>
			<g>
				<path fill="#F15424" d="M17.705,94.927v2.466c0,0.507-0.412,0.915-0.92,0.915c-0.505,0-0.915-0.408-0.915-0.915v-2.466H17.705z"
					/>
				<path fill="#F15424" d="M19.536,94.927v2.466c0-0.507-0.409-0.918-0.916-0.918c-0.506,0-0.915,0.411-0.915,0.918v-2.466H19.536z
					"/>
				<path fill="#F15424" d="M21.37,94.927v9.703c0,0.506-0.406,0.914-0.915,0.914c-0.508,0-0.918-0.409-0.918-0.914v-9.703H21.37z"
					/>
				<path fill="#F15424" d="M25.04,94.927v6.144c0,0.506-0.409,0.916-0.919,0.916c-0.505,0-0.917-0.411-0.917-0.916v-6.144H25.04z"
					/>
				<path fill="#F15424" d="M23.205,94.927v1.661c0-0.507-0.409-0.916-0.921-0.916c-0.501,0-0.914,0.409-0.914,0.916v-1.661H23.205z
					"/>
			</g>
		</g>
	</g>
	<g>
		<rect x="6.707" y="132.037" fill="#242D3C" width="141.586" height="2.07"/>
		<rect x="1" y="126.521" fill="#3E4959" width="153" height="5.515"/>
	</g>
</g>
</svg>
